<svg xmlns="http://www.w3.org/2000/svg" xmlns:xlink="http://www.w3.org/1999/xlink" width="1080" zoomAndPan="magnify" viewBox="0 0 810 809.999993" height="1080" preserveAspectRatio="xMidYMid meet" version="1.0"><defs><clipPath id="0e9073054f"><path d="M 337.5 489.488281 L 472.5 489.488281 L 472.5 617.738281 L 337.5 617.738281 Z M 337.5 489.488281 " clip-rule="nonzero"/></clipPath><clipPath id="48b502c62b"><path d="M 187.5 489.488281 L 322.5 489.488281 L 322.5 617.738281 L 187.5 617.738281 Z M 187.5 489.488281 " clip-rule="nonzero"/></clipPath><clipPath id="dae1ce7bff"><path d="M 37.5 489.488281 L 172.5 489.488281 L 172.5 617.738281 L 37.5 617.738281 Z M 37.5 489.488281 " clip-rule="nonzero"/></clipPath><clipPath id="a0102434ef"><path d="M 487.5 489.488281 L 622.5 489.488281 L 622.5 617.738281 L 487.5 617.738281 Z M 487.5 489.488281 " clip-rule="nonzero"/></clipPath><clipPath id="f5849272f9"><path d="M 637.5 489.488281 L 772.5 489.488281 L 772.5 617.738281 L 637.5 617.738281 Z M 637.5 489.488281 " clip-rule="nonzero"/></clipPath><clipPath id="579e8b3b37"><path d="M 153.140625 192.136719 L 656.847656 192.136719 L 656.847656 457.636719 L 153.140625 457.636719 Z M 153.140625 192.136719 " clip-rule="nonzero"/></clipPath></defs><g clip-path="url(#0e9073054f)"><path fill="#bf9c53" d="M 405 489.488281 L 422.382812 528.570312 C 423.050781 530.070312 424.101562 531.367188 425.429688 532.332031 C 426.757812 533.300781 428.320312 533.898438 429.953125 534.070312 L 472.492188 538.523438 L 440.695312 567.132812 C 439.472656 568.230469 438.5625 569.632812 438.054688 571.195312 C 437.550781 572.757812 437.460938 574.425781 437.804688 576.03125 L 446.710938 617.863281 L 409.679688 596.464844 C 408.257812 595.644531 406.644531 595.210938 405 595.210938 C 403.355469 595.210938 401.742188 595.644531 400.320312 596.464844 L 363.289062 617.863281 L 372.195312 576.03125 C 372.539062 574.425781 372.453125 572.757812 371.945312 571.195312 C 371.4375 569.632812 370.527344 568.230469 369.304688 567.132812 L 337.507812 538.523438 L 380.046875 534.070312 C 381.679688 533.898438 383.242188 533.300781 384.570312 532.332031 C 385.898438 531.367188 386.949219 530.070312 387.617188 528.570312 Z M 405 489.488281 " fill-opacity="1" fill-rule="evenodd"/></g><g clip-path="url(#48b502c62b)"><path fill="#bf9c53" d="M 255 489.488281 L 272.382812 528.570312 C 273.050781 530.070312 274.101562 531.367188 275.429688 532.332031 C 276.757812 533.300781 278.320312 533.898438 279.953125 534.070312 L 322.492188 538.523438 L 290.695312 567.132812 C 289.472656 568.230469 288.5625 569.632812 288.054688 571.195312 C 287.550781 572.757812 287.460938 574.425781 287.804688 576.03125 L 296.710938 617.863281 L 259.679688 596.464844 C 258.257812 595.644531 256.644531 595.210938 255 595.210938 C 253.355469 595.210938 251.742188 595.644531 250.320312 596.464844 L 213.289062 617.863281 L 222.195312 576.03125 C 222.539062 574.425781 222.453125 572.757812 221.945312 571.195312 C 221.4375 569.632812 220.527344 568.230469 219.304688 567.132812 L 187.507812 538.523438 L 230.046875 534.070312 C 231.679688 533.898438 233.242188 533.300781 234.570312 532.332031 C 235.898438 531.367188 236.949219 530.070312 237.617188 528.570312 Z M 255 489.488281 " fill-opacity="1" fill-rule="evenodd"/></g><g clip-path="url(#dae1ce7bff)"><path fill="#bf9c53" d="M 105 489.488281 L 122.382812 528.570312 C 123.050781 530.070312 124.101562 531.367188 125.429688 532.332031 C 126.757812 533.300781 128.320312 533.898438 129.953125 534.070312 L 172.492188 538.523438 L 140.695312 567.132812 C 139.472656 568.230469 138.5625 569.632812 138.054688 571.195312 C 137.550781 572.757812 137.460938 574.425781 137.804688 576.03125 L 146.710938 617.863281 L 109.679688 596.464844 C 108.257812 595.644531 106.644531 595.210938 105 595.210938 C 103.355469 595.210938 101.742188 595.644531 100.320312 596.464844 L 63.289062 617.863281 L 72.195312 576.03125 C 72.539062 574.425781 72.453125 572.757812 71.945312 571.195312 C 71.4375 569.632812 70.527344 568.230469 69.304688 567.132812 L 37.507812 538.523438 L 80.046875 534.070312 C 81.679688 533.898438 83.242188 533.300781 84.570312 532.332031 C 85.898438 531.367188 86.949219 530.070312 87.617188 528.570312 Z M 105 489.488281 " fill-opacity="1" fill-rule="evenodd"/></g><g clip-path="url(#a0102434ef)"><path fill="#bf9c53" d="M 555 489.488281 L 572.382812 528.570312 C 573.050781 530.070312 574.101562 531.367188 575.429688 532.332031 C 576.757812 533.300781 578.320312 533.898438 579.953125 534.070312 L 622.492188 538.523438 L 590.695312 567.132812 C 589.472656 568.230469 588.5625 569.632812 588.054688 571.195312 C 587.550781 572.757812 587.460938 574.425781 587.804688 576.03125 L 596.710938 617.863281 L 559.679688 596.464844 C 558.257812 595.644531 556.644531 595.210938 555 595.210938 C 553.355469 595.210938 551.742188 595.644531 550.320312 596.464844 L 513.289062 617.863281 L 522.195312 576.03125 C 522.539062 574.425781 522.453125 572.757812 521.945312 571.195312 C 521.4375 569.632812 520.527344 568.230469 519.304688 567.132812 L 487.507812 538.523438 L 530.046875 534.070312 C 531.679688 533.898438 533.242188 533.300781 534.570312 532.332031 C 535.898438 531.367188 536.949219 530.070312 537.617188 528.570312 Z M 555 489.488281 " fill-opacity="1" fill-rule="evenodd"/></g><g clip-path="url(#f5849272f9)"><path fill="#bf9c53" d="M 705 489.488281 L 722.382812 528.570312 C 723.050781 530.070312 724.101562 531.367188 725.429688 532.332031 C 726.757812 533.300781 728.320312 533.898438 729.953125 534.070312 L 772.492188 538.523438 L 740.695312 567.132812 C 739.472656 568.230469 738.5625 569.632812 738.054688 571.195312 C 737.550781 572.757812 737.460938 574.425781 737.804688 576.03125 L 746.710938 617.863281 L 709.679688 596.464844 C 708.257812 595.644531 706.644531 595.210938 705 595.210938 C 703.355469 595.210938 701.742188 595.644531 700.320312 596.464844 L 663.289062 617.863281 L 672.195312 576.03125 C 672.539062 574.425781 672.453125 572.757812 671.945312 571.195312 C 671.4375 569.632812 670.527344 568.230469 669.304688 567.132812 L 637.507812 538.523438 L 680.046875 534.070312 C 681.679688 533.898438 683.242188 533.300781 684.570312 532.332031 C 685.898438 531.367188 686.949219 530.070312 687.617188 528.570312 Z M 705 489.488281 " fill-opacity="1" fill-rule="evenodd"/></g><g clip-path="url(#579e8b3b37)"><path fill="#bf9c53" d="M 524.5625 444.445312 L 524.5625 315.804688 L 531.097656 320.015625 L 553.050781 285.277344 L 409.171875 192.453125 L 408.710938 192.15625 L 401.308594 192.136719 L 349.238281 225.730469 L 349.238281 221.101562 L 293.398438 221.101562 L 293.398438 261.753906 L 256.941406 285.277344 L 278.898438 320.015625 L 285.425781 315.804688 L 285.425781 444.445312 L 153.144531 444.445312 L 153.144531 457.496094 L 298.199219 457.496094 L 298.355469 291.96875 L 282.835938 301.980469 L 274.789062 289.253906 L 306.328125 268.910156 L 306.328125 234.15625 L 336.320312 234.15625 L 336.320312 249.5625 L 404.0625 205.859375 L 405.898438 205.839844 L 535.199219 289.253906 L 527.160156 301.980469 L 511.640625 291.972656 L 511.429688 457.496094 L 656.847656 457.496094 L 656.847656 444.445312 L 524.5625 444.445312 " fill-opacity="1" fill-rule="nonzero"/></g></svg>