<svg xmlns="http://www.w3.org/2000/svg" xmlns:xlink="http://www.w3.org/1999/xlink" width="1080" zoomAndPan="magnify" viewBox="0 0 810 809.999993" height="1080" preserveAspectRatio="xMidYMid meet" version="1.0"><defs><clipPath id="829498bd8f"><path d="M 192.027344 191 L 352 191 L 352 297 L 192.027344 297 Z M 192.027344 191 " clip-rule="nonzero"/></clipPath><clipPath id="b813a022d0"><path d="M 283 205 L 526 205 L 526 330.644531 L 283 330.644531 Z M 283 205 " clip-rule="nonzero"/></clipPath><clipPath id="6ee49d7c15"><path d="M 329 34.394531 L 481 34.394531 L 481 186 L 329 186 Z M 329 34.394531 " clip-rule="nonzero"/></clipPath><clipPath id="7799ac9767"><path d="M 183 243.59375 L 627 243.59375 L 627 763.34375 L 183 763.34375 Z M 183 243.59375 " clip-rule="nonzero"/></clipPath><clipPath id="d89286c8de"><path d="M 262 394 L 548 394 L 548 613.335938 L 262 613.335938 Z M 262 394 " clip-rule="nonzero"/></clipPath></defs><path fill="#bf9c53" d="M 527.976562 296.167969 L 617.769531 296.167969 C 607.066406 213.5 565.761719 191.117188 516.40625 191.117188 C 494.851562 191.117188 474.835938 195.367188 458.226562 207.070312 C 492.949219 220.800781 516.027344 250.328125 527.976562 296.167969 " fill-opacity="1" fill-rule="nonzero"/><path fill="#bf9c53" d="M 516.40625 47.710938 C 500.476562 47.710938 485.953125 53.621094 474.820312 63.34375 C 483.941406 76.679688 489.265625 92.820312 489.265625 110.179688 C 489.265625 128.050781 483.5625 144.605469 473.941406 158.179688 C 485.1875 168.359375 500.039062 174.621094 516.40625 174.621094 C 551.429688 174.621094 579.859375 146.203125 579.859375 111.136719 C 579.859375 76.117188 551.429688 47.710938 516.40625 47.710938 " fill-opacity="1" fill-rule="nonzero"/><g clip-path="url(#829498bd8f)"><path fill="#bf9c53" d="M 282 296.167969 L 192.222656 296.167969 C 202.90625 213.5 244.226562 191.117188 293.59375 191.117188 C 315.128906 191.117188 335.140625 195.367188 351.75 207.070312 C 317.042969 220.800781 293.960938 250.328125 282 296.167969 " fill-opacity="1" fill-rule="nonzero"/></g><path fill="#bf9c53" d="M 293.59375 47.710938 C 309.527344 47.710938 324.019531 53.621094 335.171875 63.34375 C 326.058594 76.679688 320.710938 92.820312 320.710938 110.179688 C 320.710938 128.050781 326.425781 144.605469 336.0625 158.179688 C 324.796875 168.359375 309.933594 174.621094 293.59375 174.621094 C 258.550781 174.621094 230.128906 146.203125 230.128906 111.136719 C 230.128906 76.117188 258.550781 47.710938 293.59375 47.710938 " fill-opacity="1" fill-rule="nonzero"/><g clip-path="url(#b813a022d0)"><path fill="#bf9c53" d="M 525.976562 331.023438 C 513.230469 232.363281 463.910156 205.601562 405 205.601562 C 346.074219 205.601562 296.769531 232.363281 283.992188 331.023438 L 525.976562 331.023438 " fill-opacity="1" fill-rule="nonzero"/></g><g clip-path="url(#6ee49d7c15)"><path fill="#bf9c53" d="M 480.726562 110.179688 C 480.726562 151.992188 446.8125 185.910156 405 185.910156 C 363.160156 185.910156 329.273438 151.992188 329.273438 110.179688 C 329.273438 68.363281 363.160156 34.453125 405 34.453125 C 446.8125 34.453125 480.726562 68.363281 480.726562 110.179688 " fill-opacity="1" fill-rule="nonzero"/></g><path fill="#ffffff" d="M 611.800781 302.953125 C 578.398438 269.546875 404.914062 252.308594 404.914062 252.308594 C 404.914062 252.308594 231.421875 269.546875 198.019531 302.953125 C 198.019531 302.953125 178.472656 482.710938 210.953125 574.492188 C 260.519531 714.574219 404.914062 754.445312 404.914062 754.445312 C 404.914062 754.445312 549.300781 714.574219 598.875 574.492188 C 631.355469 482.710938 611.800781 302.953125 611.800781 302.953125 " fill-opacity="1" fill-rule="nonzero"/><g clip-path="url(#7799ac9767)"><path fill="#bf9c53" d="M 611.800781 302.953125 L 617.921875 296.832031 C 615.230469 294.148438 612.101562 291.785156 608.589844 289.558594 C 602.011719 285.414062 594.070312 281.785156 585.078125 278.410156 C 569.359375 272.535156 550.429688 267.507812 530.742188 263.179688 C 501.234375 256.703125 470.050781 251.847656 446.199219 248.597656 C 422.355469 245.34375 405.839844 243.703125 405.765625 243.695312 C 405.257812 243.640625 404.5625 243.640625 404.054688 243.695312 C 403.921875 243.707031 360.402344 248.027344 312.46875 256.582031 C 288.496094 260.867188 263.425781 266.195312 241.941406 272.664062 C 231.199219 275.894531 221.34375 279.417969 212.871094 283.332031 C 208.632812 285.285156 204.738281 287.34375 201.230469 289.558594 C 197.722656 291.785156 194.589844 294.148438 191.898438 296.832031 C 190.515625 298.21875 189.628906 300.066406 189.417969 302.019531 C 189.398438 302.207031 183.535156 356.070312 183.535156 420.222656 C 183.535156 446.871094 184.542969 475.300781 187.4375 502.480469 C 190.339844 529.664062 195.085938 555.570312 202.792969 577.378906 C 215.582031 613.527344 234.519531 643.261719 255.652344 667.410156 C 287.375 703.640625 323.960938 727.382812 352.652344 742.144531 C 381.347656 756.894531 402.183594 762.667969 402.609375 762.789062 C 404.109375 763.203125 405.710938 763.203125 407.210938 762.789062 C 407.78125 762.621094 444.632812 752.425781 488.015625 724.261719 C 509.703125 710.164062 533.027344 691.566406 554.167969 667.410156 C 575.300781 643.261719 594.238281 613.527344 607.03125 577.378906 C 614.738281 555.570312 619.484375 529.664062 622.382812 502.484375 C 625.277344 475.3125 626.285156 446.886719 626.285156 420.234375 C 626.285156 356.078125 620.421875 302.207031 620.402344 302.019531 C 620.1875 300.066406 619.308594 298.21875 617.921875 296.832031 L 611.800781 302.953125 L 603.195312 303.886719 L 603.210938 304.027344 C 603.535156 307.042969 608.984375 359.085938 608.976562 420.234375 C 608.984375 446.441406 607.976562 474.320312 605.171875 500.652344 C 602.378906 526.980469 597.746094 551.769531 590.714844 571.605469 C 578.714844 605.496094 561.023438 633.285156 541.140625 656.011719 C 511.332031 690.085938 476.554688 712.714844 449.257812 726.75 C 435.605469 733.765625 423.835938 738.632812 415.535156 741.738281 C 411.382812 743.285156 408.097656 744.394531 405.878906 745.105469 C 404.765625 745.460938 403.921875 745.71875 403.371094 745.882812 C 403.09375 745.96875 402.890625 746.023438 402.757812 746.0625 L 402.621094 746.097656 L 402.601562 746.105469 L 404.089844 751.464844 L 402.609375 746.105469 L 402.601562 746.105469 L 404.089844 751.464844 L 402.609375 746.105469 L 404.914062 754.445312 L 407.210938 746.105469 C 406.664062 745.960938 371.238281 735.949219 330.261719 709.117188 C 309.773438 695.699219 287.902344 678.097656 268.214844 655.476562 C 248.527344 632.851562 231.011719 605.234375 219.113281 571.605469 C 212.082031 551.769531 207.441406 526.972656 204.652344 500.644531 C 201.84375 474.3125 200.835938 446.433594 200.84375 420.222656 C 200.84375 388.664062 202.292969 359.53125 203.738281 338.308594 C 204.460938 327.703125 205.183594 319.078125 205.726562 313.105469 C 205.996094 310.125 206.226562 307.8125 206.382812 306.246094 C 206.460938 305.460938 206.523438 304.867188 206.5625 304.472656 C 206.585938 304.269531 206.597656 304.121094 206.609375 304.027344 L 206.625 303.886719 L 198.019531 302.953125 L 204.136719 309.070312 C 205.628906 307.578125 207.765625 305.898438 210.472656 304.195312 C 215.535156 300.984375 222.546875 297.707031 230.8125 294.621094 C 245.289062 289.195312 263.601562 284.292969 282.789062 280.085938 C 311.582031 273.757812 342.398438 268.953125 365.960938 265.742188 C 377.734375 264.140625 387.707031 262.929688 394.726562 262.125 C 398.234375 261.71875 401.007812 261.414062 402.890625 261.21875 C 403.839844 261.117188 404.554688 261.035156 405.042969 260.988281 C 405.527344 260.941406 405.765625 260.914062 405.765625 260.914062 L 404.914062 252.308594 L 404.054688 260.914062 C 404.054688 260.914062 404.210938 260.933594 404.527344 260.960938 C 409.496094 261.46875 452.851562 266.019531 498.738281 274.421875 C 521.671875 278.621094 545.246094 283.792969 564.789062 289.808594 C 574.550781 292.816406 583.3125 296.035156 590.378906 299.363281 C 593.914062 301.019531 597.015625 302.703125 599.601562 304.351562 C 602.1875 306 604.238281 307.625 605.675781 309.070312 L 611.800781 302.953125 L 603.195312 303.886719 L 611.800781 302.953125 " fill-opacity="1" fill-rule="nonzero"/></g><g clip-path="url(#d89286c8de)"><path fill="#bf9c53" d="M 546.671875 455.894531 C 548.230469 454.335938 548.230469 451.804688 546.671875 450.246094 C 545.113281 448.683594 542.582031 448.683594 541.023438 450.246094 L 475.027344 516.238281 L 418.800781 460.015625 C 418.789062 460 418.773438 459.992188 418.761719 459.980469 C 418.703125 459.921875 418.640625 459.867188 418.578125 459.8125 C 418.539062 459.777344 418.5 459.742188 418.457031 459.710938 C 418.398438 459.664062 418.339844 459.621094 418.277344 459.578125 C 418.230469 459.542969 418.179688 459.507812 418.128906 459.476562 C 418.078125 459.445312 418.023438 459.414062 417.96875 459.382812 C 417.910156 459.347656 417.847656 459.3125 417.785156 459.277344 C 417.738281 459.253906 417.691406 459.234375 417.644531 459.214844 C 417.570312 459.179688 417.5 459.148438 417.425781 459.121094 C 417.382812 459.101562 417.335938 459.085938 417.289062 459.070312 C 417.214844 459.046875 417.140625 459.019531 417.066406 458.996094 C 417.011719 458.984375 416.960938 458.972656 416.910156 458.960938 C 416.835938 458.941406 416.765625 458.925781 416.695312 458.914062 C 416.632812 458.902344 416.570312 458.894531 416.503906 458.882812 C 416.445312 458.875 416.382812 458.867188 416.324219 458.863281 C 416.25 458.855469 416.171875 458.851562 416.097656 458.851562 C 416.046875 458.851562 415.996094 458.847656 415.945312 458.847656 C 415.863281 458.847656 415.785156 458.851562 415.703125 458.859375 C 415.65625 458.859375 415.609375 458.863281 415.5625 458.867188 C 415.484375 458.875 415.40625 458.890625 415.324219 458.902344 C 415.277344 458.910156 415.226562 458.917969 415.179688 458.925781 C 415.105469 458.941406 415.039062 458.960938 414.96875 458.976562 C 414.910156 458.992188 414.847656 459.007812 414.792969 459.027344 C 414.734375 459.042969 414.675781 459.066406 414.621094 459.085938 C 414.550781 459.109375 414.480469 459.136719 414.410156 459.164062 C 414.363281 459.183594 414.320312 459.207031 414.273438 459.230469 C 414.195312 459.265625 414.121094 459.300781 414.046875 459.34375 C 414.03125 459.351562 414.015625 459.359375 414 459.367188 L 393.238281 471.175781 C 387.328125 474.25 380.601562 474.753906 374.296875 472.585938 C 368.914062 470.738281 364.488281 467.167969 361.578125 462.394531 C 366.148438 458.664062 377.320312 450.234375 393.671875 442.417969 C 398.105469 440.300781 403.101562 439.691406 408.113281 439.976562 C 408.292969 440 408.472656 440.015625 408.652344 440.015625 C 408.667969 440.015625 408.683594 440.015625 408.699219 440.015625 C 423.855469 441.085938 438.992188 450.136719 439.195312 450.257812 C 440.785156 451.222656 442.835938 450.964844 444.132812 449.628906 L 491.652344 400.800781 C 493.191406 399.21875 493.15625 396.6875 491.578125 395.148438 C 489.996094 393.609375 487.464844 393.644531 485.925781 395.226562 L 440.550781 441.855469 C 435.152344 438.972656 422.777344 433.121094 409.703125 432.09375 C 385.410156 420.242188 360.15625 426.382812 352.226562 428.832031 L 327.324219 403.929688 C 325.761719 402.371094 323.230469 402.371094 321.671875 403.929688 C 320.109375 405.492188 320.109375 408.019531 321.671875 409.582031 L 348.324219 436.230469 C 349.433594 437.339844 351.089844 437.695312 352.558594 437.144531 C 352.789062 437.058594 371.277344 430.277344 391.914062 434.464844 C 391.347656 434.695312 390.785156 434.941406 390.226562 435.207031 C 367.347656 446.144531 354.386719 457.992188 353.847656 458.488281 C 352.578125 459.660156 352.207031 461.511719 352.917969 463.078125 C 356.605469 471.191406 363.277344 477.25 371.703125 480.144531 C 375.136719 481.324219 378.660156 481.910156 382.167969 481.910156 C 387.269531 481.910156 392.332031 480.671875 397.007812 478.222656 C 397.046875 478.199219 397.089844 478.179688 397.128906 478.15625 L 415.304688 467.820312 L 478.097656 530.613281 C 478.101562 530.617188 478.101562 530.617188 478.105469 530.621094 L 491.089844 543.605469 C 492.832031 545.347656 493.789062 547.660156 493.789062 550.121094 C 493.789062 552.582031 492.832031 554.894531 491.089844 556.636719 L 484.574219 563.152344 L 469.003906 547.578125 L 465.070312 543.644531 C 463.511719 542.085938 460.980469 542.085938 459.417969 543.644531 C 457.859375 545.207031 457.859375 547.734375 459.417969 549.296875 L 480.277344 570.152344 C 483.867188 573.746094 483.867188 579.589844 480.277344 583.179688 C 478.535156 584.921875 476.222656 585.878906 473.761719 585.878906 C 471.300781 585.878906 468.988281 584.921875 467.246094 583.179688 L 463.316406 579.25 C 463.316406 579.25 463.316406 579.25 463.3125 579.246094 L 441.144531 557.082031 C 439.585938 555.519531 437.054688 555.519531 435.496094 557.082031 C 433.9375 558.640625 433.9375 561.171875 435.496094 562.730469 L 457.664062 584.898438 C 461.257812 588.492188 461.257812 594.335938 457.664062 597.925781 C 454.074219 601.519531 448.226562 601.519531 444.636719 597.929688 L 422.46875 575.761719 C 422.464844 575.757812 422.460938 575.753906 422.457031 575.753906 L 417.222656 570.519531 C 415.664062 568.957031 413.132812 568.957031 411.574219 570.519531 C 410.011719 572.078125 410.011719 574.605469 411.574219 576.167969 L 424.027344 588.621094 C 427.617188 592.214844 427.398438 598.277344 423.535156 602.140625 C 419.671875 606.003906 413.605469 606.226562 410.015625 602.632812 L 403.5 596.117188 L 406.5 593.121094 C 409.648438 589.972656 411.382812 585.785156 411.382812 581.332031 C 411.382812 576.878906 409.648438 572.691406 406.5 569.542969 L 405.746094 568.789062 C 402.371094 565.414062 397.902344 563.796875 393.472656 563.925781 C 394.296875 561.929688 394.730469 559.773438 394.730469 557.550781 C 394.730469 553.097656 392.996094 548.910156 389.847656 545.761719 L 389.09375 545.007812 C 386.296875 542.210938 382.683594 540.535156 378.792969 540.195312 C 379.246094 538.667969 379.480469 537.074219 379.480469 535.4375 C 379.480469 530.988281 377.746094 526.800781 374.597656 523.652344 L 373.84375 522.898438 C 370.695312 519.75 366.507812 518.015625 362.054688 518.015625 C 360.421875 518.015625 358.824219 518.25 357.300781 518.699219 C 356.957031 514.808594 355.28125 511.195312 352.484375 508.402344 L 351.734375 507.648438 C 348.582031 504.5 344.398438 502.765625 339.945312 502.765625 C 335.492188 502.765625 331.304688 504.5 328.15625 507.648438 L 321.59375 514.210938 L 268.929688 461.550781 C 267.371094 459.992188 264.839844 459.992188 263.28125 461.550781 C 261.71875 463.113281 261.71875 465.640625 263.28125 467.199219 L 315.941406 519.863281 L 311.5 524.304688 C 305 530.808594 305 541.382812 311.5 547.882812 L 321.214844 557.601562 C 321.417969 557.800781 321.636719 557.976562 321.867188 558.125 C 321.867188 558.152344 321.863281 558.179688 321.863281 558.207031 C 321.863281 562.660156 323.597656 566.84375 326.75 569.996094 C 330.207031 573.453125 334.746094 575.179688 339.289062 575.179688 C 340.882812 575.179688 342.46875 574.964844 344.015625 574.539062 C 344.273438 578.585938 345.96875 582.351562 348.859375 585.242188 L 350.289062 586.671875 C 353.351562 589.734375 357.375 591.269531 361.402344 591.269531 C 362.851562 591.269531 364.304688 591.066406 365.710938 590.667969 C 365.660156 591.183594 365.636719 591.703125 365.636719 592.226562 C 365.636719 596.679688 367.371094 600.867188 370.519531 604.015625 L 371.273438 604.769531 C 374.523438 608.019531 378.789062 609.644531 383.058594 609.644531 C 387.332031 609.644531 391.597656 608.019531 394.847656 604.769531 L 397.847656 601.769531 L 404.363281 608.285156 C 407.628906 611.550781 411.945312 613.175781 416.320312 613.175781 C 420.929688 613.175781 425.605469 611.375 429.1875 607.792969 C 431.773438 605.203125 433.429688 602.042969 434.152344 598.746094 L 438.984375 603.578125 C 442.339844 606.933594 446.742188 608.609375 451.148438 608.609375 C 455.554688 608.609375 459.960938 606.933594 463.316406 603.578125 C 466.273438 600.621094 467.925781 596.839844 468.273438 592.964844 C 470.050781 593.5625 471.90625 593.863281 473.761719 593.863281 C 478.167969 593.863281 482.574219 592.1875 485.929688 588.832031 C 491.121094 583.636719 492.289062 575.921875 489.441406 569.589844 L 496.742188 562.285156 C 503.449219 555.578125 503.449219 544.664062 496.742188 537.957031 L 480.675781 521.890625 Z M 317.148438 542.234375 C 313.765625 538.847656 313.765625 533.34375 317.148438 529.957031 L 333.808594 513.300781 C 335.445312 511.660156 337.625 510.757812 339.945312 510.757812 C 342.265625 510.757812 344.445312 511.660156 346.082031 513.300781 L 346.835938 514.050781 C 348.476562 515.691406 349.378906 517.871094 349.378906 520.191406 C 349.378906 522.507812 348.476562 524.6875 346.835938 526.328125 L 324.039062 549.125 Z M 332.398438 564.34375 C 330.757812 562.703125 329.855469 560.523438 329.855469 558.207031 C 329.855469 555.886719 330.757812 553.707031 332.398438 552.070312 L 345.402344 539.0625 L 352.488281 531.980469 C 352.488281 531.976562 352.488281 531.976562 352.492188 531.972656 L 355.917969 528.546875 C 357.558594 526.910156 359.738281 526.007812 362.054688 526.007812 C 364.375 526.007812 366.554688 526.910156 368.191406 528.546875 C 368.191406 528.546875 368.191406 528.546875 368.191406 528.550781 L 368.945312 529.304688 C 370.585938 530.941406 371.488281 533.121094 371.488281 535.441406 C 371.488281 537.757812 370.585938 539.9375 368.945312 541.578125 L 346.179688 564.34375 C 342.382812 568.144531 336.199219 568.144531 332.398438 564.34375 Z M 355.9375 581.023438 L 354.507812 579.59375 C 352.871094 577.953125 351.96875 575.773438 351.96875 573.457031 C 351.96875 571.136719 352.871094 568.957031 354.507812 567.316406 L 362.996094 558.828125 L 371.171875 550.65625 C 372.808594 549.019531 374.988281 548.117188 377.304688 548.117188 C 379.625 548.117188 381.804688 549.019531 383.445312 550.660156 L 384.195312 551.414062 C 385.835938 553.054688 386.738281 555.234375 386.738281 557.550781 C 386.738281 559.871094 385.835938 562.050781 384.195312 563.691406 L 366.863281 581.023438 C 363.851562 584.035156 358.949219 584.035156 355.9375 581.023438 Z M 376.921875 599.117188 L 376.167969 598.367188 C 374.53125 596.726562 373.625 594.546875 373.625 592.226562 C 373.625 589.910156 374.53125 587.730469 376.167969 586.089844 L 387.820312 574.441406 C 389.511719 572.746094 391.734375 571.902344 393.957031 571.902344 C 396.179688 571.902344 398.402344 572.746094 400.09375 574.4375 L 400.847656 575.191406 C 402.488281 576.832031 403.390625 579.011719 403.390625 581.332031 C 403.390625 583.648438 402.488281 585.828125 400.847656 587.46875 L 395.023438 593.292969 C 395.023438 593.292969 395.019531 593.292969 395.019531 593.296875 L 389.199219 599.117188 C 385.8125 602.503906 380.304688 602.503906 376.921875 599.117188 Z M 376.921875 599.117188 " fill-opacity="1" fill-rule="nonzero"/></g></svg>