<svg xmlns="http://www.w3.org/2000/svg" xmlns:xlink="http://www.w3.org/1999/xlink" width="1080" zoomAndPan="magnify" viewBox="0 0 810 809.999993" height="1080" preserveAspectRatio="xMidYMid meet" version="1.0"><path fill="#c99f4d" d="M 768.375 650.261719 L 718.945312 465.78125 L 718.945312 179.984375 C 718.945312 178.503906 718.664062 177.078125 718.097656 175.710938 C 717.53125 174.34375 716.722656 173.136719 715.675781 172.089844 L 586.417969 42.839844 C 585.375 41.789062 584.167969 40.980469 582.800781 40.414062 C 581.429688 39.84375 580.007812 39.5625 578.523438 39.5625 L 522.78125 39.5625 L 457.429688 1.832031 C 456.148438 1.09375 454.773438 0.625 453.304688 0.433594 C 451.835938 0.238281 450.386719 0.332031 448.957031 0.714844 L 303.976562 39.5625 L 165.890625 39.5625 C 165.15625 39.5625 164.429688 39.632812 163.710938 39.777344 C 162.992188 39.917969 162.292969 40.132812 161.617188 40.414062 C 160.9375 40.691406 160.292969 41.039062 159.683594 41.445312 C 159.074219 41.851562 158.511719 42.316406 157.992188 42.835938 C 157.472656 43.351562 157.007812 43.917969 156.601562 44.527344 C 156.195312 45.136719 155.851562 45.78125 155.570312 46.460938 C 155.289062 47.136719 155.078125 47.835938 154.933594 48.554688 C 154.789062 49.273438 154.71875 50 154.71875 50.734375 L 154.71875 79.558594 L 50.382812 107.515625 C 49.675781 107.707031 48.992188 107.964844 48.335938 108.289062 C 47.679688 108.613281 47.058594 108.996094 46.476562 109.445312 C 45.894531 109.890625 45.363281 110.390625 44.878906 110.941406 C 44.394531 111.492188 43.972656 112.085938 43.605469 112.722656 C 43.238281 113.355469 42.9375 114.019531 42.703125 114.714844 C 42.464844 115.410156 42.300781 116.121094 42.203125 116.847656 C 42.109375 117.574219 42.085938 118.304688 42.132812 119.035156 C 42.179688 119.769531 42.300781 120.488281 42.488281 121.195312 L 154.726562 540.0625 L 154.726562 749.640625 C 154.726562 750.375 154.796875 751.101562 154.941406 751.820312 C 155.082031 752.539062 155.292969 753.238281 155.574219 753.914062 C 155.855469 754.59375 156.199219 755.238281 156.605469 755.847656 C 157.011719 756.457031 157.476562 757.023438 157.996094 757.539062 C 158.511719 758.058594 159.078125 758.523438 159.6875 758.929688 C 160.296875 759.339844 160.941406 759.683594 161.617188 759.964844 C 162.292969 760.242188 162.992188 760.457031 163.710938 760.597656 C 164.433594 760.742188 165.15625 760.8125 165.890625 760.8125 L 213.867188 760.8125 L 223.382812 796.269531 C 223.570312 796.976562 223.828125 797.660156 224.152344 798.320312 C 224.476562 798.976562 224.863281 799.597656 225.308594 800.179688 C 225.753906 800.761719 226.253906 801.292969 226.804688 801.777344 C 227.355469 802.261719 227.949219 802.6875 228.585938 803.054688 C 229.21875 803.421875 229.886719 803.722656 230.578125 803.957031 C 231.273438 804.195312 231.984375 804.359375 232.710938 804.457031 C 233.4375 804.554688 234.167969 804.578125 234.902344 804.53125 C 235.632812 804.480469 236.351562 804.363281 237.0625 804.171875 L 398.929688 760.8125 L 707.773438 760.8125 C 708.507812 760.8125 709.234375 760.742188 709.953125 760.601562 C 710.671875 760.457031 711.371094 760.246094 712.050781 759.964844 C 712.726562 759.683594 713.371094 759.339844 713.980469 758.933594 C 714.59375 758.527344 715.15625 758.0625 715.675781 757.542969 C 716.195312 757.023438 716.65625 756.460938 717.066406 755.851562 C 717.472656 755.238281 717.816406 754.597656 718.097656 753.917969 C 718.378906 753.238281 718.589844 752.539062 718.730469 751.820312 C 718.875 751.101562 718.945312 750.375 718.945312 749.640625 L 718.945312 675.070312 L 760.453125 663.941406 C 761.164062 663.753906 761.84375 663.496094 762.503906 663.171875 C 763.160156 662.84375 763.78125 662.460938 764.363281 662.011719 C 764.945312 661.566406 765.476562 661.066406 765.960938 660.515625 C 766.441406 659.964844 766.867188 659.371094 767.234375 658.738281 C 767.601562 658.101562 767.902344 657.4375 768.136719 656.742188 C 768.375 656.046875 768.539062 655.335938 768.632812 654.609375 C 768.730469 653.882812 768.753906 653.152344 768.707031 652.421875 C 768.660156 651.691406 768.539062 650.96875 768.351562 650.261719 Z M 589.695312 77.699219 L 680.808594 168.820312 L 589.695312 168.820312 Z M 450.269531 23.496094 L 478.074219 39.5625 L 390.289062 39.5625 Z M 66.960938 126.203125 L 154.726562 102.679688 L 154.726562 453.777344 Z M 242.070312 779.71875 L 237 760.8125 L 312.617188 760.8125 Z M 177.0625 738.476562 L 177.0625 61.90625 L 567.351562 61.90625 L 567.351562 179.984375 C 567.351562 180.71875 567.421875 181.445312 567.566406 182.164062 C 567.710938 182.882812 567.921875 183.582031 568.203125 184.257812 C 568.484375 184.9375 568.828125 185.582031 569.234375 186.191406 C 569.640625 186.800781 570.105469 187.363281 570.625 187.882812 C 571.144531 188.402344 571.707031 188.867188 572.316406 189.273438 C 572.925781 189.679688 573.570312 190.023438 574.25 190.304688 C 574.925781 190.585938 575.625 190.796875 576.34375 190.941406 C 577.0625 191.085938 577.789062 191.15625 578.523438 191.15625 L 696.609375 191.15625 L 696.609375 738.476562 Z M 718.945312 651.9375 L 718.945312 552.101562 L 743.902344 645.253906 Z M 227.914062 169.277344 C 227.914062 168.542969 227.984375 167.816406 228.128906 167.097656 C 228.269531 166.378906 228.480469 165.683594 228.761719 165.003906 C 229.042969 164.328125 229.386719 163.683594 229.792969 163.074219 C 230.203125 162.464844 230.664062 161.902344 231.183594 161.382812 C 231.699219 160.863281 232.265625 160.402344 232.875 159.996094 C 233.484375 159.585938 234.128906 159.242188 234.804688 158.964844 C 235.480469 158.683594 236.179688 158.472656 236.898438 158.328125 C 237.617188 158.183594 238.34375 158.113281 239.078125 158.113281 L 363.535156 158.113281 C 364.28125 158.09375 365.023438 158.144531 365.757812 158.273438 C 366.492188 158.402344 367.207031 158.601562 367.90625 158.871094 C 368.601562 159.144531 369.261719 159.480469 369.890625 159.886719 C 370.519531 160.289062 371.097656 160.75 371.636719 161.273438 C 372.171875 161.792969 372.648438 162.359375 373.070312 162.976562 C 373.492188 163.59375 373.847656 164.246094 374.136719 164.933594 C 374.429688 165.621094 374.648438 166.332031 374.796875 167.0625 C 374.945312 167.796875 375.019531 168.535156 375.019531 169.28125 C 375.019531 170.027344 374.945312 170.769531 374.796875 171.5 C 374.648438 172.230469 374.429688 172.941406 374.136719 173.628906 C 373.847656 174.316406 373.492188 174.96875 373.070312 175.585938 C 372.648438 176.203125 372.171875 176.769531 371.636719 177.292969 C 371.097656 177.8125 370.519531 178.273438 369.890625 178.679688 C 369.261719 179.082031 368.601562 179.417969 367.90625 179.691406 C 367.207031 179.960938 366.492188 180.160156 365.757812 180.289062 C 365.023438 180.417969 364.28125 180.472656 363.535156 180.449219 L 239.078125 180.449219 C 238.34375 180.449219 237.617188 180.378906 236.898438 180.234375 C 236.179688 180.09375 235.480469 179.878906 234.800781 179.597656 C 234.125 179.320312 233.480469 178.972656 232.871094 178.566406 C 232.261719 178.160156 231.699219 177.695312 231.179688 177.175781 C 230.660156 176.660156 230.199219 176.09375 229.792969 175.484375 C 229.382812 174.875 229.039062 174.230469 228.761719 173.550781 C 228.480469 172.875 228.269531 172.175781 228.125 171.457031 C 227.984375 170.738281 227.910156 170.011719 227.914062 169.277344 Z M 227.914062 210.507812 C 227.910156 209.777344 227.984375 209.050781 228.125 208.332031 C 228.269531 207.609375 228.480469 206.914062 228.761719 206.234375 C 229.039062 205.558594 229.382812 204.914062 229.792969 204.304688 C 230.199219 203.691406 230.660156 203.128906 231.179688 202.609375 C 231.699219 202.089844 232.261719 201.628906 232.871094 201.21875 C 233.480469 200.8125 234.125 200.46875 234.800781 200.1875 C 235.480469 199.90625 236.179688 199.695312 236.898438 199.550781 C 237.617188 199.410156 238.34375 199.335938 239.078125 199.335938 L 463.917969 199.335938 C 464.664062 199.316406 465.402344 199.371094 466.140625 199.496094 C 466.875 199.625 467.589844 199.824219 468.285156 200.097656 C 468.984375 200.367188 469.644531 200.703125 470.273438 201.109375 C 470.898438 201.511719 471.480469 201.976562 472.015625 202.496094 C 472.550781 203.015625 473.03125 203.585938 473.453125 204.203125 C 473.875 204.816406 474.230469 205.46875 474.519531 206.15625 C 474.808594 206.847656 475.03125 207.554688 475.179688 208.289062 C 475.328125 209.019531 475.398438 209.757812 475.398438 210.503906 C 475.398438 211.25 475.328125 211.992188 475.179688 212.722656 C 475.03125 213.453125 474.808594 214.164062 474.519531 214.851562 C 474.230469 215.539062 473.875 216.191406 473.453125 216.808594 C 473.03125 217.425781 472.550781 217.996094 472.015625 218.515625 C 471.480469 219.035156 470.898438 219.496094 470.273438 219.902344 C 469.644531 220.304688 468.984375 220.644531 468.285156 220.914062 C 467.589844 221.1875 466.875 221.386719 466.140625 221.511719 C 465.402344 221.640625 464.664062 221.695312 463.917969 221.671875 L 239.078125 221.671875 C 238.34375 221.671875 237.613281 221.601562 236.894531 221.457031 C 236.175781 221.316406 235.476562 221.101562 234.796875 220.820312 C 234.117188 220.539062 233.472656 220.195312 232.863281 219.785156 C 232.253906 219.375 231.6875 218.910156 231.171875 218.390625 C 230.652344 217.871094 230.1875 217.304688 229.78125 216.695312 C 229.375 216.082031 229.03125 215.4375 228.753906 214.757812 C 228.472656 214.078125 228.261719 213.378906 228.121094 212.65625 C 227.980469 211.9375 227.910156 211.210938 227.914062 210.476562 Z M 227.914062 251.734375 C 227.914062 251 227.984375 250.273438 228.128906 249.554688 C 228.269531 248.835938 228.480469 248.136719 228.761719 247.460938 C 229.042969 246.785156 229.386719 246.140625 229.792969 245.53125 C 230.203125 244.921875 230.664062 244.355469 231.183594 243.839844 C 231.699219 243.320312 232.265625 242.859375 232.875 242.449219 C 233.484375 242.042969 234.128906 241.699219 234.804688 241.417969 C 235.480469 241.136719 236.179688 240.925781 236.898438 240.785156 C 237.617188 240.640625 238.34375 240.570312 239.078125 240.570312 L 463.917969 240.570312 C 464.664062 240.546875 465.402344 240.601562 466.140625 240.730469 C 466.875 240.855469 467.589844 241.058594 468.285156 241.328125 C 468.980469 241.597656 469.644531 241.9375 470.273438 242.339844 C 470.898438 242.746094 471.480469 243.207031 472.015625 243.726562 C 472.550781 244.25 473.03125 244.816406 473.453125 245.433594 C 473.875 246.050781 474.230469 246.703125 474.519531 247.390625 C 474.808594 248.078125 475.03125 248.789062 475.175781 249.519531 C 475.324219 250.25 475.398438 250.992188 475.398438 251.738281 C 475.398438 252.484375 475.324219 253.222656 475.175781 253.957031 C 475.03125 254.6875 474.808594 255.398438 474.519531 256.085938 C 474.230469 256.773438 473.875 257.425781 473.453125 258.042969 C 473.03125 258.65625 472.550781 259.226562 472.015625 259.746094 C 471.480469 260.265625 470.898438 260.730469 470.273438 261.132812 C 469.644531 261.539062 468.980469 261.875 468.285156 262.148438 C 467.589844 262.417969 466.875 262.617188 466.140625 262.746094 C 465.402344 262.875 464.664062 262.925781 463.917969 262.90625 L 239.078125 262.90625 C 238.34375 262.90625 237.617188 262.835938 236.898438 262.691406 C 236.179688 262.546875 235.480469 262.335938 234.800781 262.054688 C 234.125 261.773438 233.480469 261.429688 232.871094 261.023438 C 232.261719 260.613281 231.699219 260.152344 231.179688 259.632812 C 230.660156 259.113281 230.199219 258.550781 229.792969 257.941406 C 229.382812 257.328125 229.039062 256.6875 228.761719 256.007812 C 228.480469 255.332031 228.269531 254.632812 228.125 253.914062 C 227.984375 253.191406 227.910156 252.464844 227.914062 251.734375 Z M 645.761719 332.917969 C 645.761719 333.652344 645.6875 334.375 645.546875 335.09375 C 645.402344 335.816406 645.191406 336.511719 644.910156 337.191406 C 644.628906 337.867188 644.285156 338.511719 643.878906 339.121094 C 643.472656 339.730469 643.007812 340.292969 642.492188 340.8125 C 641.972656 341.332031 641.40625 341.792969 640.796875 342.199219 C 640.1875 342.609375 639.546875 342.953125 638.867188 343.230469 C 638.191406 343.511719 637.492188 343.722656 636.773438 343.867188 C 636.054688 344.011719 635.328125 344.082031 634.597656 344.082031 L 239.078125 344.082031 C 238.355469 344.0625 237.644531 343.972656 236.941406 343.816406 C 236.238281 343.65625 235.558594 343.433594 234.898438 343.144531 C 234.238281 342.855469 233.613281 342.503906 233.019531 342.09375 C 232.429688 341.683594 231.878906 341.21875 231.378906 340.703125 C 230.875 340.1875 230.425781 339.625 230.035156 339.023438 C 229.640625 338.421875 229.308594 337.785156 229.035156 337.117188 C 228.765625 336.449219 228.558594 335.761719 228.421875 335.054688 C 228.285156 334.347656 228.214844 333.632812 228.214844 332.914062 C 228.214844 332.191406 228.285156 331.480469 228.421875 330.773438 C 228.558594 330.066406 228.765625 329.378906 229.035156 328.710938 C 229.308594 328.042969 229.640625 327.40625 230.035156 326.804688 C 230.425781 326.199219 230.875 325.640625 231.378906 325.125 C 231.878906 324.605469 232.429688 324.144531 233.019531 323.734375 C 233.613281 323.320312 234.238281 322.972656 234.898438 322.683594 C 235.558594 322.394531 236.238281 322.167969 236.941406 322.011719 C 237.644531 321.855469 238.355469 321.765625 239.078125 321.746094 L 634.597656 321.746094 C 635.328125 321.746094 636.054688 321.816406 636.773438 321.960938 C 637.496094 322.101562 638.191406 322.316406 638.871094 322.59375 C 639.546875 322.875 640.191406 323.21875 640.800781 323.628906 C 641.410156 324.035156 641.976562 324.5 642.492188 325.019531 C 643.011719 325.535156 643.472656 326.101562 643.882812 326.710938 C 644.289062 327.320312 644.632812 327.964844 644.914062 328.640625 C 645.191406 329.320312 645.40625 330.019531 645.546875 330.738281 C 645.691406 331.457031 645.761719 332.183594 645.761719 332.917969 Z M 645.761719 400.117188 C 645.761719 400.851562 645.6875 401.578125 645.546875 402.296875 C 645.402344 403.015625 645.191406 403.714844 644.910156 404.390625 C 644.628906 405.066406 644.285156 405.710938 643.878906 406.320312 C 643.472656 406.929688 643.007812 407.496094 642.492188 408.011719 C 641.972656 408.53125 641.40625 408.992188 640.796875 409.402344 C 640.1875 409.808594 639.546875 410.152344 638.867188 410.433594 C 638.191406 410.714844 637.492188 410.925781 636.773438 411.066406 C 636.054688 411.210938 635.328125 411.28125 634.597656 411.28125 L 239.078125 411.28125 C 238.355469 411.261719 237.644531 411.175781 236.941406 411.015625 C 236.238281 410.859375 235.558594 410.636719 234.898438 410.34375 C 234.238281 410.054688 233.613281 409.707031 233.019531 409.296875 C 232.429688 408.882812 231.878906 408.421875 231.378906 407.902344 C 230.875 407.386719 230.425781 406.828125 230.035156 406.222656 C 229.640625 405.621094 229.308594 404.984375 229.035156 404.316406 C 228.765625 403.652344 228.558594 402.964844 228.421875 402.257812 C 228.285156 401.546875 228.214844 400.835938 228.214844 400.113281 C 228.214844 399.394531 228.285156 398.679688 228.421875 397.972656 C 228.558594 397.265625 228.765625 396.578125 229.035156 395.910156 C 229.308594 395.242188 229.640625 394.609375 230.035156 394.003906 C 230.425781 393.402344 230.875 392.839844 231.378906 392.324219 C 231.878906 391.808594 232.429688 391.34375 233.019531 390.933594 C 233.613281 390.523438 234.238281 390.171875 234.898438 389.882812 C 235.558594 389.59375 236.238281 389.371094 236.941406 389.210938 C 237.644531 389.054688 238.355469 388.964844 239.078125 388.945312 L 634.597656 388.945312 C 635.328125 388.945312 636.054688 389.015625 636.773438 389.160156 C 637.496094 389.304688 638.191406 389.515625 638.871094 389.796875 C 639.546875 390.078125 640.191406 390.421875 640.800781 390.828125 C 641.410156 391.238281 641.976562 391.699219 642.492188 392.21875 C 643.011719 392.738281 643.472656 393.300781 643.882812 393.910156 C 644.289062 394.523438 644.632812 395.164062 644.914062 395.84375 C 645.191406 396.519531 645.40625 397.21875 645.546875 397.9375 C 645.691406 398.660156 645.761719 399.386719 645.761719 400.117188 Z M 645.761719 467.3125 C 645.761719 468.042969 645.691406 468.769531 645.546875 469.492188 C 645.40625 470.210938 645.191406 470.910156 644.914062 471.585938 C 644.632812 472.265625 644.289062 472.90625 643.882812 473.519531 C 643.472656 474.128906 643.011719 474.691406 642.492188 475.210938 C 641.976562 475.730469 641.410156 476.191406 640.800781 476.601562 C 640.191406 477.007812 639.546875 477.351562 638.871094 477.632812 C 638.191406 477.914062 637.496094 478.125 636.773438 478.269531 C 636.054688 478.414062 635.328125 478.484375 634.597656 478.484375 L 239.078125 478.484375 C 238.355469 478.464844 237.644531 478.375 236.941406 478.21875 C 236.238281 478.058594 235.558594 477.835938 234.898438 477.546875 C 234.238281 477.257812 233.613281 476.90625 233.019531 476.496094 C 232.429688 476.085938 231.878906 475.621094 231.378906 475.105469 C 230.875 474.589844 230.425781 474.027344 230.035156 473.425781 C 229.640625 472.824219 229.308594 472.1875 229.035156 471.519531 C 228.765625 470.851562 228.558594 470.164062 228.421875 469.457031 C 228.285156 468.75 228.214844 468.035156 228.214844 467.316406 C 228.214844 466.59375 228.285156 465.882812 228.421875 465.175781 C 228.558594 464.46875 228.765625 463.78125 229.035156 463.113281 C 229.308594 462.445312 229.640625 461.808594 230.035156 461.207031 C 230.425781 460.601562 230.875 460.042969 231.378906 459.527344 C 231.878906 459.007812 232.429688 458.546875 233.019531 458.136719 C 233.613281 457.722656 234.238281 457.375 234.898438 457.085938 C 235.558594 456.796875 236.238281 456.570312 236.941406 456.414062 C 237.644531 456.257812 238.355469 456.167969 239.078125 456.148438 L 634.597656 456.148438 C 635.328125 456.148438 636.054688 456.21875 636.773438 456.363281 C 637.492188 456.503906 638.191406 456.714844 638.867188 456.996094 C 639.546875 457.277344 640.1875 457.621094 640.796875 458.027344 C 641.40625 458.4375 641.972656 458.898438 642.488281 459.417969 C 643.007812 459.933594 643.472656 460.5 643.878906 461.109375 C 644.285156 461.71875 644.628906 462.363281 644.910156 463.039062 C 645.191406 463.714844 645.402344 464.414062 645.546875 465.132812 C 645.6875 465.851562 645.761719 466.578125 645.761719 467.3125 Z M 645.761719 534.511719 C 645.761719 535.246094 645.6875 535.972656 645.546875 536.691406 C 645.402344 537.410156 645.191406 538.109375 644.910156 538.785156 C 644.628906 539.464844 644.285156 540.105469 643.878906 540.71875 C 643.472656 541.328125 643.007812 541.890625 642.492188 542.410156 C 641.972656 542.929688 641.410156 543.390625 640.800781 543.800781 C 640.191406 544.207031 639.546875 544.550781 638.867188 544.832031 C 638.191406 545.113281 637.492188 545.324219 636.773438 545.46875 C 636.054688 545.613281 635.328125 545.683594 634.597656 545.683594 L 239.078125 545.683594 C 238.34375 545.683594 237.617188 545.613281 236.898438 545.46875 C 236.175781 545.328125 235.480469 545.117188 234.800781 544.835938 C 234.125 544.554688 233.480469 544.210938 232.871094 543.800781 C 232.257812 543.394531 231.695312 542.929688 231.175781 542.414062 C 230.65625 541.894531 230.195312 541.328125 229.785156 540.71875 C 229.378906 540.109375 229.035156 539.464844 228.753906 538.789062 C 228.472656 538.109375 228.261719 537.410156 228.117188 536.691406 C 227.976562 535.972656 227.902344 535.246094 227.902344 534.511719 C 227.902344 533.777344 227.976562 533.050781 228.117188 532.332031 C 228.261719 531.613281 228.472656 530.914062 228.753906 530.238281 C 229.035156 529.558594 229.378906 528.914062 229.785156 528.304688 C 230.195312 527.695312 230.65625 527.128906 231.175781 526.613281 C 231.695312 526.09375 232.257812 525.628906 232.871094 525.222656 C 233.480469 524.816406 234.125 524.472656 234.800781 524.191406 C 235.480469 523.910156 236.175781 523.699219 236.898438 523.554688 C 237.617188 523.410156 238.34375 523.339844 239.078125 523.339844 L 634.597656 523.339844 C 635.328125 523.339844 636.054688 523.414062 636.773438 523.554688 C 637.492188 523.699219 638.191406 523.910156 638.867188 524.191406 C 639.546875 524.472656 640.191406 524.816406 640.800781 525.226562 C 641.410156 525.632812 641.972656 526.097656 642.492188 526.613281 C 643.007812 527.132812 643.472656 527.699219 643.878906 528.308594 C 644.285156 528.917969 644.628906 529.5625 644.910156 530.238281 C 645.191406 530.917969 645.402344 531.613281 645.546875 532.332031 C 645.6875 533.054688 645.761719 533.777344 645.761719 534.511719 Z M 645.761719 601.714844 C 645.761719 602.445312 645.6875 603.171875 645.546875 603.890625 C 645.402344 604.609375 645.191406 605.308594 644.910156 605.984375 C 644.628906 606.664062 644.285156 607.304688 643.878906 607.914062 C 643.472656 608.527344 643.007812 609.089844 642.492188 609.609375 C 641.972656 610.125 641.40625 610.589844 640.796875 610.996094 C 640.1875 611.402344 639.546875 611.746094 638.867188 612.027344 C 638.191406 612.308594 637.492188 612.519531 636.773438 612.664062 C 636.054688 612.804688 635.328125 612.878906 634.597656 612.878906 L 507.742188 612.878906 C 506.996094 612.898438 506.253906 612.84375 505.519531 612.71875 C 504.785156 612.589844 504.070312 612.390625 503.371094 612.117188 C 502.675781 611.847656 502.015625 611.507812 501.386719 611.105469 C 500.757812 610.703125 500.179688 610.238281 499.640625 609.71875 C 499.105469 609.199219 498.628906 608.628906 498.207031 608.011719 C 497.785156 607.398438 497.429688 606.746094 497.140625 606.058594 C 496.847656 605.367188 496.628906 604.660156 496.480469 603.925781 C 496.332031 603.195312 496.257812 602.457031 496.257812 601.710938 C 496.257812 600.960938 496.332031 600.222656 496.480469 599.492188 C 496.628906 598.757812 496.847656 598.050781 497.140625 597.363281 C 497.429688 596.675781 497.785156 596.023438 498.207031 595.40625 C 498.628906 594.789062 499.105469 594.21875 499.640625 593.699219 C 500.179688 593.179688 500.757812 592.71875 501.386719 592.3125 C 502.015625 591.910156 502.675781 591.570312 503.371094 591.300781 C 504.070312 591.027344 504.785156 590.828125 505.519531 590.703125 C 506.253906 590.574219 506.996094 590.519531 507.742188 590.539062 L 634.597656 590.539062 C 635.328125 590.539062 636.054688 590.613281 636.773438 590.753906 C 637.496094 590.898438 638.191406 591.109375 638.871094 591.390625 C 639.546875 591.671875 640.191406 592.015625 640.800781 592.425781 C 641.410156 592.832031 641.976562 593.292969 642.492188 593.8125 C 643.011719 594.332031 643.472656 594.898438 643.882812 595.507812 C 644.289062 596.117188 644.632812 596.761719 644.914062 597.4375 C 645.191406 598.117188 645.40625 598.816406 645.546875 599.535156 C 645.691406 600.253906 645.761719 600.980469 645.761719 601.714844 Z M 645.761719 601.714844 " fill-opacity="1" fill-rule="nonzero"/></svg>