<svg xmlns="http://www.w3.org/2000/svg" xmlns:xlink="http://www.w3.org/1999/xlink" width="1080" zoomAndPan="magnify" viewBox="0 0 810 809.999993" height="1080" preserveAspectRatio="xMidYMid meet" version="1.0"><defs><clipPath id="056299ee59"><path d="M 0 40.5 L 810 40.5 L 810 769.5 L 0 769.5 Z M 0 40.5 " clip-rule="nonzero"/></clipPath></defs><g clip-path="url(#056299ee59)"><path fill="#c99f4d" d="M 218.914062 88.960938 L 328.21875 88.960938 L 328.21875 110.554688 L 391.875 52.480469 L 405.007812 40.5 L 418.132812 52.480469 L 595.40625 214.210938 L 772.683594 375.945312 L 809.917969 409.914062 L 687.261719 409.914062 L 687.261719 769.507812 L 274.910156 769.507812 L 313.996094 730.425781 L 648.179688 730.425781 L 648.179688 370.832031 L 709.191406 370.832031 L 569.152344 243.066406 L 405.007812 93.3125 L 321.804688 169.21875 L 289.132812 199.027344 L 289.132812 128.042969 L 238.457031 128.042969 L 238.457031 245.261719 L 232.042969 251.109375 L 100.820312 370.832031 L 161.832031 370.832031 L 161.832031 628.265625 L 241.851562 548.246094 C 317.203125 472.894531 316.257812 475.636719 335.445312 378.902344 C 350.3125 303.960938 448.988281 263.410156 483.394531 285.742188 C 469.210938 298.097656 444.675781 322.71875 431.378906 336.015625 C 402.566406 364.828125 401.203125 369.914062 411.75 409.273438 C 422.292969 448.632812 426.023438 452.355469 465.378906 462.90625 C 504.738281 473.449219 509.828125 472.089844 538.640625 443.273438 C 551.929688 429.980469 576.558594 405.445312 588.910156 391.257812 C 611.242188 425.667969 570.691406 524.339844 495.753906 539.210938 C 400.183594 558.164062 401.195312 558.015625 326.410156 632.800781 L 189.707031 769.511719 L 122.746094 769.511719 L 122.746094 409.914062 L 0.0898438 409.914062 L 37.324219 375.945312 L 199.375 228.105469 L 199.375 88.960938 Z M 218.914062 88.960938 " fill-opacity="1" fill-rule="nonzero"/></g></svg>