<svg xmlns="http://www.w3.org/2000/svg" xmlns:xlink="http://www.w3.org/1999/xlink" width="1080" zoomAndPan="magnify" viewBox="0 0 810 809.999993" height="1080" preserveAspectRatio="xMidYMid meet" version="1.0"><defs><clipPath id="6ad7c630e8"><path d="M 15.289062 488 L 263 488 L 263 712 L 15.289062 712 Z M 15.289062 488 " clip-rule="nonzero"/></clipPath></defs><path stroke-linecap="round" transform="matrix(7.269123, 0, 0, 7.269003, -142.45137, -142.42654)" fill="none" stroke-linejoin="round" d="M 62.230015 55.079869 C 62.972131 54.735943 63.752401 54.575802 64.569749 54.599985 C 67.300155 54.599985 70.040234 54.599985 72.770102 54.599985 C 74.710029 54.599985 75.07007 54.309797 74.979791 52.369839 C 74.870167 49.989763 74.61975 47.610224 74.410173 45.219938 C 74.150083 42.220257 73.840017 39.289899 73.610021 36.319775 C 73.610021 35.700171 73.280072 35.160099 73.219886 34.559841 C 73.219886 34.40991 73.059748 34.25998 72.789985 34.170237 C 72.28539 34.034279 71.772196 33.977316 71.249867 33.999886 L 53.00005 33.999886 C 51.160076 33.999886 50.780151 34.40991 50.650106 36.230032 C 50.400226 39.5199 49.999882 42.789885 49.769885 46.079753 C 49.589864 48.609759 48.990153 51.080116 49.339984 53.699865 C 49.341596 53.784772 49.35718 53.866992 49.387811 53.946525 C 49.417904 54.025521 49.461431 54.09753 49.517318 54.161479 C 49.572668 54.225428 49.638228 54.278091 49.712386 54.318932 C 49.787081 54.360311 49.866075 54.38718 49.949906 54.400078 C 50.446441 54.567741 50.95641 54.64405 51.479814 54.630078 C 54.169917 54.630078 56.87023 54.630078 59.559795 54.630078 C 60.005817 54.612882 60.446465 54.650499 60.883352 54.741854 C 61.319701 54.833209 61.738317 54.975616 62.139736 55.17015 " stroke="#000000" stroke-width="2" stroke-opacity="1" stroke-miterlimit="4"/><path stroke-linecap="round" transform="matrix(7.269123, 0, 0, 7.269003, -142.45137, -142.42654)" fill="none" stroke-linejoin="round" d="M 118.58998 85.9999 C 118.414795 85.266907 118.334726 84.523705 118.349773 83.769754 C 118.349773 80.37026 118.349773 76.970228 118.349773 73.570196 C 118.351922 73.381036 118.349773 73.192414 118.34225 73.003792 C 118.335264 72.815171 118.323441 72.627086 118.306783 72.439001 C 118.290124 72.250917 118.268629 72.06337 118.242835 71.87636 C 118.217041 71.689887 118.186411 71.503415 118.150944 71.318017 C 118.115477 71.13262 118.075711 70.948297 118.031646 70.764511 C 117.987044 70.581263 117.938143 70.39909 117.884405 70.217991 C 117.831205 70.036893 117.773169 69.857406 117.710296 69.679532 C 117.64796 69.50112 117.581326 69.324858 117.509855 69.150208 C 117.438921 68.975558 117.363151 68.80252 117.283082 68.631632 C 117.20355 68.460206 117.119182 68.291468 117.031053 68.124878 C 116.942923 67.957752 116.850495 67.793312 116.753767 67.631022 C 116.657039 67.468732 116.55655 67.309129 116.452299 67.152212 C 116.348048 66.994759 116.239498 66.840529 116.127187 66.68845 C 116.015413 66.536907 115.89934 66.387514 115.780042 66.241883 C 115.660207 66.095714 115.537148 65.95277 115.410328 65.81305 C 115.283507 65.672793 115.153462 65.536297 115.020193 65.403026 C 114.886386 65.269754 114.749893 65.139707 114.609638 65.012885 C 114.46992 64.886062 114.326441 64.763538 114.180275 64.643701 C 114.034646 64.524402 113.885255 64.408864 113.733715 64.296551 C 113.581638 64.184775 113.426874 64.076223 113.269423 63.971971 C 113.112509 63.867718 112.952371 63.767227 112.790084 63.671035 C 112.627796 63.574844 112.463359 63.482413 112.296235 63.394282 C 112.129649 63.306151 111.960376 63.222319 111.78949 63.142249 C 111.618605 63.062716 111.44557 62.987482 111.270385 62.91601 C 111.095738 62.845075 110.919479 62.77844 110.74107 62.716103 C 110.563199 62.653766 110.383178 62.595729 110.202082 62.542528 C 110.021524 62.489327 109.838816 62.440425 109.655571 62.396359 C 109.472326 62.351756 109.287469 62.31199 109.102074 62.27706 C 108.91668 62.24213 108.73021 62.211499 108.543741 62.185705 C 108.356734 62.15991 108.16919 62.138952 107.981108 62.122293 C 107.793027 62.106172 107.604408 62.094349 107.415789 62.086826 C 107.22717 62.07984 107.038551 62.07769 106.849933 62.07984 C 98.85002 62.07984 90.850108 62.07984 82.850196 62.07984 C 82.663189 62.079302 82.47672 62.083064 82.290788 62.091662 C 82.104319 62.10026 81.918387 62.113695 81.732455 62.131429 C 81.546523 62.149162 81.361665 62.171195 81.176808 62.198064 C 80.992488 62.224934 80.808168 62.256639 80.625461 62.292644 C 80.442215 62.328649 80.260045 62.368953 80.078949 62.414093 C 79.897854 62.458696 79.71837 62.508135 79.539424 62.561874 C 79.361016 62.61615 79.183682 62.674187 79.00796 62.737061 C 78.832238 62.799398 78.658128 62.866571 78.485631 62.937506 C 78.313133 63.008978 78.142785 63.084211 77.974049 63.163744 C 77.805313 63.243277 77.638726 63.327109 77.473752 63.41524 C 77.309315 63.502834 77.147028 63.594727 76.98689 63.690919 C 76.826752 63.786573 76.669301 63.886527 76.513999 63.990242 C 76.359235 64.093957 76.20662 64.200897 76.056692 64.312135 C 75.906764 64.423374 75.760061 64.538374 75.616044 64.656599 C 75.47149 64.775361 75.330698 64.897347 75.192592 65.022557 C 75.054487 65.148305 74.919605 65.27674 74.787948 65.408937 C 74.655754 65.541134 74.527321 65.676554 74.40265 65.814662 C 74.277441 65.953307 74.155994 66.09464 74.037772 66.239196 C 73.919549 66.383752 73.805088 66.530996 73.694389 66.680926 C 73.583689 66.830856 73.476752 66.984011 73.373575 67.139315 C 73.269862 67.294619 73.170447 67.45261 73.075332 67.612751 C 72.979679 67.772892 72.888325 67.935719 72.800733 68.100696 C 72.713678 68.265136 72.630385 68.432262 72.550853 68.601001 C 72.471859 68.76974 72.396626 68.940628 72.32623 69.113666 C 72.255297 69.286166 72.188662 69.460279 72.126864 69.636004 C 72.064528 69.812266 72.007029 69.989603 71.953291 70.168552 C 71.900091 70.346963 71.85119 70.526987 71.806588 70.708086 C 71.761986 70.889184 71.72222 71.071358 71.686753 71.254606 C 71.651286 71.437854 71.620118 71.621639 71.593787 71.8065 C 71.567456 71.99136 71.545423 72.176758 71.528227 72.362155 C 71.511031 72.54809 71.498672 72.734025 71.490611 72.920498 C 71.48255 73.10697 71.478789 73.293443 71.479863 73.479915 C 71.479863 76.719807 71.479863 79.960235 71.479863 83.200127 C 71.520704 84.186765 71.440635 85.163192 71.240194 86.129947 " stroke="#000000" stroke-width="2" stroke-opacity="1" stroke-miterlimit="4"/><path stroke-linecap="round" transform="matrix(7.269123, 0, 0, 7.269003, -142.45137, -142.42654)" fill="none" stroke-linejoin="round" d="M 62.930216 87.540044 C 63.083368 87.570675 63.23652 87.570675 63.390209 87.540044 C 65.389784 86.539971 67.500059 86.670018 69.600123 86.400251 C 69.788205 86.375532 69.976824 86.362097 70.166517 86.360485 C 70.355673 86.358335 70.54483 86.368008 70.733449 86.388966 C 70.92153 86.409924 71.107999 86.442167 71.292319 86.485696 C 71.477177 86.529761 71.658272 86.584037 71.836143 86.649598 C 72.014015 86.715159 72.18705 86.79093 72.355786 86.877449 C 72.524522 86.963968 72.687347 87.060697 72.844798 87.166562 C 73.001711 87.272964 73.151639 87.387964 73.294581 87.512637 C 73.43806 87.636773 73.572942 87.769507 73.699762 87.909765 C 73.963614 88.154274 74.197372 88.425116 74.401038 88.721215 C 74.604703 89.017314 74.773976 89.332221 74.907783 89.665937 C 75.04159 89.999653 75.13778 90.344116 75.195279 90.699328 C 75.253316 91.054001 75.271586 91.410825 75.250091 91.769798 C 75.219461 92.007322 75.225372 92.243771 75.268362 92.479145 C 75.310815 92.715057 75.388197 92.938609 75.499971 93.149801 C 76.220055 94.090224 75.949755 95.000016 75.719758 95.989878 C 75.540812 96.569179 75.40593 97.158152 75.315651 97.757336 C 75.224835 98.35652 75.179695 98.958928 75.179695 99.565098 C 75.179695 100.171267 75.224835 100.773675 75.315651 101.372859 C 75.40593 101.972043 75.540812 102.561016 75.719758 103.139779 C 75.761136 103.253168 75.761136 103.366556 75.719758 103.479944 C 74.809981 105.740183 75.419902 108.099839 75.259764 110.399844 C 75.307053 111.504707 75.233433 112.601509 75.039977 113.69025 C 74.979791 113.879947 74.89005 114.190017 75.139929 114.380252 C 76.369982 115.379787 77.430225 116.520117 79.240106 116.520117 C 89.706573 116.466916 100.173577 116.466916 110.640043 116.520117 C 112.460135 116.520117 113.510167 115.350231 114.749893 114.389925 C 114.960007 114.220111 114.890148 113.9799 114.849845 113.799876 C 114.380178 111.230103 114.849845 108.630237 114.599965 106.070137 C 114.41457 104.233357 114.41457 102.396577 114.599965 100.559796 C 114.667137 99.6097 114.641343 98.661217 114.523658 97.715957 C 114.405972 96.770161 114.198008 95.844784 113.899765 94.939829 C 113.86591 94.852773 113.842803 94.762492 113.83098 94.669525 C 113.818621 94.576557 113.818083 94.483589 113.828294 94.390085 C 113.839041 94.297117 113.859999 94.206299 113.892779 94.118705 C 113.925021 94.030574 113.967474 93.947817 114.020137 93.869896 C 114.226489 93.515223 114.381791 93.139053 114.484967 92.741926 C 114.58868 92.344262 114.637044 91.940686 114.630058 91.530124 C 114.618773 91.328605 114.620923 91.127623 114.635969 90.926641 C 114.651553 90.725659 114.680034 90.526827 114.721412 90.329607 C 114.763327 90.132387 114.81814 89.938929 114.885312 89.749232 C 114.952484 89.559535 115.032553 89.374675 115.124444 89.195188 C 115.216335 89.016239 115.319511 88.843739 115.433972 88.677687 C 115.548971 88.512173 115.674179 88.354719 115.809598 88.205863 C 115.945016 88.056471 116.090108 87.917288 116.244335 87.787241 C 116.398024 87.657731 116.560312 87.538432 116.730122 87.42988 C 117.240092 87.090253 117.730179 86.730205 118.249821 86.370158 C 118.429842 86.240111 118.609863 86.040204 118.830187 86.14983 C 120.05003 86.730205 121.340269 86.479784 122.590205 86.479784 C 122.760553 86.47441 122.931438 86.477635 123.101786 86.489457 C 123.272134 86.50128 123.441408 86.522238 123.609606 86.551256 C 123.777805 86.580275 123.943854 86.61843 124.108291 86.664645 C 124.272728 86.71086 124.434478 86.765673 124.593004 86.828547 C 124.752067 86.890883 124.906831 86.961818 125.058371 87.040814 C 125.209911 87.119272 125.357152 87.205791 125.500094 87.299296 C 125.642499 87.393338 125.780067 87.494366 125.912261 87.601843 C 126.044993 87.709857 126.171276 87.82432 126.292186 87.945232 C 126.412558 88.066143 126.526482 88.192966 126.634494 88.325163 C 126.741969 88.457897 126.842459 88.595467 126.935962 88.738411 C 127.029465 88.881356 127.115445 89.028599 127.193902 89.180142 C 127.272359 89.332221 127.343293 89.487526 127.405628 89.646054 C 127.467964 89.80512 127.522239 89.966873 127.568453 90.131312 C 127.61413 90.295752 127.651746 90.462341 127.680765 90.630542 C 127.709783 90.798744 127.729666 90.96802 127.741488 91.138371 C 127.75331 91.308722 127.755997 91.47961 127.750086 91.649961 C 127.750086 98.209814 127.750086 104.773428 127.750086 111.340267 C 127.75546 111.510618 127.752236 111.680969 127.740413 111.850783 C 127.728591 112.021134 127.708171 112.189872 127.679152 112.358074 C 127.649597 112.526275 127.611981 112.692327 127.565766 112.856766 C 127.519552 113.020669 127.465277 113.181884 127.402404 113.34095 C 127.340068 113.499478 127.269135 113.654245 127.190678 113.805788 C 127.112221 113.956793 127.026241 114.104036 126.9322 114.246443 C 126.838697 114.389387 126.738208 114.52642 126.630732 114.658617 C 126.52272 114.791351 126.408796 114.917636 126.288424 115.03801 C 126.167515 115.158922 126.041231 115.272847 125.909037 115.380324 C 125.776842 115.488338 125.639274 115.588829 125.496332 115.682334 C 125.353928 115.775839 125.207224 115.862358 125.055684 115.940816 C 124.904144 116.019274 124.74938 116.089672 124.590854 116.152546 C 124.431791 116.21542 124.270578 116.269696 124.106679 116.315911 C 123.942242 116.362126 123.776193 116.399743 123.607994 116.428761 C 123.440333 116.458318 123.27106 116.478738 123.100711 116.490561 C 122.930901 116.502383 122.760553 116.505607 122.590205 116.500234 C 121.770169 116.500234 120.950134 116.500234 120.130099 116.500234 C 119.780804 116.524416 119.432047 116.51528 119.084365 116.471752 C 118.736683 116.428224 118.396524 116.351915 118.063889 116.241752 C 117.731253 116.132125 117.41259 115.99133 117.10736 115.819367 C 116.802131 115.647404 116.516247 115.447497 116.250246 115.220184 C 115.810135 114.89829 115.343156 114.621537 114.849845 114.389925 " stroke="#000000" stroke-width="2" stroke-opacity="1" stroke-miterlimit="4"/><path stroke-linecap="round" transform="matrix(7.269123, 0, 0, 7.269003, -142.45137, -142.42654)" fill="none" stroke-linejoin="round" d="M 62.110181 55.200243 L 62.110181 84.73006 C 62.045695 85.204571 62.092447 85.667796 62.249898 86.119737 C 62.377256 86.374457 62.475059 86.639388 62.543843 86.915603 C 62.612627 87.191819 62.650243 87.471796 62.657229 87.756073 C 62.664215 88.040349 62.640033 88.321938 62.584683 88.600841 C 62.529334 88.880281 62.444428 89.149511 62.329967 89.410142 C 62.166605 90.025985 62.093522 90.652575 62.110181 91.289913 C 62.110181 97.89007 62.110181 104.490227 62.110181 111.089846 C 62.098896 111.26987 62.096746 111.449894 62.104807 111.629918 C 62.11233 111.810479 62.129526 111.989428 62.156395 112.16784 C 62.183264 112.346251 62.219268 112.522513 62.264945 112.697163 C 62.310622 112.871276 62.365434 113.042702 62.428844 113.21144 C 62.492792 113.380179 62.565338 113.545156 62.647019 113.705834 C 62.728163 113.867049 62.817904 114.022891 62.915707 114.174433 C 63.013509 114.325976 63.119372 114.471607 63.232758 114.611864 C 63.346145 114.752122 63.466517 114.88593 63.593875 115.013291 C 63.72177 115.140651 63.855577 115.261025 63.995832 115.373876 C 64.136624 115.487264 64.282253 115.592591 64.433793 115.689858 C 64.58587 115.787662 64.741709 115.876868 64.902922 115.958013 C 65.064135 116.039158 65.229109 116.111167 65.397845 116.174579 C 65.566581 116.238527 65.738004 116.292803 65.912651 116.337943 C 66.087298 116.383084 66.263557 116.419089 66.441966 116.44542 C 66.620375 116.471752 66.799858 116.488948 66.979879 116.496472 C 67.1599 116.503995 67.339921 116.501846 67.519942 116.490023 C 68.259908 116.490023 68.999874 116.490023 69.750051 116.490023 C 70.098808 116.514206 70.44649 116.50507 70.793097 116.461542 C 71.140242 116.418014 71.479326 116.341168 71.811424 116.231541 C 72.142985 116.121915 72.461111 115.98112 72.765266 115.809157 C 73.069958 115.637194 73.354767 115.437287 73.620231 115.209973 C 74.061416 114.89023 74.527858 114.614014 75.020095 114.380252 " stroke="#000000" stroke-width="2" stroke-opacity="1" stroke-miterlimit="4"/><path stroke-linecap="round" transform="matrix(7.269123, 0, 0, 7.269003, -142.45137, -142.42654)" fill="none" stroke-linejoin="round" d="M 114.079785 103.360107 L 75.820247 103.360107 " stroke="#000000" stroke-width="2" stroke-opacity="1" stroke-miterlimit="4"/><path stroke-linecap="round" transform="matrix(7.269123, 0, 0, 7.269003, -142.45137, -142.42654)" fill="none" stroke-linejoin="round" d="M 113.549933 94.449734 C 112.763215 94.213822 112.019487 93.880644 111.319824 93.450199 C 110.983964 93.229334 110.633058 93.035338 110.267642 92.867137 C 109.901689 92.699473 109.526064 92.56029 109.139153 92.449052 C 108.75278 92.33835 108.359958 92.256668 107.961226 92.205079 C 107.562493 92.152953 107.162148 92.131457 106.760191 92.140056 C 98.873128 92.140056 90.983377 92.140056 83.089866 92.140056 C 82.687371 92.13092 82.285952 92.152415 81.886144 92.204004 C 81.486336 92.255056 81.092977 92.336738 80.70553 92.447439 C 80.318082 92.558678 79.941381 92.698398 79.574891 92.866062 C 79.208401 93.034263 78.856957 93.228797 78.520023 93.450199 C 77.820897 93.882256 77.077706 94.215972 76.289913 94.449734 " stroke="#000000" stroke-width="2" stroke-opacity="1" stroke-miterlimit="4"/><path stroke-linecap="round" transform="matrix(7.269123, 0, 0, 7.269003, -142.45137, -142.42654)" fill="none" stroke-linejoin="round" d="M 54.080175 107.109976 L 23.320252 107.109976 " stroke="#000000" stroke-width="2" stroke-opacity="1" stroke-miterlimit="4"/><g clip-path="url(#6ad7c630e8)"><path stroke-linecap="round" transform="matrix(7.269123, 0, 0, 7.269003, -142.45137, -142.42654)" fill="none" stroke-linejoin="round" d="M 54.610028 116.479813 L 54.610028 109.689959 C 54.670214 108.95428 54.553603 108.247619 54.260196 107.569977 C 54.224192 107.507641 54.196786 107.441543 54.177978 107.37222 C 54.159707 107.302897 54.150034 107.231963 54.150034 107.159953 C 54.150034 107.087944 54.159707 107.017546 54.177978 106.947686 C 54.196786 106.878364 54.224192 106.812265 54.260196 106.749929 C 54.426245 106.343666 54.540706 105.922894 54.603579 105.487612 C 54.666452 105.052868 54.67505 104.617049 54.629911 104.180156 L 54.629911 90.699865 C 54.629911 88.700257 54.319845 88.369766 52.290177 88.360093 C 50.259971 88.349882 48.539832 88.360093 46.660091 88.360093 C 45.886808 88.406308 45.139856 88.286471 44.419772 88.000045 C 44.180103 87.900092 44.000082 87.729741 43.709899 87.889881 C 43.09944 88.146751 42.464799 88.31334 41.807051 88.389649 C 41.148766 88.465958 40.493168 88.449836 39.840256 88.34021 C 37.729982 88.240256 35.560059 88.79 33.50997 87.839905 C 33.433126 87.808199 33.356818 87.808199 33.279974 87.839905 C 30.68015 88.839977 27.970164 88.210162 25.280061 88.329999 C 22.980093 88.440163 22.700121 88.62986 22.700121 90.940076 C 22.700121 95.509994 22.759769 100.079912 22.700121 104.64983 C 22.700121 105.649903 23.490063 106.580115 23.069835 107.569977 C 22.768905 108.48783 22.661967 109.427716 22.750097 110.390171 C 22.750097 112.389779 22.750097 114.420018 22.750097 116.479813 " stroke="#000000" stroke-width="2" stroke-opacity="1" stroke-miterlimit="4"/></g><path stroke-linecap="round" transform="matrix(7.269123, 0, 0, 7.269003, -142.45137, -142.42654)" fill="none" stroke-linejoin="round" d="M 33.399808 87.659881 C 33.399808 85.350202 32.399752 83.269987 31.889783 81.089817 C 31.449135 79.783436 31.115962 78.450185 30.890264 77.090064 C 30.841363 76.894456 30.818256 76.695624 30.820942 76.494105 C 30.823092 76.292586 30.851035 76.094828 30.904773 75.900295 C 30.957973 75.705762 31.035355 75.521439 31.135845 75.346789 C 31.236871 75.172139 31.358318 75.013073 31.500185 74.870129 C 31.919876 74.529965 32.260035 74.160244 33.039767 74.449894 C 33.312754 74.548236 33.592726 74.618633 33.879685 74.660549 C 34.166644 74.701928 34.454677 74.714825 34.744322 74.698703 C 35.033968 74.682044 35.318777 74.637441 35.599287 74.563282 C 35.879797 74.489661 36.150097 74.388632 36.410187 74.260198 C 36.95025 74.089309 37.500522 74.049543 38.059931 74.139823 C 39.421103 74.036646 40.754332 74.183352 42.060155 74.579941 C 42.506715 74.672909 42.957035 74.704077 43.412193 74.673446 C 43.86735 74.642815 44.310147 74.55146 44.740048 74.399917 C 44.798085 74.388095 44.852897 74.368749 44.905022 74.340805 C 44.957148 74.312861 45.004437 74.277931 45.045815 74.236015 C 45.08773 74.194099 45.12266 74.147347 45.150603 74.09522 C 45.178547 74.043094 45.19843 73.987744 45.210252 73.930243 C 45.429501 73.404681 45.708399 72.912437 46.046408 72.454586 C 46.384955 71.996197 46.772403 71.58456 47.209827 71.220213 C 47.633279 70.789768 48.022876 70.331379 48.379156 69.843434 C 48.734899 69.356026 49.053026 68.844974 49.332998 68.310813 C 49.613508 67.776116 49.853178 67.223685 50.052007 66.654057 C 50.250836 66.084429 50.406675 65.502979 50.520061 64.910244 C 50.637746 64.129962 50.590995 63.35989 50.379806 62.600028 C 48.489856 61.970213 46.790136 62.600028 45.109763 63.379773 C 44.490168 63.735522 43.823822 63.928443 43.110188 63.960148 " stroke="#000000" stroke-width="2" stroke-opacity="1" stroke-miterlimit="4"/><path stroke-linecap="round" transform="matrix(7.269123, 0, 0, 7.269003, -142.45137, -142.42654)" fill="none" stroke-linejoin="round" d="M 34.219844 63.999915 C 32.889839 63.899961 31.810251 63.099796 30.580198 62.719865 C 30.289478 62.604864 29.990697 62.516733 29.684393 62.455472 C 29.378089 62.39421 29.06856 62.360355 28.756345 62.354443 C 28.44413 62.348532 28.133526 62.370027 27.825073 62.420004 C 27.516619 62.469444 27.214614 62.54629 26.920132 62.650005 C 26.310211 65.650223 27.679981 68.039972 29.409794 70.339977 C 30.140087 71.34005 31.220213 71.999958 31.769948 73.139751 C 31.98651 73.508934 32.139662 73.902299 32.229942 74.319847 " stroke="#000000" stroke-width="2" stroke-opacity="1" stroke-miterlimit="4"/><path stroke-linecap="round" transform="matrix(7.269123, 0, 0, 7.269003, -142.45137, -142.42654)" fill="none" stroke-linejoin="round" d="M 45.230135 74.410128 C 45.366628 74.489661 45.495061 74.580479 45.615433 74.683119 C 45.735805 74.785222 45.845967 74.896998 45.946457 75.018984 C 46.047483 75.140971 46.13615 75.27048 46.21407 75.408051 C 46.291452 75.545621 46.356474 75.689103 46.4086 75.838496 C 46.461262 75.987351 46.499954 76.139969 46.52521 76.29581 C 46.550467 76.451652 46.561752 76.608568 46.559602 76.766559 C 46.556915 76.92455 46.540794 77.081466 46.510701 77.236233 C 46.480608 77.391537 46.437081 77.542542 46.380119 77.689786 C 45.759987 80.130049 44.980255 82.530008 44.310147 84.960061 C 44.038235 85.839759 43.918401 86.739878 43.950106 87.659881 " stroke="#000000" stroke-width="2" stroke-opacity="1" stroke-miterlimit="4"/><path stroke-linecap="round" transform="matrix(7.269123, 0, 0, 7.269003, -142.45137, -142.42654)" fill="none" stroke-linejoin="round" d="M 37.150154 74.000103 C 36.847074 72.537343 36.37687 71.131007 35.74008 69.780023 C 35.376276 68.535978 35.079645 67.275811 34.850185 66.00006 C 34.330006 64.320196 34.850185 62.910099 35.269876 61.400048 C 35.439149 60.672967 35.684193 59.972218 36.004469 59.2978 C 36.324744 58.623383 36.713267 57.990881 37.170036 57.399758 C 38.419972 55.969778 38.769804 55.6898 40.170205 57.399758 C 41.040754 58.692168 41.707637 60.081844 42.16978 61.569862 C 43.399833 64.490009 42.459963 67.13018 41.600162 69.790233 C 41.037529 71.161638 40.571087 72.564749 40.199761 74.000103 " stroke="#000000" stroke-width="2" stroke-opacity="1" stroke-miterlimit="4"/><path stroke-linecap="round" transform="matrix(7.269123, 0, 0, 7.269003, -142.45137, -142.42654)" fill="none" stroke-linejoin="round" d="M 38.669852 53.089934 L 38.669852 56.090152 " stroke="#000000" stroke-width="2" stroke-opacity="1" stroke-miterlimit="4"/><path stroke-linecap="round" transform="matrix(7.269123, 0, 0, 7.269003, -142.45137, -142.42654)" fill="none" stroke-linejoin="round" d="M 48.999825 73.88994 C 48.186238 74.529427 47.289358 75.01576 46.31026 75.350013 " stroke="#000000" stroke-width="2" stroke-opacity="1" stroke-miterlimit="4"/><path stroke-linecap="round" transform="matrix(7.269123, 0, 0, 7.269003, -142.45137, -142.42654)" fill="none" stroke-linejoin="round" d="M 31.049864 75.350013 C 30.072915 75.011461 29.176035 74.525128 28.359762 73.88994 " stroke="#000000" stroke-width="2" stroke-opacity="1" stroke-miterlimit="4"/></svg>