<svg xmlns="http://www.w3.org/2000/svg" xmlns:xlink="http://www.w3.org/1999/xlink" width="1080" zoomAndPan="magnify" viewBox="0 0 810 809.999993" height="1080" preserveAspectRatio="xMidYMid meet" version="1.0"><defs><clipPath id="4e86b83264"><path d="M 122 266.289062 L 640 266.289062 L 640 543.789062 L 122 543.789062 Z M 122 266.289062 " clip-rule="nonzero"/></clipPath></defs><g clip-path="url(#4e86b83264)"><path fill="#000000" d="M 630.996094 266.289062 L 351.636719 266.289062 C 346.796875 266.289062 342.878906 270.210938 342.878906 275.046875 L 342.878906 470.710938 L 122.703125 530.726562 L 126.253906 543.765625 L 342.878906 484.71875 L 342.878906 484.847656 C 342.878906 489.6875 346.796875 493.609375 351.636719 493.609375 L 358.394531 493.609375 C 362.175781 470.046875 382.636719 451.984375 407.242188 451.984375 C 431.851562 451.984375 452.3125 470.046875 456.09375 493.609375 L 630.996094 493.609375 C 635.832031 493.609375 639.753906 489.6875 639.753906 484.847656 L 639.753906 275.046875 C 639.753906 270.210938 635.835938 266.289062 630.996094 266.289062 Z M 630.996094 266.289062 " fill-opacity="1" fill-rule="nonzero"/></g><path fill="#000000" d="M 803.289062 400.457031 L 767.738281 333.09375 C 764.367188 326.703125 755.695312 321.472656 748.46875 321.472656 L 663.527344 321.472656 C 656.300781 321.472656 650.390625 327.386719 650.390625 334.613281 L 650.390625 480.46875 C 650.390625 487.695312 656.300781 493.609375 663.527344 493.609375 L 668.535156 493.609375 C 672.3125 470.042969 692.773438 451.984375 717.382812 451.984375 C 741.988281 451.984375 762.449219 470.046875 766.230469 493.609375 L 796.28125 493.609375 C 803.507812 493.609375 809.417969 487.695312 809.417969 480.46875 L 809.417969 425.21875 C 809.417969 417.992188 806.660156 406.847656 803.289062 400.457031 Z M 692.648438 334.613281 L 692.648438 397.328125 L 663.527344 397.328125 L 663.527344 334.613281 Z M 690.3125 427.113281 L 672.214844 427.113281 L 672.214844 420.105469 L 690.3125 420.105469 Z M 699.65625 397.328125 L 699.65625 334.613281 L 748.472656 334.613281 C 750.8125 334.613281 755.027344 337.160156 756.121094 339.230469 L 786.785156 397.328125 Z M 699.65625 397.328125 " fill-opacity="1" fill-rule="nonzero"/><path fill="#000000" d="M 717.382812 460.742188 C 694.894531 460.742188 676.660156 478.980469 676.660156 501.476562 C 676.660156 523.976562 694.894531 542.210938 717.382812 542.210938 C 739.871094 542.210938 758.105469 523.976562 758.105469 501.476562 C 758.105469 478.980469 739.871094 460.742188 717.382812 460.742188 Z M 740.589844 501.476562 C 740.589844 514.277344 730.179688 524.691406 717.382812 524.691406 C 704.585938 524.691406 694.175781 514.277344 694.175781 501.476562 C 694.175781 488.675781 704.585938 478.265625 717.382812 478.265625 C 730.179688 478.265625 740.589844 488.675781 740.589844 501.476562 Z M 740.589844 501.476562 " fill-opacity="1" fill-rule="nonzero"/><path fill="#000000" d="M 407.246094 460.742188 C 384.753906 460.742188 366.523438 478.980469 366.523438 501.476562 C 366.523438 523.976562 384.753906 542.210938 407.246094 542.210938 C 429.734375 542.210938 447.964844 523.976562 447.964844 501.476562 C 447.964844 478.980469 429.734375 460.742188 407.246094 460.742188 Z M 430.449219 501.476562 C 430.449219 514.277344 420.039062 524.691406 407.242188 524.691406 C 394.449219 524.691406 384.039062 514.277344 384.039062 501.476562 C 384.039062 488.675781 394.449219 478.265625 407.242188 478.265625 C 420.042969 478.265625 430.449219 488.675781 430.449219 501.476562 Z M 430.449219 501.476562 " fill-opacity="1" fill-rule="nonzero"/><path fill="#000000" d="M 55.5 373.972656 C 46.933594 370.28125 37 374.230469 33.304688 382.796875 C 29.613281 391.359375 33.5625 401.300781 42.128906 404.992188 C 50.691406 408.683594 60.625 404.734375 64.316406 396.167969 C 65.96875 392.339844 66.085938 388.238281 64.953125 384.542969 C 62.652344 384.746094 60.214844 385.003906 57.726562 385.371094 C 51.496094 386.285156 45.820312 386.734375 41.734375 386.722656 C 45.492188 386.214844 50.15625 385.300781 55.160156 384.035156 C 61.417969 382.457031 66.949219 380.65625 70.730469 379.050781 C 74.132812 377.605469 76.117188 376.320312 75.910156 375.507812 C 75.578125 374.195312 69.582031 374.511719 61.417969 376.09375 C 60.8125 376.210938 60.195312 376.332031 59.570312 376.464844 C 58.367188 375.46875 57.003906 374.621094 55.5 373.972656 Z M 55.5 373.972656 " fill-opacity="1" fill-rule="nonzero"/><path fill="#000000" d="M 42.46875 443.296875 C 36.839844 434.535156 35.328125 427.015625 35.082031 425.597656 C 34.421875 421.464844 37.214844 417.609375 41.300781 416.957031 C 41.695312 416.890625 42.097656 416.859375 42.492188 416.859375 C 46.179688 416.859375 49.292969 419.503906 49.890625 423.148438 L 49.90625 423.226562 C 49.929688 423.339844 49.96875 423.53125 50.035156 423.789062 C 50.164062 424.335938 50.398438 425.214844 50.785156 426.34375 C 51.234375 427.664062 51.933594 429.445312 52.972656 431.484375 C 53.101562 431.117188 53.234375 430.746094 53.359375 430.394531 C 56.5625 423.304688 55.058594 414.050781 48.945312 411.550781 C 42.832031 409.050781 33.140625 411.160156 27.824219 421.5 C 20.597656 435.757812 18.097656 445.355469 17.628906 462.144531 C 17.90625 467.882812 19.800781 471.472656 22.433594 473.757812 C 22.753906 474.507812 23.175781 475.210938 23.679688 475.855469 C 24.773438 479.042969 26.015625 483.90625 25.992188 489.488281 C 25.984375 494.59375 25.027344 500.273438 22.09375 506.292969 C 19.136719 512.304688 14.167969 518.765625 5.535156 525.253906 C 1.390625 528.367188 0.550781 534.25 3.660156 538.398438 C 5.503906 540.855469 8.320312 542.152344 11.175781 542.152344 C 13.132812 542.152344 15.109375 541.539062 16.796875 540.273438 C 27.496094 532.257812 34.625 523.390625 38.945312 514.542969 C 42.835938 506.605469 44.425781 498.777344 44.707031 491.824219 C 51.359375 499.9375 58.652344 513.078125 63.015625 534.621094 C 63.917969 539.074219 67.832031 542.152344 72.203125 542.152344 C 72.820312 542.152344 73.445312 542.089844 74.070312 541.964844 C 79.148438 540.9375 82.4375 535.988281 81.410156 530.90625 C 75.628906 502.097656 64.433594 484.507812 54.117188 474.296875 C 50.492188 470.695312 47.015625 468.027344 43.976562 466.058594 C 44.25 460.558594 45.4375 454.871094 46.976562 449.394531 C 45.1875 447.277344 43.695312 445.210938 42.46875 443.296875 Z M 42.46875 443.296875 " fill-opacity="1" fill-rule="nonzero"/><path fill="#000000" d="M 232.105469 332.660156 C 237.023438 331.109375 241.472656 329.4375 244.941406 327.902344 C 241.46875 330.054688 236.402344 332.648438 230.621094 335.140625 C 228.3125 336.136719 226.101562 337.191406 224.039062 338.226562 C 225.011719 341.96875 227.261719 345.398438 230.671875 347.792969 C 238.3125 353.148438 248.839844 351.292969 254.191406 343.65625 C 259.542969 336.019531 257.691406 325.484375 250.054688 320.132812 C 242.417969 314.777344 231.890625 316.632812 226.535156 324.269531 C 225.597656 325.613281 224.890625 327.046875 224.386719 328.523438 C 223.78125 328.742188 223.191406 328.960938 222.609375 329.179688 C 214.828125 332.121094 209.558594 334.996094 209.964844 336.292969 C 210.21875 337.089844 212.578125 337.144531 216.234375 336.585938 C 220.292969 335.96875 225.949219 334.601562 232.105469 332.660156 Z M 232.105469 332.660156 " fill-opacity="1" fill-rule="nonzero"/><path fill="#000000" d="M 250.597656 367.699219 C 249.414062 363.769531 251.660156 359.574219 255.613281 358.375 C 256.324219 358.160156 257.058594 358.050781 257.796875 358.050781 C 261.125 358.050781 264.007812 360.191406 264.976562 363.378906 C 265.289062 364.4375 266.296875 368.292969 266.300781 373.949219 C 266.304688 379.035156 265.425781 386.828125 261.222656 395.074219 C 261.019531 395.46875 260.804688 395.863281 260.589844 396.253906 C 262.1875 399.941406 263.519531 403.714844 264.382812 407.476562 C 263.785156 408.164062 263.183594 408.902344 262.582031 409.695312 C 257.683594 416.105469 253.042969 426.359375 253.082031 440.261719 C 253.085938 450.984375 255.730469 463.765625 262.414062 478.914062 C 263.960938 482.421875 267.398438 484.511719 271.003906 484.511719 C 272.265625 484.511719 273.550781 484.253906 274.785156 483.710938 C 279.523438 481.617188 281.671875 476.078125 279.582031 471.335938 C 273.726562 458.054688 271.847656 447.875 271.847656 440.261719 C 271.867188 435.867188 272.46875 432.296875 273.363281 429.359375 C 273.535156 429.832031 273.714844 430.304688 273.902344 430.785156 C 279.152344 444.445312 290.097656 461.25 311.203125 472.1875 C 312.585938 472.90625 314.066406 473.25 315.523438 473.25 C 318.914062 473.25 322.183594 471.40625 323.855469 468.191406 C 326.246094 463.59375 324.457031 457.925781 319.863281 455.535156 C 303.441406 446.953125 295.570312 434.601562 291.390625 423.988281 C 289.335938 418.699219 288.296875 413.90625 287.785156 410.515625 C 287.710938 410.035156 287.652344 409.585938 287.597656 409.164062 C 289.25 406.507812 290.0625 402.917969 289.351562 397.945312 C 285.710938 381.550781 281.441406 372.597656 271.644531 359.96875 C 264.46875 350.824219 254.550781 350.585938 249.023438 354.195312 C 243.496094 357.8125 243.769531 367.183594 248.257812 373.535156 C 249.105469 374.992188 250.035156 376.550781 250.996094 378.179688 C 251.183594 376.785156 251.289062 375.378906 251.289062 373.953125 C 251.292969 370.226562 250.605469 367.726562 250.597656 367.699219 Z M 250.597656 367.699219 " fill-opacity="1" fill-rule="nonzero"/><path fill="#000000" d="M 86.511719 458.535156 C 87.433594 460.316406 87.605469 462.351562 87 464.261719 C 86.003906 467.390625 83.128906 469.496094 79.847656 469.496094 C 79.082031 469.496094 78.316406 469.375 77.574219 469.140625 C 76.417969 468.777344 75.296875 468.390625 74.207031 467.988281 L 83.777344 500.816406 L 250.285156 452.230469 L 240.050781 417.140625 C 239.730469 417.339844 239.417969 417.542969 239.089844 417.738281 C 237.925781 418.441406 236.585938 418.8125 235.226562 418.8125 C 232.605469 418.8125 230.140625 417.421875 228.789062 415.179688 C 226.65625 411.632812 227.804688 407.007812 231.347656 404.875 C 232.871094 403.953125 234.300781 403.003906 235.644531 402.023438 L 227.671875 374.675781 L 61.164062 423.261719 L 68.515625 448.484375 C 72.53125 451.085938 77.070312 453.210938 82.125 454.832031 C 84.03125 455.4375 85.59375 456.753906 86.511719 458.535156 Z M 86.511719 458.535156 " fill-opacity="1" fill-rule="nonzero"/><path fill="#000000" d="M 230.074219 414.402344 C 231.199219 416.273438 233.1875 417.3125 235.226562 417.3125 C 236.28125 417.3125 237.347656 417.035156 238.316406 416.449219 C 249.210938 409.90625 256 402.039062 259.882812 394.390625 C 263.785156 386.738281 264.800781 379.433594 264.800781 373.953125 C 264.792969 368.074219 263.660156 364.226562 263.539062 363.816406 C 262.574219 360.640625 259.222656 358.847656 256.050781 359.8125 C 252.878906 360.773438 251.085938 364.125 252.042969 367.296875 C 252.128906 367.609375 252.792969 370.191406 252.789062 373.953125 C 252.789062 377.980469 252.054688 383.304688 249.183594 388.929688 C 246.304688 394.554688 241.300781 400.613281 232.121094 406.160156 C 229.28125 407.871094 228.363281 411.5625 230.074219 414.402344 Z M 230.074219 414.402344 " fill-opacity="1" fill-rule="nonzero"/><path fill="#000000" d="M 48.578125 424.148438 C 48.503906 423.851562 48.457031 423.632812 48.433594 423.507812 C 48.425781 423.464844 48.417969 423.429688 48.414062 423.410156 C 48.414062 423.394531 48.410156 423.390625 48.410156 423.390625 C 47.875 420.132812 44.804688 417.917969 41.539062 418.4375 C 38.265625 418.960938 36.035156 422.042969 36.558594 425.316406 C 36.652344 425.867188 37.90625 433.421875 43.734375 442.488281 C 49.53125 451.546875 60.132812 462.046875 78.027344 467.710938 C 78.632812 467.902344 79.246094 467.992188 79.847656 467.992188 C 82.394531 467.992188 84.757812 466.363281 85.570312 463.808594 C 86.574219 460.644531 84.828125 457.265625 81.667969 456.261719 C 66.539062 451.414062 58.460938 443.105469 53.832031 435.980469 C 51.535156 432.421875 50.15625 429.148438 49.363281 426.828125 C 48.964844 425.667969 48.71875 424.746094 48.578125 424.148438 Z M 48.578125 424.148438 " fill-opacity="1" fill-rule="nonzero"/></svg>