<svg xmlns="http://www.w3.org/2000/svg" xmlns:xlink="http://www.w3.org/1999/xlink" width="1080" zoomAndPan="magnify" viewBox="0 0 810 809.999993" height="1080" preserveAspectRatio="xMidYMid meet" version="1.0"><defs><clipPath id="a830939801"><path d="M 1 1 L 809 1 L 809 809 L 1 809 Z M 1 1 " clip-rule="nonzero"/></clipPath><clipPath id="15c977cdb2"><path d="M 1.0625 405 L 405.171875 0.886719 L 809.285156 405 L 405.171875 809.109375 Z M 1.0625 405 " clip-rule="nonzero"/></clipPath><clipPath id="13556fb80e"><path d="M 1.273438 405 L 405 1.273438 L 808.726562 405 L 405 808.726562 Z M 1.273438 405 " clip-rule="nonzero"/></clipPath><clipPath id="b817ddd7c8"><path d="M 0 405 L 405.171875 -0.171875 L 810.34375 405 L 405.171875 810.171875 Z M 0 405 " clip-rule="nonzero"/></clipPath><clipPath id="16e3824ce1"><path d="M 0 405 L 405.171875 -0.171875 L 810.34375 405 L 405.171875 810.171875 Z M 0 405 " clip-rule="nonzero"/></clipPath><clipPath id="c019da8203"><path d="M 0 405 L 405.171875 -0.171875 L 810.339844 405 L 405.171875 810.167969 Z M 0 405 " clip-rule="nonzero"/></clipPath><clipPath id="87eabafd5c"><path d="M 0 405 L 405 0 L 809.996094 405 L 405 809.996094 Z M 0 405 " clip-rule="nonzero"/></clipPath><clipPath id="7522e84577"><path d="M 195.453125 344 L 614.703125 344 L 614.703125 587 L 195.453125 587 Z M 195.453125 344 " clip-rule="nonzero"/></clipPath><clipPath id="9e75ce335e"><path d="M 307 137.570312 L 504 137.570312 L 504 343.820312 L 307 343.820312 Z M 307 137.570312 " clip-rule="nonzero"/></clipPath></defs><g clip-path="url(#a830939801)"><g clip-path="url(#15c977cdb2)"><g clip-path="url(#13556fb80e)"><g clip-path="url(#b817ddd7c8)"><path fill="#bf9c53" d="M 809.996094 405 L 405 809.996094 L 0 405 L 405 0 Z M 405 804.847656 L 804.847656 405 L 405 5.152344 L 5.152344 405 Z M 405 804.847656 " fill-opacity="1" fill-rule="nonzero"/></g></g></g></g><g clip-path="url(#16e3824ce1)"><g clip-path="url(#c019da8203)"><g clip-path="url(#87eabafd5c)"><path stroke-linecap="butt" transform="matrix(0.53033, -0.53033, 0.53033, 0.53033, 0.000539257, 404.998824)" fill="none" stroke-linejoin="miter" d="M -0.00161751 0.00060068 L 0.00206533 763.672277 L 763.670059 763.672277 L 763.673742 0.00060068 L -0.00161751 0.00060068 " stroke="#bf9c53" stroke-width="20" stroke-opacity="1" stroke-miterlimit="4"/></g></g></g><g clip-path="url(#7522e84577)"><path fill="#bf9c53" d="M 614.539062 435.207031 L 614.539062 409.261719 L 595.933594 409.261719 C 595.933594 393.59375 595.933594 383.3125 595.933594 383.3125 L 568.519531 344.144531 L 541.101562 383.3125 C 541.101562 383.3125 541.101562 393.59375 541.101562 409.261719 L 514.175781 409.261719 C 514.175781 393.59375 514.175781 383.3125 514.175781 383.3125 L 486.757812 344.144531 L 459.339844 383.3125 C 459.339844 383.3125 459.339844 393.59375 459.339844 409.261719 L 432.414062 409.261719 C 432.414062 393.59375 432.414062 383.3125 432.414062 383.3125 L 404.996094 344.144531 L 377.578125 383.3125 C 377.578125 383.3125 377.578125 393.59375 377.578125 409.261719 L 350.652344 409.261719 C 350.652344 393.59375 350.652344 383.3125 350.652344 383.3125 L 323.234375 344.144531 L 295.820312 383.3125 C 295.820312 383.3125 295.820312 393.59375 295.820312 409.261719 L 268.890625 409.261719 C 268.890625 393.59375 268.890625 383.3125 268.890625 383.3125 L 241.472656 344.144531 L 214.058594 383.3125 C 214.058594 383.3125 214.058594 393.59375 214.058594 409.261719 L 195.453125 409.261719 L 195.453125 435.207031 L 214.058594 435.207031 C 214.058594 460.175781 214.058594 490.53125 214.058594 517.457031 L 195.453125 517.457031 L 195.453125 543.40625 L 214.058594 543.40625 C 214.058594 568.375 214.058594 586.492188 214.058594 586.980469 L 268.890625 586.980469 C 269.378906 586.492188 269.378906 568.375 269.378906 543.40625 L 295.820312 543.40625 C 295.820312 568.375 295.820312 586.492188 295.820312 586.980469 L 350.652344 586.980469 C 350.652344 586.492188 350.652344 568.375 350.652344 543.40625 L 377.089844 543.40625 C 377.089844 568.375 377.089844 586.492188 377.089844 586.980469 L 432.414062 586.980469 C 432.414062 586.492188 432.414062 568.375 432.414062 543.40625 L 458.851562 543.40625 C 458.851562 568.375 458.851562 586.492188 458.851562 586.980469 L 513.683594 586.980469 C 513.683594 586.492188 513.683594 568.375 513.683594 543.40625 L 540.121094 543.40625 C 540.121094 568.375 540.121094 586.492188 540.121094 586.980469 L 595.933594 586.980469 C 595.933594 586.492188 595.933594 568.375 595.933594 543.40625 L 614.539062 543.40625 L 614.539062 517.457031 L 595.933594 517.457031 C 595.933594 490.53125 595.933594 460.175781 595.933594 435.207031 C 595.933594 435.207031 614.539062 435.207031 614.539062 435.207031 Z M 459.339844 435.207031 C 459.339844 460.175781 459.339844 490.53125 459.339844 517.457031 L 432.902344 517.457031 C 432.902344 490.53125 432.902344 460.175781 432.902344 435.207031 Z M 377.578125 435.207031 C 377.578125 460.175781 377.578125 490.53125 377.578125 517.457031 L 351.140625 517.457031 C 351.140625 490.53125 351.140625 460.175781 351.140625 435.207031 Z M 268.890625 435.207031 L 295.328125 435.207031 C 295.328125 460.175781 295.328125 490.53125 295.328125 517.457031 L 268.890625 517.457031 C 269.378906 490.53125 269.378906 460.175781 268.890625 435.207031 Z M 541.101562 517.457031 L 514.664062 517.457031 C 514.664062 490.53125 514.664062 460.175781 514.664062 435.207031 L 541.589844 435.207031 C 541.101562 460.175781 541.101562 490.53125 541.101562 517.457031 Z M 541.101562 517.457031 " fill-opacity="1" fill-rule="nonzero"/></g><g clip-path="url(#9e75ce335e)"><path fill="#bf9c53" d="M 417.1875 218.101562 L 449.933594 185.359375 L 456.015625 165.933594 L 489.179688 141.972656 L 503.902344 156.703125 L 479.953125 189.867188 L 460.457031 195.945312 L 427.753906 228.667969 Z M 398.402344 267.347656 L 341.359375 324.390625 C 339.085938 326.664062 335.394531 326.664062 333.121094 324.390625 C 330.847656 322.117188 330.847656 318.425781 333.121094 316.152344 L 390.164062 259.109375 L 372.269531 241.21875 L 313.839844 299.644531 C 304.890625 308.589844 304.890625 323.097656 313.839844 332.042969 C 322.785156 340.988281 337.289062 340.988281 346.238281 332.042969 L 404.664062 273.617188 Z M 343.570312 137.71875 L 361.78125 163.671875 C 364.277344 167.265625 363.394531 172.160156 359.839844 174.664062 L 340.15625 188.5 C 338.765625 189.464844 337.179688 189.933594 335.613281 189.933594 C 333.132812 189.933594 330.699219 188.765625 329.167969 186.5625 L 310.921875 160.578125 C 305.183594 173.042969 306.03125 188.078125 314.445312 200.085938 C 322.179688 211.09375 334.464844 216.976562 346.984375 216.976562 C 350.652344 216.976562 354.339844 216.472656 357.9375 215.441406 L 428.167969 285.671875 C 421.582031 298.277344 422.003906 313.988281 430.597656 326.523438 C 438.304688 337.757812 450.738281 343.75 463.398438 343.75 C 464.390625 343.75 465.386719 343.714844 466.375 343.640625 L 448.414062 317.472656 C 445.953125 313.878906 446.867188 309.023438 450.457031 306.519531 L 470.289062 292.894531 C 471.65625 291.957031 473.210938 291.507812 474.753906 291.507812 C 477.261719 291.507812 479.730469 292.699219 481.277344 294.90625 L 499.199219 321.070312 C 505.082031 308.710938 504.378906 293.632812 496.066406 281.554688 C 488.367188 270.359375 475.972656 264.335938 463.355469 264.332031 C 459.984375 264.332031 456.597656 264.761719 453.28125 265.636719 L 382.554688 194.914062 C 388.820312 182.308594 388.117188 166.777344 379.488281 154.449219 C 371.753906 143.457031 359.503906 137.570312 347.03125 137.570312 C 345.878906 137.570312 344.722656 137.621094 343.570312 137.71875 Z M 343.570312 137.71875 " fill-opacity="1" fill-rule="nonzero"/></g></svg>