<svg xmlns="http://www.w3.org/2000/svg" xmlns:xlink="http://www.w3.org/1999/xlink" width="1080" zoomAndPan="magnify" viewBox="0 0 810 809.999993" height="1080" preserveAspectRatio="xMidYMid meet" version="1.0"><path fill="#c99f4d" d="M 195.59375 0 L 89.292969 0 L 89.292969 72.28125 L 195.59375 72.28125 L 195.59375 0 " fill-opacity="1" fill-rule="nonzero"/><path fill="#c99f4d" d="M 89.292969 810 L 195.59375 810 L 195.59375 208.347656 L 89.292969 208.347656 L 89.292969 810 " fill-opacity="1" fill-rule="nonzero"/><path fill="#c99f4d" d="M 298.175781 193.460938 L 735.050781 193.460938 C 735.789062 187.144531 735.59375 194.109375 735.59375 87.167969 L 297.640625 87.167969 C 297.640625 192.6875 297.425781 187.03125 298.175781 193.460938 " fill-opacity="1" fill-rule="nonzero"/><path fill="#c99f4d" d="M 752.167969 193.460938 L 810 193.460938 L 810 87.167969 L 752.597656 87.167969 C 752.597656 191.949219 752.78125 187.03125 752.167969 193.460938 " fill-opacity="1" fill-rule="nonzero"/><path fill="#c99f4d" d="M 281.0625 193.460938 C 280.445312 186.988281 280.628906 192.171875 280.628906 87.167969 L 0 87.167969 L 0 193.460938 Z M 173.800781 128.621094 C 189.257812 128.621094 189.28125 152.007812 173.800781 152.007812 C 158.34375 152.007812 158.316406 128.621094 173.800781 128.621094 Z M 111.082031 128.621094 C 126.542969 128.621094 126.5625 152.007812 111.082031 152.007812 C 95.625 152.007812 95.597656 128.621094 111.082031 128.621094 " fill-opacity="1" fill-rule="nonzero"/><path fill="#c99f4d" d="M 722.832031 364.605469 C 722.832031 384.285156 693.070312 384.308594 693.070312 364.605469 C 693.070312 358.445312 696.816406 353.15625 702.15625 350.894531 L 705.101562 336.96875 L 328.132812 336.96875 L 331.074219 350.894531 C 345.953125 357.191406 341.429688 379.492188 325.277344 379.492188 C 312.28125 379.492188 305.542969 363.898438 314.4375 354.433594 L 310.746094 336.96875 C 305.566406 336.96875 289.132812 334.964844 289.132812 349.546875 L 289.132812 658.171875 C 289.132812 665.113281 294.765625 670.746094 301.714844 670.746094 L 731.511719 670.746094 C 738.460938 670.746094 744.09375 665.113281 744.09375 658.171875 L 744.09375 349.546875 C 744.09375 342.601562 738.460938 336.96875 731.511719 336.96875 L 722.480469 336.96875 L 718.796875 354.433594 C 721.292969 357.09375 722.832031 360.667969 722.832031 364.605469 Z M 582.511719 399.484375 C 582.511719 396.050781 585.523438 396.902344 597.609375 396.902344 C 600.867188 396.902344 600.945312 398.433594 620.066406 426.363281 C 621.132812 426.363281 620.808594 429.339844 620.808594 399.484375 C 620.808594 396.054688 624.003906 396.902344 634.425781 396.902344 C 638.097656 396.902344 637.003906 397.523438 637.003906 445.875 C 637.003906 449.300781 634 448.449219 621.910156 448.449219 C 618.65625 448.449219 618.578125 446.925781 599.449219 418.996094 C 598.386719 418.996094 598.714844 416.011719 598.714844 445.875 C 598.714844 449.484375 594.800781 448.449219 585.089844 448.449219 C 581.425781 448.449219 582.511719 447.832031 582.511719 399.484375 Z M 560.242188 500.363281 C 560.242188 477.402344 611.050781 479.164062 611.050781 499.253906 C 611.050781 503.105469 607.695312 502.203125 598.902344 502.203125 C 593.296875 502.203125 596.503906 495.941406 586.011719 495.941406 C 579.386719 495.941406 577.175781 498.148438 577.175781 500.363281 C 577.175781 507.722656 612.890625 500.726562 612.890625 521.347656 C 612.890625 544.453125 558.765625 543.648438 558.765625 522.082031 C 558.765625 518.230469 562.121094 519.132812 570.917969 519.132812 C 577.285156 519.132812 572.296875 526.132812 586.011719 526.132812 C 593.375 526.132812 595.957031 523.554688 595.957031 521.347656 C 595.957031 513.984375 560.242188 520.980469 560.242188 500.363281 Z M 524.34375 399.484375 C 524.34375 395.828125 525.074219 396.902344 571.84375 396.902344 C 575.382812 396.902344 574.417969 401.242188 574.417969 406.847656 C 574.417969 410.523438 572.09375 409.425781 540.546875 409.425781 L 540.546875 416.054688 C 570.027344 416.054688 566.320312 413.328125 566.320312 425.992188 C 566.320312 429.5 564.414062 428.570312 540.546875 428.570312 L 540.546875 435.933594 C 579.277344 435.933594 574.417969 432.714844 574.417969 445.875 C 574.417969 449.53125 573.6875 448.449219 526.917969 448.449219 C 523.253906 448.449219 524.34375 447.832031 524.34375 399.484375 Z M 535.210938 515.453125 C 535.210938 486.640625 534.277344 485.265625 537.789062 485.265625 C 548.195312 485.265625 551.410156 484.410156 551.410156 487.839844 C 551.410156 515.90625 556.34375 538.285156 524.164062 538.285156 C 491.863281 538.285156 496.917969 515.871094 496.917969 487.839844 C 496.917969 484.230469 500.832031 485.265625 510.542969 485.265625 C 514.132812 485.265625 513.117188 486.6875 513.117188 515.453125 C 513.117188 529.878906 535.210938 529.882812 535.210938 515.453125 Z M 463.230469 399.484375 C 463.230469 395.976562 464.496094 396.902344 491.582031 396.902344 C 525.863281 396.902344 525.863281 434.457031 491.582031 434.457031 L 479.433594 434.457031 C 479.433594 451.066406 481.945312 448.449219 465.808594 448.449219 C 462.144531 448.449219 463.230469 447.832031 463.230469 399.484375 Z M 488.460938 511.039062 C 488.460938 527.609375 477.777344 538.285156 458.265625 538.285156 C 438.75 538.285156 428.074219 527.609375 428.074219 511.039062 C 428.074219 494.46875 438.75 483.792969 458.265625 483.792969 C 477.777344 483.792969 488.460938 494.46875 488.460938 511.039062 Z M 424.210938 395.429688 C 443.722656 395.429688 454.398438 406.113281 454.398438 422.675781 C 454.398438 439.246094 443.722656 449.921875 424.210938 449.921875 C 404.695312 449.921875 394.019531 439.246094 394.019531 422.675781 C 394.019531 406.113281 404.695312 395.429688 424.210938 395.429688 Z M 368.066406 536.808594 C 364.394531 536.808594 365.484375 536.191406 365.484375 487.839844 C 365.484375 484.230469 369.398438 485.265625 379.109375 485.265625 C 382.550781 485.265625 381.6875 487.566406 381.6875 505.144531 L 403.039062 505.144531 C 403.039062 481.707031 399.898438 485.265625 416.664062 485.265625 C 420.335938 485.265625 419.242188 485.878906 419.242188 534.230469 C 419.242188 537.84375 415.328125 536.808594 405.621094 536.808594 C 402.15625 536.808594 403.039062 534.328125 403.039062 517.664062 L 381.6875 517.664062 C 381.6875 540.253906 384.765625 536.808594 368.066406 536.808594 Z M 599.269531 639.921875 L 599.269531 626.910156 L 390.121094 626.910156 L 390.121094 580.648438 L 599.269531 580.648438 L 599.269531 567.640625 L 643.109375 603.777344 Z M 670.691406 495.203125 C 670.691406 498.878906 668.367188 497.78125 636.820312 497.78125 L 636.820312 504.410156 C 666.304688 504.410156 662.59375 501.691406 662.59375 514.351562 C 662.59375 517.855469 660.6875 516.925781 636.820312 516.925781 L 636.820312 524.292969 C 675.546875 524.292969 670.691406 521.074219 670.691406 534.230469 C 670.691406 537.886719 669.964844 536.808594 623.195312 536.808594 C 619.53125 536.808594 620.617188 536.191406 620.617188 487.839844 C 620.617188 484.183594 621.351562 485.265625 668.113281 485.265625 C 671.65625 485.265625 670.691406 489.597656 670.691406 495.203125 " fill-opacity="1" fill-rule="nonzero"/><path fill="#c99f4d" d="M 458.265625 526.132812 C 476.207031 526.132812 476.207031 495.941406 458.265625 495.941406 C 440.320312 495.941406 440.320312 526.132812 458.265625 526.132812 " fill-opacity="1" fill-rule="nonzero"/><path fill="#c99f4d" d="M 424.210938 437.773438 C 442.148438 437.773438 442.15625 407.578125 424.210938 407.578125 C 406.273438 407.578125 406.265625 437.773438 424.210938 437.773438 " fill-opacity="1" fill-rule="nonzero"/><path fill="#c99f4d" d="M 500.050781 415.679688 C 500.050781 407.1875 490.621094 408.6875 479.433594 408.6875 L 479.433594 422.675781 C 489.316406 422.675781 500.050781 424.402344 500.050781 415.679688 " fill-opacity="1" fill-rule="nonzero"/><path fill="#c99f4d" d="M 294.449219 184.542969 C 294.449219 83.382812 296.667969 81.851562 289.132812 81.851562 C 281.601562 81.851562 283.820312 83.410156 283.820312 184.542969 C 283.820312 197.558594 282.898438 189.679688 320.078125 365.703125 C 320.683594 368.582031 323.511719 370.414062 326.375 369.808594 C 333.804688 368.234375 332.78125 374.417969 296.175781 201.09375 C 295.027344 195.664062 294.449219 190.097656 294.449219 184.542969 " fill-opacity="1" fill-rule="nonzero"/><path fill="#c99f4d" d="M 744.09375 81.851562 C 736.558594 81.851562 738.777344 83.410156 738.777344 184.542969 C 738.777344 196.460938 739.589844 189.078125 702.753906 363.503906 C 702.054688 366.808594 704.574219 369.921875 707.957031 369.921875 C 714.101562 369.921875 710.40625 378.722656 747.453125 203.292969 C 750.0625 190.914062 749.414062 194.171875 749.414062 87.167969 C 749.414062 84.230469 747.027344 81.851562 744.09375 81.851562 " fill-opacity="1" fill-rule="nonzero"/></svg>