<svg xmlns="http://www.w3.org/2000/svg" xmlns:xlink="http://www.w3.org/1999/xlink" width="1080" zoomAndPan="magnify" viewBox="0 0 810 809.999993" height="1080" preserveAspectRatio="xMidYMid meet" version="1.0"><defs><clipPath id="ad72c33c29"><path d="M 114.851562 17 L 695 17 L 695 793 L 114.851562 793 Z M 114.851562 17 " clip-rule="nonzero"/></clipPath></defs><g clip-path="url(#ad72c33c29)"><path fill="#000000" d="M 673.910156 90.058594 L 172.488281 90.058594 C 168.273438 90.058594 164.890625 93.441406 164.890625 97.65625 L 164.890625 777.492188 L 130.046875 777.492188 L 130.046875 41.082031 C 130.046875 36.511719 133.726562 32.832031 138.296875 32.832031 L 156.640625 32.832031 C 161.152344 32.832031 164.890625 36.511719 164.890625 41.082031 L 164.890625 71.359375 C 164.890625 75.574219 168.273438 78.957031 172.488281 78.957031 L 673.910156 78.957031 C 676.996094 78.957031 679.488281 81.449219 679.488281 84.535156 C 679.488281 87.5625 676.996094 90.058594 673.910156 90.058594 Z M 673.910156 63.757812 L 180.085938 63.757812 L 180.085938 41.082031 C 180.085938 28.199219 169.582031 17.632812 156.640625 17.632812 L 138.296875 17.632812 C 125.355469 17.632812 114.851562 28.199219 114.851562 41.082031 L 114.851562 785.09375 C 114.851562 789.308594 118.234375 792.691406 122.449219 792.691406 L 172.488281 792.691406 C 176.703125 792.691406 180.085938 789.308594 180.085938 785.09375 L 180.085938 105.253906 L 673.910156 105.253906 C 685.367188 105.253906 694.683594 95.933594 694.683594 84.535156 C 694.683594 73.078125 685.367188 63.757812 673.910156 63.757812 " fill-opacity="1" fill-rule="nonzero"/></g><path fill="#000000" d="M 655.09375 465.714844 L 213.863281 465.714844 L 213.863281 139.03125 L 655.09375 139.03125 Z M 662.691406 123.835938 L 206.265625 123.835938 C 202.050781 123.835938 198.667969 127.277344 198.667969 131.433594 L 198.667969 473.3125 C 198.667969 477.527344 202.050781 480.910156 206.265625 480.910156 L 662.691406 480.910156 C 666.90625 480.910156 670.289062 477.527344 670.289062 473.3125 L 670.289062 131.433594 C 670.289062 127.277344 666.90625 123.835938 662.691406 123.835938 " fill-opacity="1" fill-rule="nonzero"/><path fill="#000000" d="M 434.566406 199.585938 L 526.160156 289.640625 L 514.050781 289.640625 C 509.835938 289.640625 506.453125 293.023438 506.453125 297.238281 L 506.453125 408.25 L 362.679688 408.25 L 362.679688 297.238281 C 362.679688 293.023438 359.296875 289.640625 355.082031 289.640625 L 342.855469 289.640625 Z M 324.273438 304.835938 L 347.484375 304.835938 L 347.484375 415.847656 C 347.484375 420.0625 350.867188 423.445312 355.082031 423.445312 L 514.050781 423.445312 C 518.207031 423.445312 521.648438 420.0625 521.648438 415.847656 L 521.648438 304.835938 L 544.679688 304.835938 C 547.769531 304.835938 550.558594 302.996094 551.746094 300.148438 C 552.933594 297.296875 552.21875 293.972656 550.023438 291.835938 L 439.910156 183.496094 C 436.941406 180.585938 432.191406 180.585938 429.222656 183.496094 L 318.933594 291.835938 C 316.734375 293.972656 316.082031 297.296875 317.269531 300.148438 C 318.398438 302.996094 321.1875 304.835938 324.273438 304.835938 " fill-opacity="1" fill-rule="nonzero"/></svg>