<svg xmlns="http://www.w3.org/2000/svg" xmlns:xlink="http://www.w3.org/1999/xlink" width="1080" zoomAndPan="magnify" viewBox="0 0 810 809.999993" height="1080" preserveAspectRatio="xMidYMid meet" version="1.0"><path fill="#c99f4d" d="M 796.5 81 L 445.5 81 C 444.613281 81 443.734375 81.085938 442.867188 81.257812 C 441.996094 81.433594 441.152344 81.6875 440.332031 82.027344 C 439.515625 82.367188 438.738281 82.78125 438 83.273438 C 437.261719 83.769531 436.582031 84.328125 435.953125 84.953125 C 435.328125 85.582031 434.769531 86.261719 434.273438 87 C 433.78125 87.738281 433.367188 88.515625 433.027344 89.332031 C 432.6875 90.152344 432.433594 90.996094 432.257812 91.867188 C 432.085938 92.734375 432 93.613281 432 94.5 L 432 432 L 135 432 L 135 297 L 175.5 297 C 176.011719 297 176.519531 296.972656 177.027344 296.914062 C 177.539062 296.855469 178.039062 296.769531 178.539062 296.652344 C 179.035156 296.539062 179.527344 296.394531 180.007812 296.226562 C 180.492188 296.054688 180.960938 295.855469 181.421875 295.632812 C 181.878906 295.40625 182.324219 295.15625 182.757812 294.882812 C 183.1875 294.609375 183.601562 294.308594 184 293.988281 C 184.398438 293.664062 184.773438 293.324219 185.132812 292.957031 C 185.492188 292.59375 185.828125 292.207031 186.140625 291.804688 C 186.457031 291.402344 186.746094 290.984375 187.015625 290.546875 C 187.28125 290.109375 187.523438 289.660156 187.738281 289.195312 C 187.953125 288.734375 188.144531 288.257812 188.304688 287.773438 C 188.46875 287.289062 188.601562 286.796875 188.707031 286.296875 C 188.8125 285.796875 188.890625 285.289062 188.9375 284.78125 C 188.988281 284.273438 189.007812 283.761719 188.996094 283.25 C 188.988281 282.738281 188.949219 282.230469 188.882812 281.722656 C 188.816406 281.21875 188.71875 280.714844 188.59375 280.21875 L 166.710938 192.671875 C 166.441406 191.585938 166.125 190.511719 165.761719 189.453125 C 165.402344 188.394531 165 187.351562 164.550781 186.324219 C 164.105469 185.296875 163.617188 184.292969 163.085938 183.308594 C 162.554688 182.320312 161.984375 181.359375 161.375 180.421875 C 160.765625 179.480469 160.117188 178.570312 159.429688 177.6875 C 158.746094 176.800781 158.023438 175.945312 157.265625 175.121094 C 156.507812 174.296875 155.71875 173.503906 154.898438 172.746094 C 154.074219 171.984375 153.222656 171.261719 152.339844 170.574219 C 151.457031 169.882812 150.546875 169.234375 149.613281 168.621094 C 148.675781 168.007812 147.714844 167.433594 146.730469 166.898438 C 145.746094 166.367188 144.742188 165.875 143.71875 165.421875 C 142.695312 164.972656 141.652344 164.566406 140.59375 164.203125 C 139.535156 163.835938 138.464844 163.519531 137.378906 163.242188 C 136.292969 162.96875 135.199219 162.738281 134.09375 162.554688 C 132.992188 162.367188 131.882812 162.230469 130.765625 162.136719 C 129.648438 162.046875 128.53125 162 127.414062 162 L 115.585938 162 C 114.46875 162 113.351562 162.046875 112.234375 162.136719 C 111.117188 162.230469 110.007812 162.367188 108.90625 162.554688 C 107.800781 162.738281 106.707031 162.96875 105.621094 163.242188 C 104.535156 163.519531 103.464844 163.835938 102.40625 164.203125 C 101.347656 164.566406 100.304688 164.972656 99.28125 165.421875 C 98.257812 165.875 97.253906 166.367188 96.269531 166.898438 C 95.285156 167.433594 94.324219 168.007812 93.386719 168.621094 C 92.453125 169.234375 91.542969 169.882812 90.660156 170.574219 C 89.777344 171.261719 88.925781 171.984375 88.101562 172.746094 C 87.28125 173.503906 86.492188 174.296875 85.734375 175.121094 C 84.976562 175.945312 84.253906 176.800781 83.570312 177.6875 C 82.882812 178.570312 82.234375 179.480469 81.625 180.421875 C 81.015625 181.359375 80.445312 182.320312 79.914062 183.308594 C 79.382812 184.292969 78.894531 185.296875 78.449219 186.324219 C 78 187.351562 77.597656 188.394531 77.238281 189.453125 C 76.875 190.511719 76.558594 191.585938 76.289062 192.671875 L 54.40625 280.21875 C 54.28125 280.714844 54.183594 281.21875 54.117188 281.722656 C 54.050781 282.230469 54.011719 282.738281 54.003906 283.25 C 53.992188 283.761719 54.011719 284.273438 54.0625 284.78125 C 54.109375 285.289062 54.1875 285.796875 54.292969 286.296875 C 54.398438 286.796875 54.53125 287.289062 54.695312 287.773438 C 54.855469 288.257812 55.046875 288.734375 55.261719 289.195312 C 55.476562 289.660156 55.71875 290.109375 55.984375 290.546875 C 56.253906 290.984375 56.542969 291.402344 56.859375 291.804688 C 57.171875 292.207031 57.507812 292.59375 57.867188 292.957031 C 58.226562 293.324219 58.601562 293.664062 59 293.988281 C 59.398438 294.308594 59.8125 294.609375 60.242188 294.882812 C 60.675781 295.15625 61.121094 295.40625 61.578125 295.632812 C 62.039062 295.855469 62.507812 296.054688 62.992188 296.226562 C 63.472656 296.394531 63.964844 296.539062 64.460938 296.652344 C 64.960938 296.769531 65.460938 296.855469 65.972656 296.914062 C 66.480469 296.972656 66.988281 297 67.5 297 L 108 297 L 108 432 L 94.5 432 C 93.171875 432 91.851562 432.066406 90.53125 432.195312 C 89.210938 432.324219 87.898438 432.519531 86.597656 432.777344 C 85.296875 433.035156 84.011719 433.359375 82.742188 433.742188 C 81.472656 434.128906 80.226562 434.574219 79 435.082031 C 77.777344 435.589844 76.578125 436.15625 75.410156 436.78125 C 74.238281 437.40625 73.101562 438.089844 72 438.824219 C 70.898438 439.5625 69.832031 440.351562 68.808594 441.191406 C 67.78125 442.035156 66.800781 442.925781 65.863281 443.863281 C 64.925781 444.800781 64.035156 445.78125 63.191406 446.808594 C 62.351562 447.832031 61.5625 448.898438 60.824219 450 C 60.089844 451.101562 59.40625 452.238281 58.78125 453.410156 C 58.15625 454.578125 57.589844 455.777344 57.082031 457 C 56.574219 458.226562 56.128906 459.472656 55.742188 460.742188 C 55.359375 462.011719 55.035156 463.296875 54.777344 464.597656 C 54.519531 465.898438 54.324219 467.210938 54.195312 468.53125 C 54.066406 469.851562 54 471.171875 54 472.5 L 54 540 L 40.5 540 C 39.171875 540 37.851562 540.066406 36.53125 540.195312 C 35.210938 540.324219 33.898438 540.519531 32.597656 540.777344 C 31.296875 541.035156 30.011719 541.359375 28.742188 541.742188 C 27.472656 542.128906 26.226562 542.574219 25 543.082031 C 23.777344 543.589844 22.578125 544.15625 21.410156 544.78125 C 20.238281 545.40625 19.101562 546.089844 18 546.824219 C 16.898438 547.5625 15.832031 548.351562 14.808594 549.191406 C 13.78125 550.035156 12.800781 550.925781 11.863281 551.863281 C 10.925781 552.800781 10.035156 553.78125 9.191406 554.808594 C 8.351562 555.832031 7.5625 556.898438 6.824219 558 C 6.089844 559.101562 5.40625 560.238281 4.78125 561.410156 C 4.15625 562.578125 3.589844 563.777344 3.082031 565 C 2.574219 566.226562 2.128906 567.472656 1.742188 568.742188 C 1.359375 570.011719 1.035156 571.296875 0.777344 572.597656 C 0.519531 573.898438 0.324219 575.210938 0.195312 576.53125 C 0.0664062 577.851562 0 579.171875 0 580.5 L 0 715.5 C 0 716.386719 0.0859375 717.265625 0.257812 718.132812 C 0.433594 719.003906 0.6875 719.847656 1.027344 720.667969 C 1.367188 721.484375 1.78125 722.261719 2.273438 723 C 2.769531 723.738281 3.328125 724.417969 3.953125 725.046875 C 4.582031 725.671875 5.261719 726.230469 6 726.726562 C 6.738281 727.21875 7.515625 727.632812 8.332031 727.972656 C 9.152344 728.3125 9.996094 728.566406 10.867188 728.742188 C 11.734375 728.914062 12.613281 729 13.5 729 L 94.5 729 C 95.386719 729 96.265625 728.914062 97.132812 728.742188 C 98.003906 728.566406 98.847656 728.3125 99.667969 727.972656 C 100.484375 727.632812 101.261719 727.21875 102 726.726562 C 102.738281 726.230469 103.417969 725.671875 104.046875 725.046875 C 104.671875 724.417969 105.230469 723.738281 105.726562 723 C 106.21875 722.261719 106.632812 721.484375 106.972656 720.667969 C 107.3125 719.847656 107.566406 719.003906 107.742188 718.132812 C 107.914062 717.265625 108 716.386719 108 715.5 L 108 702 L 432 702 L 432 715.5 C 432 716.386719 432.085938 717.265625 432.257812 718.132812 C 432.433594 719.003906 432.6875 719.847656 433.027344 720.667969 C 433.367188 721.484375 433.78125 722.261719 434.273438 723 C 434.769531 723.738281 435.328125 724.417969 435.953125 725.046875 C 436.582031 725.671875 437.261719 726.230469 438 726.726562 C 438.738281 727.21875 439.515625 727.632812 440.332031 727.972656 C 441.152344 728.3125 441.996094 728.566406 442.867188 728.742188 C 443.734375 728.914062 444.613281 729 445.5 729 L 796.5 729 C 797.386719 729 798.265625 728.914062 799.132812 728.742188 C 800.003906 728.566406 800.847656 728.3125 801.667969 727.972656 C 802.484375 727.632812 803.261719 727.21875 804 726.726562 C 804.738281 726.230469 805.417969 725.671875 806.046875 725.046875 C 806.671875 724.417969 807.230469 723.738281 807.726562 723 C 808.21875 722.261719 808.632812 721.484375 808.972656 720.667969 C 809.3125 719.847656 809.566406 719.003906 809.742188 718.132812 C 809.914062 717.265625 810 716.386719 810 715.5 L 810 94.5 C 810 93.613281 809.914062 92.734375 809.742188 91.867188 C 809.566406 90.996094 809.3125 90.152344 808.972656 89.332031 C 808.632812 88.515625 808.21875 87.738281 807.726562 87 C 807.230469 86.261719 806.671875 85.582031 806.046875 84.953125 C 805.417969 84.328125 804.738281 83.769531 804 83.273438 C 803.261719 82.78125 802.484375 82.367188 801.667969 82.027344 C 800.847656 81.6875 800.003906 81.433594 799.132812 81.257812 C 798.265625 81.085938 797.386719 81 796.5 81 Z M 102.476562 199.234375 C 102.660156 198.507812 102.898438 197.800781 103.199219 197.113281 C 103.496094 196.429688 103.847656 195.773438 104.257812 195.144531 C 104.664062 194.515625 105.121094 193.929688 105.625 193.375 C 106.132812 192.824219 106.679688 192.320312 107.269531 191.859375 C 107.859375 191.398438 108.484375 190.988281 109.140625 190.632812 C 109.800781 190.277344 110.480469 189.976562 111.1875 189.734375 C 111.898438 189.488281 112.621094 189.308594 113.359375 189.183594 C 114.09375 189.0625 114.839844 189 115.585938 189 L 127.414062 189 C 128.160156 189 128.90625 189.0625 129.640625 189.183594 C 130.378906 189.308594 131.101562 189.488281 131.8125 189.734375 C 132.519531 189.976562 133.199219 190.277344 133.859375 190.632812 C 134.515625 190.988281 135.140625 191.398438 135.730469 191.859375 C 136.320312 192.320312 136.867188 192.824219 137.375 193.375 C 137.878906 193.929688 138.335938 194.515625 138.742188 195.144531 C 139.152344 195.773438 139.503906 196.429688 139.800781 197.113281 C 140.101562 197.800781 140.339844 198.507812 140.523438 199.234375 L 158.21875 270 L 84.78125 270 Z M 783 108 L 783 567 L 634.5 567 L 634.5 108 Z M 607.5 108 L 607.5 702 L 540 702 L 540 580.5 C 540 579.171875 539.933594 577.851562 539.804688 576.53125 C 539.675781 575.210938 539.480469 573.898438 539.222656 572.597656 C 538.964844 571.296875 538.640625 570.011719 538.257812 568.742188 C 537.871094 567.472656 537.425781 566.226562 536.917969 565 C 536.410156 563.777344 535.84375 562.578125 535.21875 561.410156 C 534.59375 560.238281 533.910156 559.101562 533.175781 558 C 532.4375 556.894531 531.648438 555.832031 530.808594 554.808594 C 529.964844 553.78125 529.074219 552.800781 528.136719 551.863281 C 527.199219 550.925781 526.21875 550.035156 525.191406 549.191406 C 524.167969 548.351562 523.101562 547.5625 522 546.824219 C 520.898438 546.089844 519.761719 545.40625 518.589844 544.78125 C 517.421875 544.15625 516.222656 543.589844 515 543.082031 C 513.773438 542.574219 512.527344 542.128906 511.257812 541.742188 C 509.988281 541.359375 508.703125 541.035156 507.402344 540.777344 C 506.101562 540.519531 504.789062 540.324219 503.46875 540.195312 C 502.148438 540.066406 500.828125 540 499.5 540 L 486 540 L 486 472.5 C 485.992188 470.425781 485.824219 468.363281 485.5 466.316406 C 485.171875 464.265625 484.695312 462.253906 484.058594 460.28125 C 483.425781 458.304688 482.644531 456.390625 481.714844 454.535156 C 480.785156 452.679688 479.722656 450.90625 478.519531 449.214844 C 477.320312 447.523438 475.996094 445.9375 474.550781 444.449219 C 473.105469 442.960938 471.554688 441.589844 469.898438 440.339844 C 468.242188 439.09375 466.5 437.976562 464.675781 436.996094 C 462.847656 436.011719 460.957031 435.175781 459 434.484375 L 459 108 Z M 432 580.5 L 432 594 L 283.5 594 L 283.5 459 L 445.5 459 C 446.386719 459 447.265625 459.085938 448.132812 459.257812 C 449.003906 459.433594 449.847656 459.6875 450.667969 460.027344 C 451.484375 460.367188 452.261719 460.78125 453 461.273438 C 453.738281 461.765625 454.417969 462.328125 455.046875 462.953125 C 455.671875 463.582031 456.230469 464.261719 456.726562 465 C 457.21875 465.738281 457.632812 466.515625 457.972656 467.332031 C 458.3125 468.152344 458.566406 468.996094 458.742188 469.867188 C 458.914062 470.734375 459 471.613281 459 472.5 L 459 542.484375 C 457.042969 543.175781 455.152344 544.011719 453.324219 544.996094 C 451.5 545.976562 449.757812 547.09375 448.101562 548.339844 C 446.445312 549.589844 444.894531 550.960938 443.449219 552.449219 C 442.003906 553.9375 440.679688 555.523438 439.480469 557.214844 C 438.277344 558.90625 437.214844 560.679688 436.285156 562.535156 C 435.355469 564.390625 434.574219 566.304688 433.941406 568.28125 C 433.304688 570.253906 432.828125 572.265625 432.5 574.316406 C 432.175781 576.363281 432.007812 578.425781 432 580.5 Z M 94.5 459 L 256.5 459 L 256.5 594 L 108 594 L 108 580.5 C 107.992188 578.425781 107.824219 576.363281 107.5 574.316406 C 107.171875 572.265625 106.695312 570.253906 106.058594 568.28125 C 105.425781 566.304688 104.644531 564.390625 103.714844 562.535156 C 102.785156 560.679688 101.722656 558.90625 100.519531 557.214844 C 99.320312 555.523438 97.996094 553.9375 96.550781 552.449219 C 95.105469 550.960938 93.554688 549.589844 91.898438 548.339844 C 90.242188 547.09375 88.5 545.976562 86.675781 544.996094 C 84.847656 544.011719 82.957031 543.175781 81 542.484375 L 81 472.5 C 81 471.613281 81.085938 470.734375 81.257812 469.867188 C 81.433594 468.996094 81.6875 468.152344 82.027344 467.332031 C 82.367188 466.515625 82.78125 465.738281 83.273438 465 C 83.769531 464.261719 84.328125 463.582031 84.953125 462.953125 C 85.582031 462.328125 86.261719 461.765625 87 461.273438 C 87.738281 460.78125 88.515625 460.367188 89.332031 460.027344 C 90.152344 459.6875 90.996094 459.433594 91.867188 459.257812 C 92.734375 459.085938 93.613281 459 94.5 459 Z M 81 702 L 27 702 L 27 580.5 C 27 579.613281 27.085938 578.734375 27.257812 577.867188 C 27.433594 576.996094 27.6875 576.152344 28.027344 575.332031 C 28.367188 574.515625 28.78125 573.738281 29.273438 573 C 29.769531 572.261719 30.328125 571.582031 30.953125 570.953125 C 31.582031 570.328125 32.261719 569.769531 33 569.273438 C 33.738281 568.78125 34.515625 568.367188 35.332031 568.027344 C 36.152344 567.6875 36.996094 567.433594 37.867188 567.257812 C 38.734375 567.085938 39.613281 567 40.5 567 L 67.5 567 C 68.386719 567 69.265625 567.085938 70.132812 567.257812 C 71.003906 567.433594 71.847656 567.6875 72.667969 568.027344 C 73.484375 568.367188 74.261719 568.78125 75 569.273438 C 75.738281 569.765625 76.417969 570.328125 77.046875 570.953125 C 77.671875 571.582031 78.230469 572.261719 78.726562 573 C 79.21875 573.738281 79.632812 574.515625 79.972656 575.332031 C 80.3125 576.152344 80.566406 576.996094 80.742188 577.867188 C 80.914062 578.734375 81 579.613281 81 580.5 Z M 108 675 L 108 621 L 432 621 L 432 675 Z M 459 702 L 459 580.5 C 459 579.613281 459.085938 578.734375 459.257812 577.867188 C 459.433594 576.996094 459.6875 576.152344 460.027344 575.332031 C 460.367188 574.515625 460.78125 573.738281 461.273438 573 C 461.765625 572.261719 462.328125 571.582031 462.953125 570.953125 C 463.582031 570.328125 464.261719 569.769531 465 569.273438 C 465.738281 568.78125 466.515625 568.367188 467.332031 568.027344 C 468.152344 567.6875 468.996094 567.433594 469.867188 567.257812 C 470.734375 567.085938 471.613281 567 472.5 567 L 499.5 567 C 500.386719 567 501.265625 567.085938 502.132812 567.257812 C 503.003906 567.433594 503.847656 567.6875 504.667969 568.027344 C 505.484375 568.367188 506.261719 568.78125 507 569.273438 C 507.738281 569.765625 508.417969 570.328125 509.046875 570.953125 C 509.671875 571.582031 510.230469 572.261719 510.726562 573 C 511.21875 573.738281 511.632812 574.515625 511.972656 575.332031 C 512.3125 576.152344 512.566406 576.996094 512.742188 577.867188 C 512.914062 578.734375 513 579.613281 513 580.5 L 513 702 Z M 783 702 L 634.5 702 L 634.5 594 L 783 594 Z M 783 702 " fill-opacity="1" fill-rule="nonzero"/><path fill="#c99f4d" d="M 675 405 C 675.886719 405 676.765625 404.914062 677.632812 404.742188 C 678.503906 404.566406 679.347656 404.3125 680.167969 403.972656 C 680.984375 403.632812 681.761719 403.21875 682.5 402.726562 C 683.238281 402.230469 683.917969 401.671875 684.546875 401.046875 C 685.171875 400.417969 685.730469 399.738281 686.226562 399 C 686.71875 398.261719 687.132812 397.484375 687.472656 396.667969 C 687.8125 395.847656 688.066406 395.003906 688.242188 394.132812 C 688.414062 393.265625 688.5 392.386719 688.5 391.5 L 688.5 364.5 C 688.5 363.613281 688.414062 362.734375 688.242188 361.867188 C 688.066406 360.996094 687.8125 360.152344 687.472656 359.332031 C 687.132812 358.515625 686.71875 357.738281 686.226562 357 C 685.730469 356.261719 685.171875 355.582031 684.546875 354.953125 C 683.917969 354.328125 683.238281 353.769531 682.5 353.273438 C 681.761719 352.78125 680.984375 352.367188 680.167969 352.027344 C 679.347656 351.6875 678.503906 351.433594 677.632812 351.257812 C 676.765625 351.085938 675.886719 351 675 351 C 674.113281 351 673.234375 351.085938 672.367188 351.257812 C 671.496094 351.433594 670.652344 351.6875 669.832031 352.027344 C 669.015625 352.367188 668.238281 352.78125 667.5 353.273438 C 666.761719 353.769531 666.082031 354.328125 665.453125 354.953125 C 664.828125 355.582031 664.265625 356.261719 663.773438 357 C 663.28125 357.738281 662.867188 358.515625 662.527344 359.332031 C 662.1875 360.152344 661.933594 360.996094 661.757812 361.867188 C 661.585938 362.734375 661.5 363.613281 661.5 364.5 L 661.5 391.5 C 661.5 392.386719 661.585938 393.265625 661.757812 394.132812 C 661.933594 395.003906 662.1875 395.847656 662.527344 396.667969 C 662.867188 397.484375 663.28125 398.261719 663.773438 399 C 664.265625 399.738281 664.828125 400.417969 665.453125 401.046875 C 666.082031 401.671875 666.761719 402.230469 667.5 402.726562 C 668.238281 403.21875 669.015625 403.632812 669.832031 403.972656 C 670.652344 404.3125 671.496094 404.566406 672.367188 404.742188 C 673.234375 404.914062 674.113281 405 675 405 Z M 675 405 " fill-opacity="1" fill-rule="nonzero"/><path fill="#c99f4d" d="M 567 405 C 567.886719 405 568.765625 404.914062 569.632812 404.742188 C 570.503906 404.566406 571.347656 404.3125 572.167969 403.972656 C 572.984375 403.632812 573.761719 403.21875 574.5 402.726562 C 575.238281 402.230469 575.917969 401.671875 576.546875 401.046875 C 577.171875 400.417969 577.730469 399.738281 578.226562 399 C 578.71875 398.261719 579.132812 397.484375 579.472656 396.667969 C 579.8125 395.847656 580.066406 395.003906 580.242188 394.132812 C 580.414062 393.265625 580.5 392.386719 580.5 391.5 L 580.5 364.5 C 580.5 363.613281 580.414062 362.734375 580.242188 361.867188 C 580.066406 360.996094 579.8125 360.152344 579.472656 359.332031 C 579.132812 358.515625 578.71875 357.738281 578.226562 357 C 577.730469 356.261719 577.171875 355.582031 576.546875 354.953125 C 575.917969 354.328125 575.238281 353.769531 574.5 353.273438 C 573.761719 352.78125 572.984375 352.367188 572.167969 352.027344 C 571.347656 351.6875 570.503906 351.433594 569.632812 351.257812 C 568.765625 351.085938 567.886719 351 567 351 C 566.113281 351 565.234375 351.085938 564.367188 351.257812 C 563.496094 351.433594 562.652344 351.6875 561.832031 352.027344 C 561.015625 352.367188 560.238281 352.78125 559.5 353.273438 C 558.761719 353.769531 558.082031 354.328125 557.453125 354.953125 C 556.828125 355.582031 556.265625 356.261719 555.773438 357 C 555.28125 357.738281 554.867188 358.515625 554.527344 359.332031 C 554.1875 360.152344 553.933594 360.996094 553.757812 361.867188 C 553.585938 362.734375 553.5 363.613281 553.5 364.5 L 553.5 391.5 C 553.5 392.386719 553.585938 393.265625 553.757812 394.132812 C 553.933594 395.003906 554.1875 395.847656 554.527344 396.667969 C 554.867188 397.484375 555.28125 398.261719 555.773438 399 C 556.265625 399.738281 556.828125 400.417969 557.453125 401.046875 C 558.082031 401.671875 558.761719 402.230469 559.5 402.726562 C 560.238281 403.21875 561.015625 403.632812 561.832031 403.972656 C 562.652344 404.3125 563.496094 404.566406 564.367188 404.742188 C 565.234375 404.914062 566.113281 405 567 405 Z M 567 405 " fill-opacity="1" fill-rule="nonzero"/><path fill="#c99f4d" d="M 695.25 661.5 L 722.25 661.5 C 723.136719 661.5 724.015625 661.414062 724.882812 661.242188 C 725.753906 661.066406 726.597656 660.8125 727.417969 660.472656 C 728.234375 660.132812 729.011719 659.71875 729.75 659.226562 C 730.488281 658.730469 731.167969 658.171875 731.796875 657.546875 C 732.421875 656.917969 732.980469 656.238281 733.476562 655.5 C 733.96875 654.761719 734.382812 653.984375 734.722656 653.167969 C 735.0625 652.347656 735.316406 651.503906 735.492188 650.632812 C 735.664062 649.765625 735.75 648.886719 735.75 648 C 735.75 647.113281 735.664062 646.234375 735.492188 645.367188 C 735.316406 644.496094 735.0625 643.652344 734.722656 642.832031 C 734.382812 642.015625 733.96875 641.238281 733.476562 640.5 C 732.980469 639.761719 732.421875 639.082031 731.796875 638.453125 C 731.167969 637.828125 730.488281 637.265625 729.75 636.773438 C 729.011719 636.28125 728.234375 635.867188 727.417969 635.527344 C 726.597656 635.1875 725.753906 634.933594 724.882812 634.757812 C 724.015625 634.585938 723.136719 634.5 722.25 634.5 L 695.25 634.5 C 694.363281 634.5 693.484375 634.585938 692.617188 634.757812 C 691.746094 634.933594 690.902344 635.1875 690.082031 635.527344 C 689.265625 635.867188 688.488281 636.28125 687.75 636.773438 C 687.011719 637.265625 686.332031 637.828125 685.703125 638.453125 C 685.078125 639.082031 684.515625 639.761719 684.023438 640.5 C 683.53125 641.238281 683.117188 642.015625 682.777344 642.832031 C 682.4375 643.652344 682.183594 644.496094 682.007812 645.367188 C 681.835938 646.234375 681.75 647.113281 681.75 648 C 681.75 648.886719 681.835938 649.765625 682.007812 650.632812 C 682.183594 651.503906 682.4375 652.347656 682.777344 653.167969 C 683.117188 653.984375 683.53125 654.761719 684.023438 655.5 C 684.519531 656.238281 685.078125 656.917969 685.703125 657.546875 C 686.332031 658.171875 687.011719 658.730469 687.75 659.226562 C 688.488281 659.71875 689.265625 660.132812 690.082031 660.472656 C 690.902344 660.8125 691.746094 661.066406 692.617188 661.242188 C 693.484375 661.414062 694.363281 661.5 695.25 661.5 Z M 695.25 661.5 " fill-opacity="1" fill-rule="nonzero"/></svg>