<svg xmlns="http://www.w3.org/2000/svg" xmlns:xlink="http://www.w3.org/1999/xlink" width="1080" zoomAndPan="magnify" viewBox="0 0 810 809.999993" height="1080" preserveAspectRatio="xMidYMid meet" version="1.0"><defs><clipPath id="6afda21abb"><path d="M 1 1 L 809 1 L 809 809 L 1 809 Z M 1 1 " clip-rule="nonzero"/></clipPath><clipPath id="5a07323c59"><path d="M 1.0625 405 L 405.171875 0.886719 L 809.285156 405 L 405.171875 809.109375 Z M 1.0625 405 " clip-rule="nonzero"/></clipPath><clipPath id="bc18cade7d"><path d="M 1.273438 405 L 405 1.273438 L 808.726562 405 L 405 808.726562 Z M 1.273438 405 " clip-rule="nonzero"/></clipPath><clipPath id="9dfc595bbf"><path d="M 0 405 L 405.171875 -0.171875 L 810.34375 405 L 405.171875 810.171875 Z M 0 405 " clip-rule="nonzero"/></clipPath><clipPath id="5f6270c92e"><path d="M 0 405 L 405.171875 -0.171875 L 810.34375 405 L 405.171875 810.171875 Z M 0 405 " clip-rule="nonzero"/></clipPath><clipPath id="5ba9f4ceee"><path d="M 0 405 L 405.171875 -0.171875 L 810.339844 405 L 405.171875 810.167969 Z M 0 405 " clip-rule="nonzero"/></clipPath><clipPath id="6f4e4aafdc"><path d="M 0 405 L 405 0 L 809.996094 405 L 405 809.996094 Z M 0 405 " clip-rule="nonzero"/></clipPath><clipPath id="884d7c1777"><path d="M 118.117188 297 L 691.867188 297 L 691.867188 498 L 118.117188 498 Z M 118.117188 297 " clip-rule="nonzero"/></clipPath><clipPath id="db952222b9"><path d="M 369 558 L 442 558 L 442 657.683594 L 369 657.683594 Z M 369 558 " clip-rule="nonzero"/></clipPath><clipPath id="71c4516b49"><path d="M 374 152.183594 L 447 152.183594 L 447 252 L 374 252 Z M 374 152.183594 " clip-rule="nonzero"/></clipPath></defs><g clip-path="url(#6afda21abb)"><g clip-path="url(#5a07323c59)"><g clip-path="url(#bc18cade7d)"><g clip-path="url(#9dfc595bbf)"><path fill="#bf9c53" d="M 809.996094 405 L 405 809.996094 L 0 405 L 405 0 Z M 405 804.847656 L 804.847656 405 L 405 5.152344 L 5.152344 405 Z M 405 804.847656 " fill-opacity="1" fill-rule="nonzero"/></g></g></g></g><g clip-path="url(#5f6270c92e)"><g clip-path="url(#5ba9f4ceee)"><g clip-path="url(#6f4e4aafdc)"><path stroke-linecap="butt" transform="matrix(0.53033, -0.53033, 0.53033, 0.53033, 0.000539257, 404.998704)" fill="none" stroke-linejoin="miter" d="M -0.00173065 0.000713818 L 0.0019522 763.67239 L 763.669946 763.67239 L 763.673628 0.000713818 L -0.00173065 0.000713818 " stroke="#bf9c53" stroke-width="20" stroke-opacity="1" stroke-miterlimit="4"/></g></g></g><g clip-path="url(#884d7c1777)"><path fill="#bf9c53" d="M 687.503906 392.023438 L 407.039062 297.34375 C 403.6875 296.210938 400.054688 298.011719 398.921875 301.363281 C 397.789062 304.710938 399.589844 308.34375 402.941406 309.476562 L 665.269531 398.03125 L 404.988281 484.285156 L 144.695312 398.03125 L 284.664062 350.710938 C 288.015625 349.578125 289.8125 345.945312 288.675781 342.59375 C 287.542969 339.242188 283.910156 337.445312 280.558594 338.578125 L 122.46875 392.027344 C 119.863281 392.90625 118.109375 395.359375 118.117188 398.113281 C 118.125 400.863281 119.894531 403.304688 122.507812 404.171875 L 402.972656 497.109375 C 403.625 497.324219 404.308594 497.433594 404.988281 497.433594 C 405.667969 497.433594 406.347656 497.324219 407.003906 497.109375 L 687.46875 404.171875 C 690.085938 403.304688 691.851562 400.863281 691.859375 398.113281 C 691.867188 395.355469 690.113281 392.902344 687.503906 392.023438 Z M 687.503906 392.023438 " fill-opacity="1" fill-rule="nonzero"/></g><path fill="#bf9c53" d="M 298.09375 425.203125 C 299.0625 425.203125 300.046875 424.984375 300.96875 424.519531 L 337.214844 406.273438 L 403.707031 408.339844 L 446.214844 424.652344 C 446.949219 424.933594 447.726562 425.078125 448.507812 425.078125 C 449.132812 425.078125 449.761719 424.984375 450.367188 424.800781 L 512.863281 405.824219 C 516.246094 404.800781 518.15625 401.222656 517.128906 397.839844 C 516.101562 394.457031 512.527344 392.542969 509.144531 393.570312 L 448.75 411.910156 L 420.097656 400.914062 L 439.875 389.9375 C 439.90625 389.917969 439.941406 389.902344 439.972656 389.882812 L 460.976562 378.222656 C 464.070312 376.507812 465.183594 372.609375 463.46875 369.515625 C 461.75 366.421875 457.855469 365.308594 454.761719 367.027344 L 440.15625 375.132812 C 431.484375 355.101562 414.949219 336.679688 414.167969 335.816406 C 412.957031 334.480469 411.234375 333.714844 409.429688 333.710938 C 409.425781 333.710938 409.421875 333.710938 409.414062 333.710938 C 407.617188 333.710938 405.898438 334.464844 404.683594 335.796875 C 403.800781 336.769531 384.898438 357.652344 376.933594 379.378906 L 363.523438 372.0625 C 362.582031 371.550781 361.527344 371.28125 360.457031 371.28125 L 302.136719 371.28125 C 298.601562 371.28125 295.734375 374.148438 295.734375 377.683594 C 295.734375 381.222656 298.601562 384.089844 302.136719 384.089844 L 358.824219 384.089844 L 378.351562 394.738281 L 335.984375 393.421875 C 334.917969 393.390625 333.863281 393.621094 332.90625 394.101562 L 295.210938 413.078125 C 292.050781 414.667969 290.777344 418.519531 292.367188 421.679688 C 293.496094 423.914062 295.75 425.203125 298.09375 425.203125 Z M 409.398438 350.058594 C 414.890625 356.921875 423.832031 369.109375 428.894531 381.382812 L 404.960938 394.667969 L 388.324219 385.589844 C 392.808594 371.957031 403.257812 357.695312 409.398438 350.058594 Z M 409.398438 350.058594 " fill-opacity="1" fill-rule="nonzero"/><path fill="#bf9c53" d="M 404.355469 545.257812 C 424.207031 545.257812 440.359375 529.105469 440.359375 509.25 C 440.359375 505.714844 437.492188 502.847656 433.957031 502.847656 C 430.421875 502.847656 427.554688 505.714844 427.554688 509.25 C 427.554688 522.042969 417.144531 532.449219 404.355469 532.449219 C 391.5625 532.449219 381.15625 522.042969 381.15625 509.25 C 381.15625 505.714844 378.289062 502.847656 374.75 502.847656 C 371.214844 502.847656 368.347656 505.714844 368.347656 509.25 C 368.347656 529.105469 384.5 545.257812 404.355469 545.257812 Z M 404.355469 545.257812 " fill-opacity="1" fill-rule="nonzero"/><g clip-path="url(#db952222b9)"><path fill="#bf9c53" d="M 410.625 560.496094 C 409.414062 559.15625 407.691406 558.390625 405.886719 558.386719 C 405.882812 558.386719 405.878906 558.386719 405.871094 558.386719 C 404.074219 558.386719 402.355469 559.144531 401.140625 560.472656 C 400.824219 560.820312 393.320312 569.082031 385.734375 580.535156 C 375.207031 596.429688 369.867188 610.285156 369.867188 621.71875 C 369.867188 641.570312 386.019531 657.722656 405.875 657.722656 C 425.730469 657.722656 441.878906 641.570312 441.878906 621.71875 C 441.878906 610.40625 436.542969 596.589844 426.019531 580.652344 C 418.4375 569.171875 410.9375 560.84375 410.625 560.496094 Z M 405.875 644.917969 C 393.082031 644.917969 382.675781 634.507812 382.675781 621.71875 C 382.675781 613.003906 387.390625 601.261719 396.3125 587.757812 C 399.742188 582.570312 403.203125 578.03125 405.855469 574.730469 C 408.519531 578.058594 411.988281 582.632812 415.425781 587.855469 C 424.355469 601.40625 429.074219 613.113281 429.074219 621.714844 C 429.074219 634.511719 418.664062 644.917969 405.875 644.917969 Z M 405.875 644.917969 " fill-opacity="1" fill-rule="nonzero"/></g><path fill="#bf9c53" d="M 343.125 346.515625 C 362.980469 346.515625 379.132812 330.363281 379.132812 310.507812 C 379.132812 299.199219 373.796875 285.382812 363.269531 269.445312 C 355.6875 257.964844 348.191406 249.636719 347.875 249.289062 C 346.664062 247.949219 344.945312 247.183594 343.136719 247.179688 C 343.132812 247.179688 343.128906 247.179688 343.125 247.179688 C 341.324219 247.179688 339.605469 247.9375 338.394531 249.265625 C 338.078125 249.613281 330.570312 257.875 322.984375 269.328125 C 312.457031 285.222656 307.121094 299.078125 307.121094 310.507812 C 307.121094 330.363281 323.269531 346.515625 343.125 346.515625 Z M 333.566406 276.550781 C 336.992188 271.363281 340.453125 266.824219 343.109375 263.523438 C 345.769531 266.847656 349.242188 271.425781 352.679688 276.648438 C 361.605469 290.199219 366.324219 301.90625 366.324219 310.507812 C 366.324219 323.300781 355.917969 333.710938 343.125 333.710938 C 330.332031 333.710938 319.925781 323.300781 319.925781 310.507812 C 319.925781 301.796875 324.644531 290.054688 333.566406 276.550781 Z M 333.566406 276.550781 " fill-opacity="1" fill-rule="nonzero"/><path fill="#bf9c53" d="M 494.175781 312.105469 C 514.03125 312.105469 530.183594 295.953125 530.183594 276.101562 C 530.183594 264.789062 524.847656 250.972656 514.320312 235.035156 C 506.738281 223.554688 499.242188 215.226562 498.925781 214.878906 C 497.714844 213.539062 495.996094 212.773438 494.1875 212.769531 C 494.183594 212.769531 494.179688 212.769531 494.175781 212.769531 C 492.375 212.769531 490.65625 213.527344 489.445312 214.855469 C 489.128906 215.203125 481.621094 223.464844 474.035156 234.921875 C 463.507812 250.8125 458.171875 264.667969 458.171875 276.101562 C 458.171875 295.953125 474.320312 312.105469 494.175781 312.105469 Z M 484.613281 242.140625 C 488.042969 236.953125 491.5 232.414062 494.15625 229.113281 C 496.820312 232.441406 500.289062 237.015625 503.726562 242.238281 C 512.652344 255.789062 517.375 267.5 517.375 276.101562 C 517.375 288.890625 506.964844 299.300781 494.175781 299.300781 C 481.382812 299.300781 470.976562 288.890625 470.976562 276.101562 C 470.976562 267.386719 475.691406 255.644531 484.613281 242.140625 Z M 484.613281 242.140625 " fill-opacity="1" fill-rule="nonzero"/><g clip-path="url(#71c4516b49)"><path fill="#bf9c53" d="M 410.679688 251.636719 C 430.535156 251.636719 446.6875 235.484375 446.6875 215.628906 C 446.6875 204.320312 441.351562 190.503906 430.824219 174.5625 C 423.242188 163.082031 415.746094 154.753906 415.429688 154.40625 C 414.21875 153.066406 412.5 152.300781 410.695312 152.296875 C 410.6875 152.296875 410.683594 152.296875 410.679688 152.296875 C 408.878906 152.296875 407.160156 153.054688 405.949219 154.386719 C 405.632812 154.730469 398.125 162.996094 390.539062 174.449219 C 380.011719 190.34375 374.675781 204.195312 374.675781 215.628906 C 374.675781 235.480469 390.824219 251.636719 410.679688 251.636719 Z M 401.117188 181.671875 C 404.546875 176.480469 408.007812 171.941406 410.660156 168.644531 C 413.324219 171.96875 416.792969 176.546875 420.230469 181.765625 C 429.160156 195.316406 433.878906 207.027344 433.878906 215.628906 C 433.878906 228.421875 423.46875 238.828125 410.679688 238.828125 C 397.886719 238.828125 387.480469 228.421875 387.480469 215.628906 C 387.480469 206.917969 392.195312 195.171875 401.117188 181.671875 Z M 401.117188 181.671875 " fill-opacity="1" fill-rule="nonzero"/></g></svg>