<svg xmlns="http://www.w3.org/2000/svg" xmlns:xlink="http://www.w3.org/1999/xlink" width="1080" zoomAndPan="magnify" viewBox="0 0 810 809.999993" height="1080" preserveAspectRatio="xMidYMid meet" version="1.0"><defs><clipPath id="9244b5c77e"><path d="M 8 5 L 808 5 L 808 805 L 8 805 Z M 8 5 " clip-rule="nonzero"/></clipPath><clipPath id="c0ab19c46c"><path d="M 408.214844 0 L 813.386719 405.171875 L 408.214844 810.34375 L 3.042969 405.171875 Z M 408.214844 0 " clip-rule="nonzero"/></clipPath><clipPath id="ea3650f959"><path d="M 408.214844 0 L 813.386719 405.171875 L 408.214844 810.34375 L 3.042969 405.171875 Z M 408.214844 0 " clip-rule="nonzero"/></clipPath><clipPath id="9fc14f6ff5"><path d="M 4 1 L 810 1 L 810 809 L 4 809 Z M 4 1 " clip-rule="nonzero"/></clipPath><clipPath id="81a05efb77"><path d="M 408.214844 0 L 813.386719 405.171875 L 408.214844 810.34375 L 3.042969 405.171875 Z M 408.214844 0 " clip-rule="nonzero"/></clipPath><clipPath id="a892aaead6"><path d="M 408.214844 0 L 813.386719 405.171875 L 408.214844 810.34375 L 3.042969 405.171875 Z M 408.214844 0 " clip-rule="nonzero"/></clipPath><clipPath id="c1ca6ca3cd"><path d="M 116 254.203125 L 702.722656 254.203125 L 702.722656 555.703125 L 116 555.703125 Z M 116 254.203125 " clip-rule="nonzero"/></clipPath></defs><g clip-path="url(#9244b5c77e)"><g clip-path="url(#c0ab19c46c)"><g clip-path="url(#ea3650f959)"><path fill="#bf9c53" d="M 408.214844 5.402344 L 807.8125 405 L 408.214844 804.597656 L 8.617188 405 Z M 408.214844 5.402344 " fill-opacity="1" fill-rule="nonzero"/></g></g></g><g clip-path="url(#9fc14f6ff5)"><g clip-path="url(#81a05efb77)"><g clip-path="url(#a892aaead6)"><path fill="#bf9c53" d="M 405.515625 807.296875 L 5.914062 407.699219 C 4.402344 406.1875 4.402344 403.8125 5.914062 402.296875 L 405.515625 2.699219 C 407.027344 1.1875 409.402344 1.1875 410.914062 2.699219 L 810.511719 402.296875 C 812.023438 403.8125 812.023438 406.1875 810.511719 407.699219 L 410.914062 807.296875 C 409.402344 808.808594 407.027344 808.808594 405.515625 807.296875 Z M 14.015625 405 L 408.214844 799.195312 L 802.410156 405 L 408.214844 10.800781 Z M 14.015625 405 " fill-opacity="1" fill-rule="nonzero"/></g></g></g><g clip-path="url(#c1ca6ca3cd)"><path fill="#f7f7f7" d="M 674.324219 463.882812 L 490.441406 459.140625 C 480.425781 458.398438 470.730469 455.34375 461.710938 450.1875 C 423.160156 464.460938 318.601562 502.832031 258.484375 521.652344 C 246.734375 525.332031 238.238281 526.402344 232.253906 526.46875 C 229.828125 526.628906 227.378906 526.679688 224.917969 526.605469 C 202.40625 525.898438 181.457031 515.222656 166.136719 496.324219 C 150.574219 477.113281 142.863281 451.945312 144.621094 425.699219 C 147.695312 379.914062 183.828125 346.648438 223.710938 351.371094 C 262.070312 355.914062 289.882812 394.191406 287.019531 436.855469 C 284.679688 471.730469 258.089844 498.972656 226.863281 497.539062 C 194.648438 496.070312 169.675781 464.785156 172.152344 427.851562 C 174.078125 399.171875 196.585938 378.007812 221.75 380.621094 C 246.296875 383.167969 264.332031 407.507812 262.488281 434.933594 C 261.179688 454.472656 246.195312 469.527344 228.816406 468.484375 C 211.132812 467.414062 197.613281 450.125 198.96875 429.957031 C 199.773438 417.929688 209.160156 408.921875 219.785156 409.867188 C 230.296875 410.804688 238.128906 421.160156 237.332031 432.960938 C 237.078125 436.785156 234.140625 439.675781 230.769531 439.421875 C 227.382812 439.167969 224.835938 435.84375 225.09375 432 C 225.378906 427.800781 222.578125 424.136719 218.847656 423.832031 C 215.101562 423.523438 211.8125 426.710938 211.523438 430.941406 C 210.699219 443.257812 218.921875 453.878906 229.75 454.605469 C 240.460938 455.328125 249.75 446.078125 250.5625 433.996094 C 251.902344 413.980469 238.6875 396.3125 220.808594 394.582031 C 202.609375 392.820312 186.433594 408.1875 185.042969 428.867188 C 183.105469 457.738281 202.550781 482.335938 227.796875 483.667969 C 252.429688 484.964844 273.535156 463.542969 275.386719 435.941406 C 277.765625 400.503906 254.570312 368.875 222.773438 365.335938 C 189.941406 361.679688 160.378906 389.175781 157.855469 426.734375 C 154.777344 472.601562 185.9375 511.207031 225.847656 512.730469 C 264.234375 514.195312 296.730469 480.574219 299.601562 437.839844 C 302.988281 387.363281 270.226562 341.820312 224.734375 336.085938 C 177.085938 330.082031 133.625 369.648438 129.941406 424.546875 C 125.691406 487.863281 169.085938 540.488281 223.898438 541.785156 L 470.28125 542.832031 Z M 702.335938 460.359375 C 702.164062 462.957031 700.75 465.039062 698.992188 465.542969 C 698.988281 465.542969 698.984375 465.542969 698.980469 465.546875 L 470.664062 555.539062 C 470.261719 555.703125 469.855469 555.695312 469.496094 555.574219 C 469.46875 555.574219 469.449219 555.574219 469.421875 555.574219 L 222.964844 555.667969 C 193.371094 555.164062 165.644531 541.511719 145.238281 516.820312 C 124.390625 491.597656 114.011719 458.300781 116.34375 423.480469 C 117.804688 401.753906 125.894531 382.59375 137.195312 365.679688 C 138.171875 364.230469 147.644531 351.167969 160.242188 341.359375 C 174.019531 330.632812 191.199219 323.066406 196.980469 320.816406 C 287.617188 285.53125 472.59375 255.375 476.308594 254.90625 C 482.226562 254.160156 488.257812 254.355469 494.296875 255.511719 C 513.558594 259.207031 530.621094 272.285156 542.527344 292.15625 C 554.257812 311.71875 559.742188 335.808594 558.101562 360.203125 C 556.683594 381.339844 549.253906 400.515625 537.050781 414.339844 C 526.539062 426.25 496.878906 440.9375 477.636719 444.269531 C 482.035156 445.734375 486.582031 446.6875 491.253906 447.066406 L 698.726562 454.441406 C 700.929688 454.625 702.542969 457.269531 702.335938 460.359375 " fill-opacity="1" fill-rule="nonzero"/></g></svg>