<svg xmlns="http://www.w3.org/2000/svg" xmlns:xlink="http://www.w3.org/1999/xlink" width="1080" zoomAndPan="magnify" viewBox="0 0 810 809.999993" height="1080" preserveAspectRatio="xMidYMid meet" version="1.0"><defs><clipPath id="f0b545cd31"><path d="M 105.003906 330 L 256 330 L 256 480 L 105.003906 480 Z M 105.003906 330 " clip-rule="nonzero"/></clipPath><clipPath id="ff52d9a2f8"><path d="M 1 1 L 809 1 L 809 809 L 1 809 Z M 1 1 " clip-rule="nonzero"/></clipPath><clipPath id="424bf2a22f"><path d="M 1.0625 405 L 405.171875 0.886719 L 809.285156 405 L 405.171875 809.109375 Z M 1.0625 405 " clip-rule="nonzero"/></clipPath><clipPath id="6839cace32"><path d="M 1.273438 405 L 405 1.273438 L 808.726562 405 L 405 808.726562 Z M 1.273438 405 " clip-rule="nonzero"/></clipPath><clipPath id="2615df7625"><path d="M 0 405 L 405.171875 -0.171875 L 810.34375 405 L 405.171875 810.171875 Z M 0 405 " clip-rule="nonzero"/></clipPath><clipPath id="b2e167e7fc"><path d="M 0 405 L 405.171875 -0.171875 L 810.34375 405 L 405.171875 810.171875 Z M 0 405 " clip-rule="nonzero"/></clipPath><clipPath id="e9632f5a6b"><path d="M 0 405 L 405.171875 -0.171875 L 810.339844 405 L 405.171875 810.167969 Z M 0 405 " clip-rule="nonzero"/></clipPath><clipPath id="7d221a14d1"><path d="M 0 405 L 405 0 L 809.996094 405 L 405 809.996094 Z M 0 405 " clip-rule="nonzero"/></clipPath></defs><g clip-path="url(#f0b545cd31)"><path fill="#bf9c53" d="M 255.011719 404.996094 C 255.011719 406.222656 254.980469 407.449219 254.917969 408.675781 C 254.859375 409.902344 254.769531 411.125 254.648438 412.347656 C 254.527344 413.566406 254.378906 414.785156 254.199219 416 C 254.019531 417.214844 253.808594 418.421875 253.570312 419.625 C 253.328125 420.828125 253.0625 422.027344 252.761719 423.21875 C 252.464844 424.40625 252.136719 425.589844 251.78125 426.765625 C 251.425781 427.9375 251.039062 429.105469 250.625 430.261719 C 250.210938 431.414062 249.769531 432.558594 249.300781 433.695312 C 248.832031 434.828125 248.335938 435.949219 247.808594 437.058594 C 247.285156 438.167969 246.734375 439.265625 246.15625 440.347656 C 245.578125 441.429688 244.972656 442.496094 244.339844 443.550781 C 243.710938 444.601562 243.054688 445.640625 242.371094 446.660156 C 241.6875 447.679688 240.984375 448.683594 240.25 449.667969 C 239.519531 450.65625 238.765625 451.621094 237.988281 452.570312 C 237.207031 453.519531 236.40625 454.449219 235.582031 455.359375 C 234.757812 456.265625 233.914062 457.15625 233.042969 458.023438 C 232.175781 458.890625 231.289062 459.738281 230.378906 460.5625 C 229.46875 461.386719 228.539062 462.1875 227.589844 462.964844 C 226.644531 463.746094 225.675781 464.5 224.691406 465.230469 C 223.703125 465.960938 222.699219 466.667969 221.679688 467.351562 C 220.660156 468.03125 219.625 468.6875 218.570312 469.320312 C 217.519531 469.949219 216.449219 470.554688 215.367188 471.132812 C 214.285156 471.710938 213.191406 472.265625 212.078125 472.789062 C 210.96875 473.3125 209.847656 473.8125 208.714844 474.28125 C 207.582031 474.75 206.4375 475.191406 205.28125 475.605469 C 204.125 476.019531 202.960938 476.402344 201.785156 476.761719 C 200.609375 477.117188 199.429688 477.445312 198.238281 477.742188 C 197.046875 478.039062 195.851562 478.308594 194.648438 478.546875 C 193.441406 478.789062 192.234375 478.996094 191.019531 479.175781 C 189.804688 479.359375 188.589844 479.507812 187.367188 479.628906 C 186.144531 479.75 184.921875 479.839844 183.695312 479.898438 C 182.46875 479.960938 181.242188 479.988281 180.015625 479.988281 C 178.789062 479.988281 177.5625 479.960938 176.335938 479.898438 C 175.109375 479.839844 173.886719 479.75 172.664062 479.628906 C 171.445312 479.507812 170.226562 479.359375 169.011719 479.175781 C 167.796875 478.996094 166.589844 478.789062 165.386719 478.546875 C 164.179688 478.308594 162.984375 478.039062 161.792969 477.742188 C 160.601562 477.445312 159.421875 477.117188 158.246094 476.761719 C 157.070312 476.402344 155.90625 476.019531 154.75 475.605469 C 153.59375 475.191406 152.449219 474.75 151.316406 474.28125 C 150.183594 473.8125 149.0625 473.3125 147.953125 472.789062 C 146.84375 472.265625 145.746094 471.710938 144.664062 471.132812 C 143.582031 470.554688 142.515625 469.949219 141.460938 469.320312 C 140.410156 468.6875 139.371094 468.03125 138.351562 467.351562 C 137.332031 466.667969 136.328125 465.960938 135.34375 465.230469 C 134.355469 464.5 133.390625 463.746094 132.441406 462.964844 C 131.492188 462.1875 130.5625 461.386719 129.652344 460.5625 C 128.742188 459.738281 127.855469 458.890625 126.988281 458.023438 C 126.121094 457.15625 125.273438 456.265625 124.449219 455.359375 C 123.625 454.449219 122.824219 453.519531 122.042969 452.570312 C 121.265625 451.621094 120.511719 450.65625 119.78125 449.667969 C 119.050781 448.683594 118.34375 447.679688 117.660156 446.660156 C 116.980469 445.640625 116.320312 444.601562 115.691406 443.550781 C 115.058594 442.496094 114.457031 441.429688 113.878906 440.347656 C 113.296875 439.265625 112.746094 438.167969 112.222656 437.058594 C 111.695312 435.949219 111.199219 434.828125 110.730469 433.695312 C 110.261719 432.558594 109.820312 431.414062 109.40625 430.261719 C 108.992188 429.105469 108.605469 427.9375 108.25 426.765625 C 107.894531 425.589844 107.566406 424.40625 107.269531 423.21875 C 106.972656 422.027344 106.703125 420.828125 106.460938 419.625 C 106.222656 418.421875 106.011719 417.214844 105.832031 416 C 105.652344 414.785156 105.503906 413.566406 105.382812 412.347656 C 105.261719 411.125 105.171875 409.902344 105.113281 408.675781 C 105.050781 407.449219 105.023438 406.222656 105.023438 404.996094 C 105.023438 403.769531 105.050781 402.542969 105.113281 401.316406 C 105.171875 400.089844 105.261719 398.867188 105.382812 397.644531 C 105.503906 396.421875 105.652344 395.207031 105.832031 393.992188 C 106.011719 392.777344 106.222656 391.566406 106.460938 390.363281 C 106.703125 389.160156 106.972656 387.964844 107.269531 386.773438 C 107.566406 385.582031 107.894531 384.398438 108.25 383.226562 C 108.605469 382.050781 108.992188 380.886719 109.40625 379.730469 C 109.820312 378.574219 110.261719 377.429688 110.730469 376.296875 C 111.199219 375.164062 111.695312 374.039062 112.222656 372.929688 C 112.746094 371.820312 113.296875 370.726562 113.878906 369.644531 C 114.457031 368.5625 115.058594 367.492188 115.691406 366.441406 C 116.320312 365.386719 116.980469 364.351562 117.660156 363.332031 C 118.34375 362.308594 119.050781 361.308594 119.78125 360.320312 C 120.511719 359.335938 121.265625 358.367188 122.042969 357.417969 C 122.824219 356.46875 123.625 355.542969 124.449219 354.632812 C 125.273438 353.722656 126.121094 352.835938 126.988281 351.964844 C 127.855469 351.097656 128.742188 350.253906 129.652344 349.429688 C 130.5625 348.605469 131.492188 347.800781 132.441406 347.023438 C 133.390625 346.246094 134.355469 345.492188 135.34375 344.757812 C 136.328125 344.027344 137.332031 343.320312 138.351562 342.640625 C 139.371094 341.957031 140.410156 341.300781 141.460938 340.671875 C 142.515625 340.039062 143.582031 339.433594 144.664062 338.855469 C 145.746094 338.277344 146.84375 337.726562 147.953125 337.203125 C 149.0625 336.675781 150.183594 336.179688 151.316406 335.710938 C 152.449219 335.238281 153.59375 334.796875 154.75 334.386719 C 155.90625 333.972656 157.070312 333.585938 158.246094 333.230469 C 159.421875 332.875 160.601562 332.546875 161.792969 332.25 C 162.984375 331.949219 164.179688 331.679688 165.386719 331.441406 C 166.589844 331.203125 167.796875 330.992188 169.011719 330.8125 C 170.226562 330.632812 171.445312 330.484375 172.664062 330.363281 C 173.886719 330.242188 175.109375 330.152344 176.335938 330.089844 C 177.5625 330.03125 178.789062 330 180.015625 330 C 181.242188 330 182.46875 330.03125 183.695312 330.089844 C 184.921875 330.152344 186.144531 330.242188 187.367188 330.363281 C 188.589844 330.484375 189.804688 330.632812 191.019531 330.8125 C 192.234375 330.992188 193.441406 331.203125 194.648438 331.441406 C 195.851562 331.679688 197.046875 331.949219 198.238281 332.25 C 199.429688 332.546875 200.609375 332.875 201.785156 333.230469 C 202.960938 333.585938 204.125 333.972656 205.28125 334.386719 C 206.4375 334.796875 207.582031 335.238281 208.714844 335.710938 C 209.847656 336.179688 210.96875 336.675781 212.078125 337.203125 C 213.191406 337.726562 214.285156 338.277344 215.367188 338.855469 C 216.449219 339.433594 217.519531 340.039062 218.570312 340.671875 C 219.625 341.300781 220.660156 341.957031 221.679688 342.640625 C 222.699219 343.320312 223.703125 344.027344 224.691406 344.757812 C 225.675781 345.492188 226.644531 346.246094 227.589844 347.023438 C 228.539062 347.800781 229.46875 348.605469 230.378906 349.429688 C 231.289062 350.253906 232.175781 351.097656 233.042969 351.964844 C 233.914062 352.835938 234.757812 353.722656 235.582031 354.632812 C 236.40625 355.542969 237.207031 356.46875 237.988281 357.417969 C 238.765625 358.367188 239.519531 359.335938 240.25 360.320312 C 240.984375 361.308594 241.6875 362.308594 242.371094 363.332031 C 243.054688 364.351562 243.710938 365.386719 244.339844 366.441406 C 244.972656 367.492188 245.578125 368.5625 246.15625 369.644531 C 246.734375 370.726562 247.285156 371.820312 247.808594 372.929688 C 248.335938 374.039062 248.832031 375.164062 249.300781 376.296875 C 249.769531 377.429688 250.210938 378.574219 250.625 379.730469 C 251.039062 380.886719 251.425781 382.050781 251.78125 383.226562 C 252.136719 384.398438 252.464844 385.582031 252.761719 386.773438 C 253.0625 387.964844 253.328125 389.160156 253.570312 390.363281 C 253.808594 391.566406 254.019531 392.777344 254.199219 393.992188 C 254.378906 395.207031 254.527344 396.421875 254.648438 397.644531 C 254.769531 398.867188 254.859375 400.089844 254.917969 401.316406 C 254.980469 402.542969 255.011719 403.769531 255.011719 404.996094 Z M 255.011719 404.996094 " fill-opacity="1" fill-rule="nonzero"/></g><path fill="#bf9c53" d="M 479.992188 404.996094 C 479.992188 406.222656 479.960938 407.449219 479.902344 408.675781 C 479.84375 409.902344 479.75 411.125 479.632812 412.347656 C 479.511719 413.566406 479.359375 414.785156 479.179688 416 C 479 417.214844 478.789062 418.421875 478.550781 419.625 C 478.3125 420.828125 478.042969 422.027344 477.746094 423.21875 C 477.445312 424.40625 477.121094 425.589844 476.761719 426.765625 C 476.40625 427.9375 476.023438 429.105469 475.609375 430.261719 C 475.195312 431.414062 474.753906 432.558594 474.285156 433.695312 C 473.8125 434.828125 473.316406 435.949219 472.792969 437.058594 C 472.265625 438.167969 471.714844 439.265625 471.136719 440.347656 C 470.558594 441.429688 469.953125 442.496094 469.324219 443.550781 C 468.691406 444.601562 468.035156 445.640625 467.355469 446.660156 C 466.671875 447.679688 465.964844 448.683594 465.234375 449.667969 C 464.503906 450.65625 463.75 451.621094 462.96875 452.570312 C 462.191406 453.519531 461.390625 454.449219 460.566406 455.359375 C 459.742188 456.265625 458.894531 457.15625 458.027344 458.023438 C 457.160156 458.890625 456.269531 459.738281 455.359375 460.5625 C 454.453125 461.386719 453.523438 462.1875 452.574219 462.964844 C 451.625 463.746094 450.65625 464.5 449.671875 465.230469 C 448.6875 465.960938 447.683594 466.667969 446.664062 467.351562 C 445.640625 468.03125 444.605469 468.6875 443.554688 469.320312 C 442.5 469.949219 441.433594 470.554688 440.351562 471.132812 C 439.269531 471.710938 438.171875 472.265625 437.0625 472.789062 C 435.953125 473.3125 434.832031 473.8125 433.699219 474.28125 C 432.5625 474.75 431.417969 475.191406 430.261719 475.605469 C 429.109375 476.019531 427.941406 476.402344 426.769531 476.761719 C 425.59375 477.117188 424.410156 477.445312 423.21875 477.742188 C 422.03125 478.039062 420.832031 478.308594 419.628906 478.546875 C 418.425781 478.789062 417.214844 478.996094 416.003906 479.175781 C 414.789062 479.359375 413.570312 479.507812 412.347656 479.628906 C 411.128906 479.75 409.902344 479.839844 408.679688 479.898438 C 407.453125 479.960938 406.226562 479.988281 405 479.988281 C 403.769531 479.988281 402.542969 479.960938 401.320312 479.898438 C 400.09375 479.839844 398.867188 479.75 397.648438 479.628906 C 396.425781 479.507812 395.207031 479.359375 393.996094 479.175781 C 392.78125 478.996094 391.570312 478.789062 390.367188 478.546875 C 389.164062 478.308594 387.964844 478.039062 386.777344 477.742188 C 385.585938 477.445312 384.402344 477.117188 383.230469 476.761719 C 382.054688 476.402344 380.890625 476.019531 379.734375 475.605469 C 378.578125 475.191406 377.433594 474.75 376.300781 474.28125 C 375.164062 473.8125 374.042969 473.3125 372.933594 472.789062 C 371.824219 472.265625 370.730469 471.710938 369.644531 471.132812 C 368.5625 470.554688 367.496094 469.949219 366.445312 469.320312 C 365.390625 468.6875 364.355469 468.03125 363.332031 467.351562 C 362.3125 466.667969 361.308594 465.960938 360.324219 465.230469 C 359.339844 464.5 358.371094 463.746094 357.421875 462.964844 C 356.472656 462.1875 355.542969 461.386719 354.636719 460.5625 C 353.726562 459.738281 352.835938 458.890625 351.96875 458.023438 C 351.101562 457.15625 350.253906 456.265625 349.429688 455.359375 C 348.605469 454.449219 347.804688 453.519531 347.027344 452.570312 C 346.25 451.621094 345.492188 450.65625 344.761719 449.667969 C 344.03125 448.683594 343.324219 447.679688 342.644531 446.660156 C 341.960938 445.640625 341.304688 444.601562 340.671875 443.550781 C 340.042969 442.496094 339.4375 441.429688 338.859375 440.347656 C 338.28125 439.265625 337.730469 438.167969 337.203125 437.058594 C 336.679688 435.949219 336.183594 434.828125 335.710938 433.695312 C 335.242188 432.558594 334.800781 431.414062 334.386719 430.261719 C 333.972656 429.105469 333.589844 427.9375 333.234375 426.765625 C 332.878906 425.589844 332.550781 424.40625 332.25 423.21875 C 331.953125 422.027344 331.683594 420.828125 331.445312 419.625 C 331.207031 418.421875 330.996094 417.214844 330.816406 416 C 330.636719 414.785156 330.484375 413.566406 330.367188 412.347656 C 330.246094 411.125 330.15625 409.902344 330.09375 408.675781 C 330.035156 407.449219 330.003906 406.222656 330.003906 404.996094 C 330.003906 403.769531 330.035156 402.542969 330.09375 401.316406 C 330.15625 400.089844 330.246094 398.867188 330.367188 397.644531 C 330.484375 396.421875 330.636719 395.207031 330.816406 393.992188 C 330.996094 392.777344 331.207031 391.566406 331.445312 390.363281 C 331.683594 389.160156 331.953125 387.964844 332.25 386.773438 C 332.550781 385.582031 332.878906 384.398438 333.234375 383.226562 C 333.589844 382.050781 333.972656 380.886719 334.386719 379.730469 C 334.800781 378.574219 335.242188 377.429688 335.710938 376.296875 C 336.183594 375.164062 336.679688 374.039062 337.203125 372.929688 C 337.730469 371.820312 338.28125 370.726562 338.859375 369.644531 C 339.4375 368.5625 340.042969 367.492188 340.671875 366.441406 C 341.304688 365.386719 341.960938 364.351562 342.644531 363.332031 C 343.324219 362.308594 344.03125 361.308594 344.761719 360.320312 C 345.492188 359.335938 346.25 358.367188 347.027344 357.417969 C 347.804688 356.46875 348.605469 355.542969 349.429688 354.632812 C 350.253906 353.722656 351.101562 352.835938 351.96875 351.964844 C 352.835938 351.097656 353.726562 350.253906 354.636719 349.429688 C 355.542969 348.605469 356.472656 347.800781 357.421875 347.023438 C 358.371094 346.246094 359.339844 345.492188 360.324219 344.757812 C 361.308594 344.027344 362.3125 343.320312 363.332031 342.640625 C 364.355469 341.957031 365.390625 341.300781 366.445312 340.671875 C 367.496094 340.039062 368.5625 339.433594 369.644531 338.855469 C 370.730469 338.277344 371.824219 337.726562 372.933594 337.203125 C 374.042969 336.675781 375.164062 336.179688 376.300781 335.710938 C 377.433594 335.238281 378.578125 334.796875 379.734375 334.386719 C 380.890625 333.972656 382.054688 333.585938 383.230469 333.230469 C 384.402344 332.875 385.585938 332.546875 386.777344 332.25 C 387.964844 331.949219 389.164062 331.679688 390.367188 331.441406 C 391.570312 331.203125 392.78125 330.992188 393.996094 330.8125 C 395.207031 330.632812 396.425781 330.484375 397.648438 330.363281 C 398.867188 330.242188 400.09375 330.152344 401.320312 330.089844 C 402.542969 330.03125 403.769531 330 405 330 C 406.226562 330 407.453125 330.03125 408.679688 330.089844 C 409.902344 330.152344 411.128906 330.242188 412.347656 330.363281 C 413.570312 330.484375 414.789062 330.632812 416.003906 330.8125 C 417.214844 330.992188 418.425781 331.203125 419.628906 331.441406 C 420.832031 331.679688 422.03125 331.949219 423.21875 332.25 C 424.410156 332.546875 425.59375 332.875 426.769531 333.230469 C 427.941406 333.585938 429.109375 333.972656 430.261719 334.386719 C 431.417969 334.796875 432.5625 335.238281 433.699219 335.710938 C 434.832031 336.179688 435.953125 336.675781 437.0625 337.203125 C 438.171875 337.726562 439.269531 338.277344 440.351562 338.855469 C 441.433594 339.433594 442.5 340.039062 443.554688 340.671875 C 444.605469 341.300781 445.640625 341.957031 446.664062 342.640625 C 447.683594 343.320312 448.6875 344.027344 449.671875 344.757812 C 450.65625 345.492188 451.625 346.246094 452.574219 347.023438 C 453.523438 347.800781 454.453125 348.605469 455.359375 349.429688 C 456.269531 350.253906 457.160156 351.097656 458.027344 351.964844 C 458.894531 352.835938 459.742188 353.722656 460.566406 354.632812 C 461.390625 355.542969 462.191406 356.46875 462.96875 357.417969 C 463.75 358.367188 464.503906 359.335938 465.234375 360.320312 C 465.964844 361.308594 466.671875 362.308594 467.355469 363.332031 C 468.035156 364.351562 468.691406 365.386719 469.324219 366.441406 C 469.953125 367.492188 470.558594 368.5625 471.136719 369.644531 C 471.714844 370.726562 472.265625 371.820312 472.792969 372.929688 C 473.316406 374.039062 473.8125 375.164062 474.285156 376.296875 C 474.753906 377.429688 475.195312 378.574219 475.609375 379.730469 C 476.023438 380.886719 476.40625 382.050781 476.761719 383.226562 C 477.121094 384.398438 477.445312 385.582031 477.746094 386.773438 C 478.042969 387.964844 478.3125 389.160156 478.550781 390.363281 C 478.789062 391.566406 479 392.777344 479.179688 393.992188 C 479.359375 395.207031 479.511719 396.421875 479.632812 397.644531 C 479.75 398.867188 479.84375 400.089844 479.902344 401.316406 C 479.960938 402.542969 479.992188 403.769531 479.992188 404.996094 Z M 479.992188 404.996094 " fill-opacity="1" fill-rule="nonzero"/><path fill="#bf9c53" d="M 704.976562 404.996094 C 704.976562 406.222656 704.945312 407.449219 704.882812 408.675781 C 704.824219 409.902344 704.734375 411.125 704.613281 412.347656 C 704.492188 413.566406 704.34375 414.785156 704.164062 416 C 703.984375 417.214844 703.773438 418.421875 703.535156 419.625 C 703.292969 420.828125 703.027344 422.027344 702.726562 423.21875 C 702.429688 424.40625 702.101562 425.589844 701.746094 426.765625 C 701.390625 427.9375 701.003906 429.105469 700.589844 430.261719 C 700.175781 431.414062 699.734375 432.558594 699.265625 433.695312 C 698.796875 434.828125 698.300781 435.949219 697.773438 437.058594 C 697.25 438.167969 696.699219 439.265625 696.121094 440.347656 C 695.542969 441.429688 694.9375 442.496094 694.304688 443.550781 C 693.675781 444.601562 693.019531 445.640625 692.335938 446.660156 C 691.652344 447.679688 690.949219 448.683594 690.214844 449.667969 C 689.484375 450.65625 688.730469 451.621094 687.953125 452.570312 C 687.171875 453.519531 686.371094 454.449219 685.546875 455.359375 C 684.722656 456.265625 683.878906 457.15625 683.007812 458.023438 C 682.140625 458.890625 681.253906 459.738281 680.34375 460.5625 C 679.433594 461.386719 678.503906 462.1875 677.554688 462.964844 C 676.609375 463.746094 675.640625 464.5 674.65625 465.230469 C 673.667969 465.960938 672.664062 466.667969 671.644531 467.351562 C 670.625 468.03125 669.589844 468.6875 668.535156 469.320312 C 667.484375 469.949219 666.414062 470.554688 665.332031 471.132812 C 664.25 471.710938 663.15625 472.265625 662.042969 472.789062 C 660.933594 473.3125 659.8125 473.8125 658.679688 474.28125 C 657.546875 474.75 656.402344 475.191406 655.246094 475.605469 C 654.089844 476.019531 652.925781 476.402344 651.75 476.761719 C 650.574219 477.117188 649.394531 477.445312 648.203125 477.742188 C 647.011719 478.039062 645.816406 478.308594 644.613281 478.546875 C 643.40625 478.789062 642.199219 478.996094 640.984375 479.175781 C 639.769531 479.359375 638.554688 479.507812 637.332031 479.628906 C 636.109375 479.75 634.886719 479.839844 633.660156 479.898438 C 632.433594 479.960938 631.207031 479.988281 629.980469 479.988281 C 628.753906 479.988281 627.527344 479.960938 626.300781 479.898438 C 625.074219 479.839844 623.851562 479.75 622.628906 479.628906 C 621.410156 479.507812 620.191406 479.359375 618.976562 479.175781 C 617.761719 478.996094 616.554688 478.789062 615.351562 478.546875 C 614.144531 478.308594 612.949219 478.039062 611.757812 477.742188 C 610.566406 477.445312 609.386719 477.117188 608.210938 476.761719 C 607.035156 476.402344 605.871094 476.019531 604.714844 475.605469 C 603.558594 475.191406 602.414062 474.75 601.28125 474.28125 C 600.148438 473.8125 599.027344 473.3125 597.917969 472.789062 C 596.808594 472.265625 595.710938 471.710938 594.628906 471.132812 C 593.546875 470.554688 592.480469 469.949219 591.425781 469.320312 C 590.375 468.6875 589.335938 468.03125 588.316406 467.351562 C 587.296875 466.667969 586.292969 465.960938 585.308594 465.230469 C 584.320312 464.5 583.355469 463.746094 582.40625 462.964844 C 581.457031 462.1875 580.527344 461.386719 579.617188 460.5625 C 578.707031 459.738281 577.820312 458.890625 576.953125 458.023438 C 576.082031 457.15625 575.238281 456.265625 574.414062 455.359375 C 573.589844 454.449219 572.789062 453.519531 572.007812 452.570312 C 571.230469 451.621094 570.476562 450.65625 569.746094 449.667969 C 569.011719 448.683594 568.308594 447.679688 567.625 446.660156 C 566.945312 445.640625 566.285156 444.601562 565.65625 443.550781 C 565.023438 442.496094 564.421875 441.429688 563.839844 440.347656 C 563.261719 439.265625 562.710938 438.167969 562.1875 437.058594 C 561.660156 435.949219 561.164062 434.828125 560.695312 433.695312 C 560.226562 432.558594 559.785156 431.414062 559.371094 430.261719 C 558.957031 429.105469 558.570312 427.9375 558.214844 426.765625 C 557.859375 425.589844 557.53125 424.40625 557.234375 423.21875 C 556.9375 422.027344 556.667969 420.828125 556.425781 419.625 C 556.1875 418.421875 555.976562 417.214844 555.796875 416 C 555.617188 414.785156 555.46875 413.566406 555.347656 412.347656 C 555.226562 411.125 555.136719 409.902344 555.078125 408.675781 C 555.015625 407.449219 554.988281 406.222656 554.988281 404.996094 C 554.988281 403.769531 555.015625 402.542969 555.078125 401.316406 C 555.136719 400.089844 555.226562 398.867188 555.347656 397.644531 C 555.46875 396.421875 555.617188 395.207031 555.796875 393.992188 C 555.976562 392.777344 556.1875 391.566406 556.425781 390.363281 C 556.667969 389.160156 556.9375 387.964844 557.234375 386.773438 C 557.53125 385.582031 557.859375 384.398438 558.214844 383.226562 C 558.570312 382.050781 558.957031 380.886719 559.371094 379.730469 C 559.785156 378.574219 560.226562 377.429688 560.695312 376.296875 C 561.164062 375.164062 561.660156 374.039062 562.1875 372.929688 C 562.710938 371.820312 563.261719 370.726562 563.839844 369.644531 C 564.421875 368.5625 565.023438 367.492188 565.65625 366.441406 C 566.285156 365.386719 566.945312 364.351562 567.625 363.332031 C 568.308594 362.308594 569.011719 361.308594 569.746094 360.320312 C 570.476562 359.335938 571.230469 358.367188 572.007812 357.417969 C 572.789062 356.46875 573.589844 355.542969 574.414062 354.632812 C 575.238281 353.722656 576.082031 352.835938 576.953125 351.964844 C 577.820312 351.097656 578.707031 350.253906 579.617188 349.429688 C 580.527344 348.605469 581.457031 347.800781 582.40625 347.023438 C 583.355469 346.246094 584.320312 345.492188 585.308594 344.757812 C 586.292969 344.027344 587.296875 343.320312 588.316406 342.640625 C 589.335938 341.957031 590.375 341.300781 591.425781 340.671875 C 592.480469 340.039062 593.546875 339.433594 594.628906 338.855469 C 595.710938 338.277344 596.808594 337.726562 597.917969 337.203125 C 599.027344 336.675781 600.148438 336.179688 601.28125 335.710938 C 602.414062 335.238281 603.558594 334.796875 604.714844 334.386719 C 605.871094 333.972656 607.035156 333.585938 608.210938 333.230469 C 609.386719 332.875 610.566406 332.546875 611.757812 332.25 C 612.949219 331.949219 614.144531 331.679688 615.351562 331.441406 C 616.554688 331.203125 617.761719 330.992188 618.976562 330.8125 C 620.191406 330.632812 621.410156 330.484375 622.628906 330.363281 C 623.851562 330.242188 625.074219 330.152344 626.300781 330.089844 C 627.527344 330.03125 628.753906 330 629.980469 330 C 631.207031 330 632.433594 330.03125 633.660156 330.089844 C 634.886719 330.152344 636.109375 330.242188 637.332031 330.363281 C 638.554688 330.484375 639.769531 330.632812 640.984375 330.8125 C 642.199219 330.992188 643.40625 331.203125 644.613281 331.441406 C 645.816406 331.679688 647.011719 331.949219 648.203125 332.25 C 649.394531 332.546875 650.574219 332.875 651.75 333.230469 C 652.925781 333.585938 654.089844 333.972656 655.246094 334.386719 C 656.402344 334.796875 657.546875 335.238281 658.679688 335.710938 C 659.8125 336.179688 660.933594 336.675781 662.042969 337.203125 C 663.15625 337.726562 664.25 338.277344 665.332031 338.855469 C 666.414062 339.433594 667.484375 340.039062 668.535156 340.671875 C 669.589844 341.300781 670.625 341.957031 671.644531 342.640625 C 672.664062 343.320312 673.667969 344.027344 674.65625 344.757812 C 675.640625 345.492188 676.609375 346.246094 677.554688 347.023438 C 678.503906 347.800781 679.433594 348.605469 680.34375 349.429688 C 681.253906 350.253906 682.140625 351.097656 683.007812 351.964844 C 683.878906 352.835938 684.722656 353.722656 685.546875 354.632812 C 686.371094 355.542969 687.171875 356.46875 687.953125 357.417969 C 688.730469 358.367188 689.484375 359.335938 690.214844 360.320312 C 690.949219 361.308594 691.652344 362.308594 692.335938 363.332031 C 693.019531 364.351562 693.675781 365.386719 694.304688 366.441406 C 694.9375 367.492188 695.542969 368.5625 696.121094 369.644531 C 696.699219 370.726562 697.25 371.820312 697.773438 372.929688 C 698.300781 374.039062 698.796875 375.164062 699.265625 376.296875 C 699.734375 377.429688 700.175781 378.574219 700.589844 379.730469 C 701.003906 380.886719 701.390625 382.050781 701.746094 383.226562 C 702.101562 384.398438 702.429688 385.582031 702.726562 386.773438 C 703.027344 387.964844 703.292969 389.160156 703.535156 390.363281 C 703.773438 391.566406 703.984375 392.777344 704.164062 393.992188 C 704.34375 395.207031 704.492188 396.421875 704.613281 397.644531 C 704.734375 398.867188 704.824219 400.089844 704.882812 401.316406 C 704.945312 402.542969 704.976562 403.769531 704.976562 404.996094 Z M 704.976562 404.996094 " fill-opacity="1" fill-rule="nonzero"/><g clip-path="url(#ff52d9a2f8)"><g clip-path="url(#424bf2a22f)"><g clip-path="url(#6839cace32)"><g clip-path="url(#2615df7625)"><path fill="#bf9c53" d="M 809.996094 405 L 405 809.996094 L 0 405 L 405 0 Z M 405 804.847656 L 804.847656 405 L 405 5.152344 L 5.152344 405 Z M 405 804.847656 " fill-opacity="1" fill-rule="nonzero"/></g></g></g></g><g clip-path="url(#b2e167e7fc)"><g clip-path="url(#e9632f5a6b)"><g clip-path="url(#7d221a14d1)"><path stroke-linecap="butt" transform="matrix(0.53033, -0.53033, 0.53033, 0.53033, 0.000539257, 404.998704)" fill="none" stroke-linejoin="miter" d="M -0.00173065 0.000713818 L 0.0019522 763.67239 L 763.669946 763.67239 L 763.673628 0.000713818 L -0.00173065 0.000713818 " stroke="#bf9c53" stroke-width="20" stroke-opacity="1" stroke-miterlimit="4"/></g></g></g></svg>