<svg xmlns="http://www.w3.org/2000/svg" xmlns:xlink="http://www.w3.org/1999/xlink" width="1080" zoomAndPan="magnify" viewBox="0 0 810 809.999993" height="1080" preserveAspectRatio="xMidYMid meet" version="1.0"><defs><clipPath id="fd1a043a64"><path d="M 8 5 L 808 5 L 808 805 L 8 805 Z M 8 5 " clip-rule="nonzero"/></clipPath><clipPath id="965eb0fb41"><path d="M 408.214844 0 L 813.386719 405.171875 L 408.214844 810.34375 L 3.042969 405.171875 Z M 408.214844 0 " clip-rule="nonzero"/></clipPath><clipPath id="e2b8dfa4e9"><path d="M 408.214844 0 L 813.386719 405.171875 L 408.214844 810.34375 L 3.042969 405.171875 Z M 408.214844 0 " clip-rule="nonzero"/></clipPath><clipPath id="5cdddfd9fe"><path d="M 4 1 L 810 1 L 810 809 L 4 809 Z M 4 1 " clip-rule="nonzero"/></clipPath><clipPath id="79c7630073"><path d="M 408.214844 0 L 813.386719 405.171875 L 408.214844 810.34375 L 3.042969 405.171875 Z M 408.214844 0 " clip-rule="nonzero"/></clipPath><clipPath id="15ba64ab77"><path d="M 408.214844 0 L 813.386719 405.171875 L 408.214844 810.34375 L 3.042969 405.171875 Z M 408.214844 0 " clip-rule="nonzero"/></clipPath><clipPath id="df7f0b71da"><path d="M 202.988281 202.988281 L 520 202.988281 L 520 390 L 202.988281 390 Z M 202.988281 202.988281 " clip-rule="nonzero"/></clipPath><clipPath id="09bbe642b9"><path d="M 397 254 L 607.238281 254 L 607.238281 449 L 397 449 Z M 397 254 " clip-rule="nonzero"/></clipPath><clipPath id="fccd366085"><path d="M 361 464 L 449 464 L 449 607.238281 L 361 607.238281 Z M 361 464 " clip-rule="nonzero"/></clipPath></defs><g clip-path="url(#fd1a043a64)"><g clip-path="url(#965eb0fb41)"><g clip-path="url(#e2b8dfa4e9)"><path fill="#bf9c53" d="M 408.214844 5.402344 L 807.8125 405 L 408.214844 804.597656 L 8.617188 405 Z M 408.214844 5.402344 " fill-opacity="1" fill-rule="nonzero"/></g></g></g><g clip-path="url(#5cdddfd9fe)"><g clip-path="url(#79c7630073)"><g clip-path="url(#15ba64ab77)"><path fill="#bf9c53" d="M 405.515625 807.296875 L 5.914062 407.699219 C 4.402344 406.1875 4.402344 403.8125 5.914062 402.296875 L 405.515625 2.699219 C 407.027344 1.1875 409.402344 1.1875 410.914062 2.699219 L 810.511719 402.296875 C 812.023438 403.8125 812.023438 406.1875 810.511719 407.699219 L 410.914062 807.296875 C 409.402344 808.808594 407.027344 808.808594 405.515625 807.296875 Z M 14.015625 405 L 408.214844 799.195312 L 802.410156 405 L 408.214844 10.800781 Z M 14.015625 405 " fill-opacity="1" fill-rule="nonzero"/></g></g></g><g clip-path="url(#df7f0b71da)"><path fill="#f7f7f7" d="M 230.714844 389.152344 C 215.425781 389.152344 202.988281 376.714844 202.988281 361.425781 L 202.988281 234.675781 C 202.988281 217.203125 217.203125 202.988281 234.675781 202.988281 L 488.175781 202.988281 C 505.648438 202.988281 519.863281 217.203125 519.863281 234.675781 L 519.863281 290.128906 C 519.863281 307.601562 505.648438 321.816406 488.175781 321.816406 L 337.660156 321.816406 L 337.660156 333.472656 C 337.660156 348.589844 325.363281 361.027344 310.246094 361.199219 C 294.734375 361.332031 282.207031 348.890625 282.207031 333.472656 L 282.207031 309.933594 C 282.207031 303.382812 276.875 298.050781 270.324219 298.050781 C 263.769531 298.050781 258.441406 303.382812 258.441406 309.933594 L 258.441406 361.425781 C 258.441406 376.714844 246.003906 389.152344 230.714844 389.152344 Z M 234.675781 218.832031 C 225.9375 218.832031 218.832031 225.9375 218.832031 234.675781 L 218.832031 361.425781 C 218.832031 367.976562 224.160156 373.308594 230.714844 373.308594 C 237.265625 373.308594 242.597656 367.976562 242.597656 361.425781 L 242.597656 309.933594 C 242.597656 294.644531 255.035156 282.207031 270.324219 282.207031 C 285.613281 282.207031 298.050781 294.644531 298.050781 309.933594 L 298.050781 333.472656 C 298.050781 340.226562 303.648438 345.488281 310.070312 345.355469 C 316.546875 345.28125 321.816406 339.949219 321.816406 333.472656 L 321.816406 313.894531 C 321.816406 309.519531 325.363281 305.972656 329.738281 305.972656 L 488.175781 305.972656 C 496.910156 305.972656 504.019531 298.863281 504.019531 290.128906 L 504.019531 234.675781 C 504.019531 225.9375 496.910156 218.832031 488.175781 218.832031 Z M 234.675781 218.832031 " fill-opacity="1" fill-rule="nonzero"/></g><path fill="#f7f7f7" d="M 543.628906 286.167969 L 511.941406 286.167969 C 507.566406 286.167969 504.019531 282.621094 504.019531 278.246094 L 504.019531 246.558594 C 504.019531 242.183594 507.566406 238.636719 511.941406 238.636719 L 543.628906 238.636719 C 548.003906 238.636719 551.550781 242.183594 551.550781 246.558594 L 551.550781 278.246094 C 551.550781 282.621094 548.003906 286.167969 543.628906 286.167969 Z M 519.863281 270.324219 L 535.707031 270.324219 L 535.707031 254.480469 L 519.863281 254.480469 Z M 519.863281 270.324219 " fill-opacity="1" fill-rule="nonzero"/><g clip-path="url(#09bbe642b9)"><path fill="#f7f7f7" d="M 404.996094 448.566406 C 400.621094 448.566406 397.074219 445.019531 397.074219 440.644531 L 397.074219 393.113281 C 397.074219 389.445312 399.589844 386.257812 403.160156 385.40625 L 591.160156 340.585938 L 591.160156 270.324219 L 543.628906 270.324219 C 539.253906 270.324219 535.707031 266.777344 535.707031 262.402344 C 535.707031 258.027344 539.253906 254.480469 543.628906 254.480469 L 599.082031 254.480469 C 603.457031 254.480469 607.003906 258.027344 607.003906 262.402344 L 607.003906 346.839844 C 607.003906 350.507812 604.484375 353.695312 600.917969 354.546875 L 412.917969 399.367188 L 412.917969 440.644531 C 412.917969 445.019531 409.371094 448.566406 404.996094 448.566406 Z M 404.996094 448.566406 " fill-opacity="1" fill-rule="nonzero"/></g><g clip-path="url(#fccd366085)"><path fill="#f7f7f7" d="M 404.996094 607.003906 C 380.972656 607.003906 361.425781 587.457031 361.425781 563.433594 L 361.425781 472.332031 C 361.425781 467.957031 364.972656 464.410156 369.347656 464.410156 L 440.644531 464.410156 C 445.019531 464.410156 448.566406 467.957031 448.566406 472.332031 L 448.566406 563.433594 C 448.566406 587.457031 429.019531 607.003906 404.996094 607.003906 Z M 377.269531 480.253906 L 377.269531 563.433594 C 377.269531 578.722656 389.707031 591.160156 404.996094 591.160156 C 420.285156 591.160156 432.722656 578.722656 432.722656 563.433594 L 432.722656 480.253906 Z M 377.269531 480.253906 " fill-opacity="1" fill-rule="nonzero"/></g><path fill="#f7f7f7" d="M 424.800781 480.253906 L 385.191406 480.253906 C 380.816406 480.253906 377.269531 476.707031 377.269531 472.332031 L 377.269531 460.449219 C 377.269531 445.160156 389.707031 432.722656 404.996094 432.722656 C 420.285156 432.722656 432.722656 445.160156 432.722656 460.449219 L 432.722656 472.332031 C 432.722656 476.707031 429.175781 480.253906 424.800781 480.253906 Z M 393.113281 464.410156 L 416.878906 464.410156 L 416.878906 460.449219 C 416.878906 453.894531 411.546875 448.566406 404.996094 448.566406 C 398.445312 448.566406 393.113281 453.894531 393.113281 460.449219 Z M 393.113281 464.410156 " fill-opacity="1" fill-rule="nonzero"/><path fill="#f7f7f7" d="M 309.933594 456.488281 C 294.644531 456.488281 282.207031 444.050781 282.207031 428.761719 C 282.207031 416.558594 298.246094 389.179688 303.160156 381.082031 C 306.242188 376.003906 313.625 376.003906 316.707031 381.082031 C 321.621094 389.179688 337.660156 416.558594 337.660156 428.761719 C 337.660156 444.050781 325.222656 456.488281 309.933594 456.488281 Z M 309.933594 401.105469 C 303.445312 413.035156 298.050781 424.867188 298.050781 428.761719 C 298.050781 435.3125 303.378906 440.644531 309.933594 440.644531 C 316.484375 440.644531 321.816406 435.3125 321.816406 428.761719 C 321.816406 424.867188 316.421875 413.035156 309.933594 401.105469 Z M 309.933594 401.105469 " fill-opacity="1" fill-rule="nonzero"/></svg>