<svg xmlns="http://www.w3.org/2000/svg" xmlns:xlink="http://www.w3.org/1999/xlink" width="1080" zoomAndPan="magnify" viewBox="0 0 810 809.999993" height="1080" preserveAspectRatio="xMidYMid meet" version="1.0"><defs><clipPath id="0689541ef9"><path d="M 8 5 L 808 5 L 808 805 L 8 805 Z M 8 5 " clip-rule="nonzero"/></clipPath><clipPath id="239494077c"><path d="M 408.214844 0 L 813.386719 405.171875 L 408.214844 810.34375 L 3.042969 405.171875 Z M 408.214844 0 " clip-rule="nonzero"/></clipPath><clipPath id="2487019e36"><path d="M 408.214844 0 L 813.386719 405.171875 L 408.214844 810.34375 L 3.042969 405.171875 Z M 408.214844 0 " clip-rule="nonzero"/></clipPath><clipPath id="c77ff91b83"><path d="M 4 1 L 810 1 L 810 809 L 4 809 Z M 4 1 " clip-rule="nonzero"/></clipPath><clipPath id="3d3bbafc56"><path d="M 408.214844 0 L 813.386719 405.171875 L 408.214844 810.34375 L 3.042969 405.171875 Z M 408.214844 0 " clip-rule="nonzero"/></clipPath><clipPath id="ecca2d0390"><path d="M 408.214844 0 L 813.386719 405.171875 L 408.214844 810.34375 L 3.042969 405.171875 Z M 408.214844 0 " clip-rule="nonzero"/></clipPath><clipPath id="1a7c8834a4"><path d="M 332.789062 444 L 650.425781 444 L 650.425781 473 L 332.789062 473 Z M 332.789062 444 " clip-rule="nonzero"/></clipPath><clipPath id="2c2feb429f"><path d="M 509 308.449219 L 606 308.449219 L 606 454 L 509 454 Z M 509 308.449219 " clip-rule="nonzero"/></clipPath><clipPath id="2a9ad81ce4"><path d="M 534 562 L 575 562 L 575 603.949219 L 534 603.949219 Z M 534 562 " clip-rule="nonzero"/></clipPath><clipPath id="c1716ce175"><path d="M 408 562 L 449 562 L 449 603.949219 L 408 603.949219 Z M 408 562 " clip-rule="nonzero"/></clipPath><clipPath id="77435b4c66"><path d="M 226.117188 379.625 L 439.460938 379.625 L 439.460938 622.625 L 226.117188 622.625 Z M 226.117188 379.625 " clip-rule="nonzero"/></clipPath><clipPath id="e5a221ec92"><path d="M 226.117188 375.378906 L 439.117188 375.378906 L 439.117188 604 L 226.117188 604 Z M 226.117188 375.378906 " clip-rule="nonzero"/></clipPath><clipPath id="debd08025f"><path d="M 303.617188 224 L 482 224 L 482 308.378906 L 303.617188 308.378906 Z M 303.617188 224 " clip-rule="nonzero"/></clipPath><clipPath id="31d42cee4a"><path d="M 312 132.878906 L 491 132.878906 L 491 217 L 312 217 Z M 312 132.878906 " clip-rule="nonzero"/></clipPath></defs><g clip-path="url(#0689541ef9)"><g clip-path="url(#239494077c)"><g clip-path="url(#2487019e36)"><path fill="#bf9c53" d="M 408.214844 5.402344 L 807.8125 405 L 408.214844 804.597656 L 8.617188 405 Z M 408.214844 5.402344 " fill-opacity="1" fill-rule="nonzero"/></g></g></g><g clip-path="url(#c77ff91b83)"><g clip-path="url(#3d3bbafc56)"><g clip-path="url(#ecca2d0390)"><path fill="#bf9c53" d="M 405.515625 807.296875 L 5.914062 407.699219 C 4.402344 406.1875 4.402344 403.8125 5.914062 402.296875 L 405.515625 2.699219 C 407.027344 1.1875 409.402344 1.1875 410.914062 2.699219 L 810.511719 402.296875 C 812.023438 403.8125 812.023438 406.1875 810.511719 407.699219 L 410.914062 807.296875 C 409.402344 808.808594 407.027344 808.808594 405.515625 807.296875 Z M 14.015625 405 L 408.214844 799.195312 L 802.410156 405 L 408.214844 10.800781 Z M 14.015625 405 " fill-opacity="1" fill-rule="nonzero"/></g></g></g><path fill="#f7f7f7" d="M 423.984375 572.164062 L 558.609375 572.164062 C 621.265625 572.164062 628.089844 499.582031 628.089844 468.5625 C 628.089844 466.078125 625.609375 464.21875 623.128906 464.21875 L 359.464844 464.21875 C 356.984375 464.21875 355.121094 466.078125 355.121094 468.5625 C 355.121094 499.582031 361.945312 572.164062 423.984375 572.164062 Z M 618.785156 472.902344 C 618.164062 508.265625 608.859375 562.859375 558.609375 562.859375 L 423.984375 562.859375 C 372.492188 562.859375 364.429688 503.304688 364.429688 472.902344 Z M 618.785156 472.902344 " fill-opacity="1" fill-rule="evenodd"/><g clip-path="url(#1a7c8834a4)"><path fill="#f7f7f7" d="M 347.058594 472.902344 L 636.15625 472.902344 C 644.222656 472.902344 650.425781 466.699219 650.425781 458.636719 C 650.425781 450.570312 644.222656 444.367188 636.15625 444.367188 L 347.058594 444.367188 C 338.992188 444.367188 332.789062 450.570312 332.789062 458.636719 C 332.789062 466.699219 338.992188 472.902344 347.058594 472.902344 Z M 636.15625 453.671875 C 638.636719 453.671875 641.738281 456.152344 641.738281 458.636719 C 641.738281 461.738281 639.257812 464.21875 636.15625 464.21875 L 347.058594 464.21875 C 343.957031 464.21875 341.472656 461.738281 341.472656 458.636719 C 341.472656 456.152344 343.957031 453.671875 347.058594 453.671875 Z M 636.15625 453.671875 " fill-opacity="1" fill-rule="evenodd"/></g><g clip-path="url(#2c2feb429f)"><path fill="#f7f7f7" d="M 600.175781 453.671875 C 603.277344 453.671875 605.136719 451.8125 605.136719 449.328125 L 605.136719 356.273438 C 605.136719 329.59375 583.425781 308.503906 557.367188 308.503906 C 531.3125 308.503906 509.597656 329.59375 509.597656 356.273438 C 509.597656 358.753906 512.078125 360.613281 514.5625 360.613281 C 517.042969 360.613281 518.902344 358.132812 518.902344 356.273438 C 518.902344 335.179688 536.273438 317.808594 557.988281 317.808594 C 578.460938 317.808594 595.832031 335.179688 595.832031 356.273438 L 595.832031 449.328125 C 595.832031 451.8125 598.3125 453.671875 600.175781 453.671875 Z M 600.175781 453.671875 " fill-opacity="1" fill-rule="evenodd"/></g><path fill="#f7f7f7" d="M 541.859375 394.113281 C 543.097656 394.113281 543.71875 394.113281 544.339844 393.496094 C 545.582031 393.496094 546.199219 392.253906 546.199219 391.011719 L 549.921875 378.605469 C 551.164062 374.261719 550.542969 369.300781 548.0625 365.578125 C 545.582031 361.234375 541.859375 358.753906 537.515625 357.511719 L 495.328125 346.34375 C 490.988281 345.105469 486.023438 345.726562 482.300781 347.585938 C 477.957031 350.066406 475.476562 353.789062 473.617188 358.132812 L 470.515625 370.539062 C 470.515625 371.78125 470.515625 373.023438 471.132812 373.640625 C 471.753906 375.503906 472.375 375.503906 473.617188 376.125 L 540.617188 394.113281 C 541.238281 394.113281 541.859375 394.113281 541.859375 394.113281 Z M 490.367188 354.410156 C 490.988281 354.410156 491.605469 354.410156 492.226562 355.03125 L 535.035156 366.199219 C 536.894531 366.816406 538.757812 368.058594 539.996094 369.921875 C 541.238281 371.78125 541.859375 374.261719 541.238281 376.125 L 538.757812 384.1875 L 480.441406 368.679688 L 482.300781 360.613281 C 482.921875 358.132812 484.78125 356.273438 486.023438 355.03125 C 487.886719 355.03125 489.125 354.410156 490.367188 354.410156 Z M 490.367188 354.410156 " fill-opacity="1" fill-rule="evenodd"/><g clip-path="url(#2a9ad81ce4)"><path fill="#f7f7f7" d="M 551.164062 603.804688 L 569.777344 603.804688 C 571.636719 603.804688 572.878906 603.183594 573.496094 601.945312 C 574.117188 600.082031 574.738281 598.84375 574.117188 597.601562 L 561.710938 565.960938 C 560.46875 563.480469 557.988281 562.238281 555.507812 563.480469 C 553.644531 564.101562 552.40625 566.582031 553.023438 569.0625 L 562.953125 594.5 L 554.265625 594.5 L 543.097656 565.960938 C 541.859375 563.480469 539.375 562.238281 536.894531 563.480469 C 534.414062 564.101562 533.792969 566.582031 534.414062 569.0625 L 546.820312 600.703125 C 547.441406 602.5625 549.304688 603.804688 551.164062 603.804688 Z M 551.164062 603.804688 " fill-opacity="1" fill-rule="evenodd"/></g><g clip-path="url(#c1716ce175)"><path fill="#f7f7f7" d="M 413.4375 603.804688 L 432.050781 603.804688 C 433.910156 603.804688 435.773438 602.5625 436.394531 600.703125 L 448.800781 569.0625 C 449.421875 566.582031 448.179688 564.101562 446.320312 563.480469 C 443.835938 562.238281 441.355469 563.480469 440.117188 565.960938 L 428.949219 594.5 L 420.261719 594.5 L 430.1875 569.0625 C 430.808594 566.582031 429.570312 564.101562 427.707031 563.480469 C 425.226562 562.238281 422.746094 563.480469 421.503906 565.960938 L 409.097656 597.601562 C 408.476562 598.84375 409.097656 600.082031 409.714844 601.945312 C 410.335938 603.183594 412.199219 603.804688 413.4375 603.804688 Z M 413.4375 603.804688 " fill-opacity="1" fill-rule="evenodd"/></g><g clip-path="url(#77435b4c66)"><path fill="#bf9c53" d="M 226.117188 379.625 L 439.460938 379.625 L 439.460938 622.625 L 226.117188 622.625 Z M 226.117188 379.625 " fill-opacity="1" fill-rule="nonzero"/></g><g clip-path="url(#e5a221ec92)"><path fill="#f7f7f7" d="M 435.601562 390.609375 L 416.5625 390.609375 L 416.5625 379.1875 C 416.5625 377.09375 414.847656 375.378906 412.753906 375.378906 L 348.015625 375.378906 C 345.921875 375.378906 344.210938 377.09375 344.210938 379.1875 L 344.210938 390.609375 L 321.359375 390.609375 L 321.359375 379.1875 C 321.359375 377.09375 319.648438 375.378906 317.554688 375.378906 L 252.816406 375.378906 C 250.722656 375.378906 249.007812 377.09375 249.007812 379.1875 L 249.007812 390.609375 L 229.96875 390.609375 C 227.875 390.609375 226.160156 392.324219 226.160156 394.417969 L 226.160156 600.050781 C 226.160156 602.144531 227.875 603.859375 229.96875 603.859375 L 435.601562 603.859375 C 437.695312 603.859375 439.410156 602.144531 439.410156 600.050781 L 439.410156 394.417969 C 439.410156 392.324219 437.695312 390.609375 435.601562 390.609375 Z M 351.824219 382.996094 L 408.945312 382.996094 L 408.945312 390.609375 L 351.824219 390.609375 Z M 256.625 382.996094 L 313.746094 382.996094 L 313.746094 390.609375 L 256.625 390.609375 Z M 431.792969 398.226562 L 431.792969 428.691406 L 233.777344 428.691406 L 233.777344 398.226562 Z M 431.792969 436.308594 L 431.792969 550.546875 L 233.777344 550.546875 L 233.777344 436.308594 Z M 233.777344 596.242188 L 233.777344 558.164062 L 431.792969 558.164062 L 431.792969 596.242188 Z M 233.777344 596.242188 " fill-opacity="1" fill-rule="nonzero"/></g><path fill="#f7f7f7" d="M 260.433594 443.921875 L 405.136719 443.921875 L 405.136719 451.539062 L 260.433594 451.539062 Z M 260.433594 443.921875 " fill-opacity="1" fill-rule="nonzero"/><path fill="#f7f7f7" d="M 260.433594 565.777344 L 405.136719 565.777344 L 405.136719 573.394531 L 260.433594 573.394531 Z M 260.433594 565.777344 " fill-opacity="1" fill-rule="nonzero"/><path fill="#f7f7f7" d="M 393.714844 462.960938 L 271.855469 462.960938 C 269.761719 462.960938 268.050781 464.675781 268.050781 466.769531 L 268.050781 535.316406 C 268.050781 537.410156 269.761719 539.121094 271.855469 539.121094 L 393.714844 539.121094 C 395.808594 539.121094 397.519531 537.410156 397.519531 535.316406 L 397.519531 466.769531 C 397.519531 464.675781 395.808594 462.960938 393.714844 462.960938 Z M 389.90625 531.507812 L 275.664062 531.507812 L 275.664062 470.578125 L 389.90625 470.578125 Z M 389.90625 531.507812 " fill-opacity="1" fill-rule="nonzero"/><path fill="#f7f7f7" d="M 298.511719 424.882812 C 304.84375 424.882812 309.9375 419.789062 309.9375 413.457031 C 309.9375 407.128906 304.84375 402.035156 298.511719 402.035156 C 292.183594 402.035156 287.089844 407.128906 287.089844 413.457031 C 287.089844 419.742188 292.230469 424.882812 298.511719 424.882812 Z M 298.511719 409.652344 C 300.609375 409.652344 302.320312 411.363281 302.320312 413.457031 C 302.320312 415.554688 300.609375 417.265625 298.511719 417.265625 C 296.417969 417.265625 294.707031 415.554688 294.707031 413.457031 C 294.707031 411.363281 296.417969 409.652344 298.511719 409.652344 Z M 298.511719 409.652344 " fill-opacity="1" fill-rule="nonzero"/><path fill="#f7f7f7" d="M 332.785156 424.882812 C 339.117188 424.882812 344.210938 419.789062 344.210938 413.457031 C 344.210938 407.128906 339.117188 402.035156 332.785156 402.035156 C 326.453125 402.035156 321.359375 407.128906 321.359375 413.457031 C 321.359375 419.742188 326.503906 424.882812 332.785156 424.882812 Z M 332.785156 409.652344 C 334.878906 409.652344 336.59375 411.363281 336.59375 413.457031 C 336.59375 415.554688 334.878906 417.265625 332.785156 417.265625 C 330.691406 417.265625 328.976562 415.554688 328.976562 413.457031 C 328.976562 411.363281 330.691406 409.652344 332.785156 409.652344 Z M 332.785156 409.652344 " fill-opacity="1" fill-rule="nonzero"/><path fill="#f7f7f7" d="M 264.242188 424.882812 C 270.570312 424.882812 275.664062 419.789062 275.664062 413.457031 C 275.664062 407.128906 270.570312 402.035156 264.242188 402.035156 C 257.910156 402.035156 252.816406 407.128906 252.816406 413.457031 C 252.816406 419.742188 257.957031 424.882812 264.242188 424.882812 Z M 264.242188 409.652344 C 266.335938 409.652344 268.050781 411.363281 268.050781 413.457031 C 268.050781 415.554688 266.335938 417.265625 264.242188 417.265625 C 262.148438 417.265625 260.433594 415.554688 260.433594 413.457031 C 260.433594 411.363281 262.148438 409.652344 264.242188 409.652344 Z M 264.242188 409.652344 " fill-opacity="1" fill-rule="nonzero"/><path fill="#f7f7f7" d="M 401.328125 424.882812 C 407.660156 424.882812 412.753906 419.789062 412.753906 413.457031 C 412.753906 407.128906 407.660156 402.035156 401.328125 402.035156 C 395 402.035156 389.90625 407.128906 389.90625 413.457031 C 389.90625 419.742188 395.046875 424.882812 401.328125 424.882812 Z M 401.328125 409.652344 C 403.421875 409.652344 405.136719 411.363281 405.136719 413.457031 C 405.136719 415.554688 403.421875 417.265625 401.328125 417.265625 C 399.234375 417.265625 397.519531 415.554688 397.519531 413.457031 C 397.519531 411.363281 399.234375 409.652344 401.328125 409.652344 Z M 401.328125 409.652344 " fill-opacity="1" fill-rule="nonzero"/><path fill="#f7f7f7" d="M 367.058594 424.882812 C 373.386719 424.882812 378.480469 419.789062 378.480469 413.457031 C 378.480469 407.128906 373.386719 402.035156 367.058594 402.035156 C 360.726562 402.035156 355.632812 407.128906 355.632812 413.457031 C 355.632812 419.742188 360.773438 424.882812 367.058594 424.882812 Z M 367.058594 409.652344 C 369.152344 409.652344 370.867188 411.363281 370.867188 413.457031 C 370.867188 415.554688 369.152344 417.265625 367.058594 417.265625 C 364.964844 417.265625 363.25 415.554688 363.25 413.457031 C 363.25 411.363281 364.964844 409.652344 367.058594 409.652344 Z M 367.058594 409.652344 " fill-opacity="1" fill-rule="nonzero"/><g clip-path="url(#debd08025f)"><path fill="#f7f7f7" d="M 306.605469 228.855469 L 303.648438 261.566406 C 303.25 265.105469 307.1875 267.859375 310.339844 266.082031 L 319.40625 261.566406 C 334.183594 289.546875 363.542969 308.65625 397.234375 308.65625 C 436.835938 308.65625 470.328125 282.4375 481.371094 246.390625 C 482.746094 241.855469 479.195312 237.125 474.460938 237.125 C 471.324219 237.125 468.550781 239.300781 467.570312 242.253906 C 458.320312 272.394531 430.328125 294.261719 397.234375 294.261719 C 369.054688 294.261719 344.429688 278.304688 332.210938 255.058594 L 341.472656 250.324219 C 344.828125 248.75 344.828125 244.015625 341.871094 242.253906 L 313.695312 225.300781 C 310.738281 223.542969 306.988281 225.5 306.605469 228.855469 " fill-opacity="1" fill-rule="nonzero"/></g><g clip-path="url(#31d42cee4a)"><path fill="#f7f7f7" d="M 397.234375 132.898438 C 357.632812 132.898438 324.140625 159.097656 313.097656 195.164062 C 311.71875 199.699219 315.273438 204.429688 320.003906 204.429688 C 323.144531 204.429688 325.898438 202.253906 326.894531 199.300781 C 336.160156 169.144531 364.125 147.277344 397.234375 147.277344 C 425.410156 147.277344 450.035156 163.25 462.257812 186.496094 L 452.992188 191.210938 C 449.636719 192.789062 449.636719 197.523438 452.59375 199.300781 L 480.574219 216.234375 C 483.527344 218.011719 487.28125 216.054688 487.664062 212.699219 L 490.617188 180.1875 C 491.015625 176.648438 487.082031 173.878906 483.925781 175.652344 L 474.859375 180.1875 C 460.28125 152.007812 430.925781 132.898438 397.234375 132.898438 " fill-opacity="1" fill-rule="nonzero"/></g></svg>