<svg xmlns="http://www.w3.org/2000/svg" xmlns:xlink="http://www.w3.org/1999/xlink" width="1080" zoomAndPan="magnify" viewBox="0 0 810 809.999993" height="1080" preserveAspectRatio="xMidYMid meet" version="1.0"><defs><clipPath id="48e67d88d4"><path d="M 8 5 L 808 5 L 808 805 L 8 805 Z M 8 5 " clip-rule="nonzero"/></clipPath><clipPath id="e376341262"><path d="M 408.214844 0 L 813.386719 405.171875 L 408.214844 810.34375 L 3.042969 405.171875 Z M 408.214844 0 " clip-rule="nonzero"/></clipPath><clipPath id="17e6433fde"><path d="M 408.214844 0 L 813.386719 405.171875 L 408.214844 810.34375 L 3.042969 405.171875 Z M 408.214844 0 " clip-rule="nonzero"/></clipPath><clipPath id="05b3c65816"><path d="M 4 1 L 810 1 L 810 809 L 4 809 Z M 4 1 " clip-rule="nonzero"/></clipPath><clipPath id="5608bd49ba"><path d="M 408.214844 0 L 813.386719 405.171875 L 408.214844 810.34375 L 3.042969 405.171875 Z M 408.214844 0 " clip-rule="nonzero"/></clipPath><clipPath id="bfaa5f8a15"><path d="M 408.214844 0 L 813.386719 405.171875 L 408.214844 810.34375 L 3.042969 405.171875 Z M 408.214844 0 " clip-rule="nonzero"/></clipPath><clipPath id="d81dd612b2"><path d="M 217.859375 217.5 L 598.859375 217.5 L 598.859375 592.5 L 217.859375 592.5 Z M 217.859375 217.5 " clip-rule="nonzero"/></clipPath></defs><g clip-path="url(#48e67d88d4)"><g clip-path="url(#e376341262)"><g clip-path="url(#17e6433fde)"><path fill="#bf9c53" d="M 408.214844 5.402344 L 807.8125 405 L 408.214844 804.597656 L 8.617188 405 Z M 408.214844 5.402344 " fill-opacity="1" fill-rule="nonzero"/></g></g></g><g clip-path="url(#05b3c65816)"><g clip-path="url(#5608bd49ba)"><g clip-path="url(#bfaa5f8a15)"><path fill="#bf9c53" d="M 405.515625 807.296875 L 5.914062 407.699219 C 4.402344 406.1875 4.402344 403.8125 5.914062 402.296875 L 405.515625 2.699219 C 407.027344 1.1875 409.402344 1.1875 410.914062 2.699219 L 810.511719 402.296875 C 812.023438 403.8125 812.023438 406.1875 810.511719 407.699219 L 410.914062 807.296875 C 409.402344 808.808594 407.027344 808.808594 405.515625 807.296875 Z M 14.015625 405 L 408.214844 799.195312 L 802.410156 405 L 408.214844 10.800781 Z M 14.015625 405 " fill-opacity="1" fill-rule="nonzero"/></g></g></g><g clip-path="url(#d81dd612b2)"><path fill="#f7f7f7" d="M 566.9375 278.046875 L 593.210938 259.089844 L 576.003906 235.234375 L 549.726562 254.195312 C 550.253906 232.792969 539.945312 217.808594 539.742188 217.53125 L 515.773438 234.574219 C 517.632812 237.300781 531.222656 259.851562 501.792969 287.566406 L 490.511719 271.933594 L 422.0625 309.417969 L 412.125 339.234375 L 418.945312 348.679688 L 335.480469 408.9375 L 327.605469 398.03125 L 305.316406 394.433594 L 217.867188 457.542969 L 234.644531 572.726562 L 261.097656 592.445312 L 302.285156 586.441406 L 322.003906 560 L 319.578125 543.296875 L 344.839844 539.605469 L 340.589844 510.511719 L 315.347656 514.199219 L 312.957031 497.742188 L 356.945312 465.976562 L 360.566406 443.6875 L 352.6875 432.777344 L 436.15625 372.515625 L 442.988281 381.972656 L 474.394531 381.9375 L 531.527344 328.765625 L 520.160156 313.015625 C 555.757812 293.808594 572.867188 313.8125 574.855469 316.425781 L 598.582031 299.042969 C 598.375 298.773438 587.410156 284.285156 566.9375 278.046875 Z M 281.273438 484.328125 L 291.15625 552.1875 L 286 559.097656 L 268.910156 561.582031 L 261.988281 556.4375 L 249.550781 470.957031 L 311.621094 426.148438 L 328.839844 449.992188 Z M 462.820312 352.539062 L 458.007812 352.546875 L 444.78125 334.234375 L 446.304688 329.667969 L 481.863281 310.207031 L 492.492188 324.929688 Z M 462.820312 352.539062 " fill-opacity="1" fill-rule="nonzero"/></g></svg>