<svg xmlns="http://www.w3.org/2000/svg" xmlns:xlink="http://www.w3.org/1999/xlink"  zoomAndPan="magnify" viewBox="0 0 810 809.999993" height="100%" preserveAspectRatio="xMidYMid meet" version="1.0"><defs><clipPath id="fb2bfeb052"><path d="M 405 0 C 181.324219 0 0 181.324219 0 405 C 0 628.675781 181.324219 810 405 810 C 628.675781 810 810 628.675781 810 405 C 810 181.324219 628.675781 0 405 0 Z M 405 0 " clip-rule="nonzero"/></clipPath><clipPath id="9aa8564f37"><path d="M 123.75 221 L 686 221 L 686 589.398438 L 123.75 589.398438 Z M 123.75 221 " clip-rule="nonzero"/></clipPath></defs><g clip-path="url(#fb2bfeb052)"><path stroke-linecap="butt" transform="matrix(0.75, 0, 0, 0.75, 0.0000035, 0.00002)" fill="none" stroke-linejoin="miter" d="M 540.000023 -0.0000266667 C 241.765632 -0.0000266667 -0.00000466667 241.76561 -0.00000466667 540.000001 C -0.00000466667 838.234391 241.765632 1080.000028 540.000023 1080.000028 C 838.234413 1080.000028 1080.00005 838.234391 1080.00005 540.000001 C 1080.00005 241.76561 838.234413 -0.0000266667 540.000023 -0.0000266667 Z M 540.000023 -0.0000266667 " stroke="#bf9c53" stroke-width="64" stroke-opacity="1" stroke-miterlimit="4"/></g><g clip-path="url(#9aa8564f37)"><path fill="#bf9c53" d="M 654.023438 221.355469 L 155.5 221.355469 C 154.453125 221.355469 153.410156 221.40625 152.367188 221.511719 C 151.328125 221.613281 150.292969 221.769531 149.265625 221.972656 C 148.242188 222.179688 147.226562 222.433594 146.226562 222.738281 C 145.226562 223.042969 144.242188 223.394531 143.277344 223.796875 C 142.308594 224.195312 141.367188 224.644531 140.441406 225.136719 C 139.519531 225.628906 138.625 226.167969 137.753906 226.75 C 136.886719 227.332031 136.046875 227.953125 135.238281 228.617188 C 134.429688 229.28125 133.65625 229.984375 132.914062 230.722656 C 132.175781 231.460938 131.472656 232.238281 130.808594 233.046875 C 130.144531 233.855469 129.523438 234.691406 128.941406 235.5625 C 128.359375 236.433594 127.824219 237.328125 127.328125 238.25 C 126.835938 239.171875 126.386719 240.117188 125.988281 241.085938 C 125.585938 242.050781 125.234375 243.035156 124.929688 244.035156 C 124.625 245.035156 124.371094 246.050781 124.164062 247.074219 C 123.960938 248.101562 123.808594 249.136719 123.703125 250.175781 C 123.601562 251.21875 123.546875 252.261719 123.546875 253.308594 L 123.546875 557.160156 C 123.546875 558.207031 123.601562 559.25 123.703125 560.292969 C 123.808594 561.332031 123.960938 562.367188 124.164062 563.390625 C 124.371094 564.417969 124.625 565.433594 124.929688 566.433594 C 125.234375 567.433594 125.585938 568.417969 125.988281 569.382812 C 126.386719 570.351562 126.835938 571.292969 127.328125 572.214844 C 127.824219 573.140625 128.359375 574.035156 128.941406 574.90625 C 129.523438 575.773438 130.144531 576.613281 130.808594 577.421875 C 131.472656 578.230469 132.175781 579.003906 132.914062 579.746094 C 133.65625 580.484375 134.429688 581.1875 135.238281 581.851562 C 136.046875 582.515625 136.886719 583.136719 137.753906 583.71875 C 138.625 584.300781 139.519531 584.835938 140.441406 585.332031 C 141.367188 585.824219 142.308594 586.269531 143.277344 586.671875 C 144.242188 587.074219 145.226562 587.425781 146.226562 587.730469 C 147.226562 588.035156 148.242188 588.289062 149.265625 588.492188 C 150.292969 588.699219 151.328125 588.851562 152.367188 588.957031 C 153.410156 589.058594 154.453125 589.113281 155.5 589.113281 L 654.023438 589.113281 C 655.070312 589.113281 656.113281 589.058594 657.15625 588.957031 C 658.195312 588.855469 659.230469 588.699219 660.253906 588.496094 C 661.28125 588.289062 662.292969 588.035156 663.296875 587.730469 C 664.296875 587.425781 665.28125 587.074219 666.246094 586.671875 C 667.214844 586.273438 668.160156 585.824219 669.082031 585.332031 C 670.003906 584.839844 670.898438 584.300781 671.769531 583.71875 C 672.640625 583.136719 673.480469 582.515625 674.289062 581.851562 C 675.097656 581.1875 675.871094 580.488281 676.609375 579.746094 C 677.351562 579.007812 678.050781 578.234375 678.714844 577.425781 C 679.378906 576.617188 680.003906 575.777344 680.585938 574.90625 C 681.164062 574.035156 681.703125 573.140625 682.195312 572.21875 C 682.691406 571.296875 683.136719 570.351562 683.539062 569.382812 C 683.941406 568.417969 684.292969 567.433594 684.597656 566.433594 C 684.902344 565.433594 685.15625 564.417969 685.359375 563.394531 C 685.566406 562.367188 685.71875 561.332031 685.824219 560.292969 C 685.925781 559.25 685.980469 558.207031 685.980469 557.160156 L 685.980469 253.308594 C 685.980469 252.261719 685.925781 251.21875 685.824219 250.175781 C 685.71875 249.132812 685.566406 248.101562 685.359375 247.074219 C 685.15625 246.050781 684.902344 245.035156 684.597656 244.035156 C 684.292969 243.035156 683.941406 242.050781 683.539062 241.082031 C 683.136719 240.117188 682.691406 239.171875 682.195312 238.25 C 681.703125 237.328125 681.164062 236.429688 680.585938 235.5625 C 680.003906 234.691406 679.378906 233.851562 678.714844 233.042969 C 678.050781 232.234375 677.351562 231.460938 676.609375 230.722656 C 675.871094 229.980469 675.097656 229.28125 674.289062 228.617188 C 673.480469 227.953125 672.640625 227.328125 671.769531 226.75 C 670.898438 226.167969 670.003906 225.628906 669.082031 225.136719 C 668.160156 224.640625 667.214844 224.195312 666.246094 223.792969 C 665.28125 223.394531 664.296875 223.042969 663.296875 222.738281 C 662.292969 222.433594 661.28125 222.179688 660.253906 221.972656 C 659.230469 221.769531 658.195312 221.613281 657.15625 221.511719 C 656.113281 221.40625 655.070312 221.355469 654.023438 221.355469 Z M 493.15625 405.234375 L 668.671875 248.78125 C 669.15625 250.25 669.40625 251.757812 669.425781 253.308594 L 669.425781 557.160156 C 669.40625 558.707031 669.15625 560.21875 668.671875 561.6875 Z M 654.003906 237.914062 C 654.589844 237.9375 655.175781 237.996094 655.753906 238.085938 L 414.953125 452.726562 C 414.253906 453.351562 413.507812 453.90625 412.707031 454.390625 C 411.90625 454.878906 411.070312 455.289062 410.195312 455.621094 C 409.324219 455.953125 408.425781 456.207031 407.503906 456.375 C 406.585938 456.546875 405.65625 456.628906 404.722656 456.628906 C 403.785156 456.628906 402.855469 456.546875 401.9375 456.375 C 401.015625 456.207031 400.121094 455.953125 399.246094 455.621094 C 398.371094 455.289062 397.535156 454.878906 396.734375 454.390625 C 395.933594 453.90625 395.1875 453.351562 394.488281 452.726562 L 153.753906 238.085938 C 154.332031 237.996094 154.914062 237.9375 155.5 237.914062 Z M 140.863281 561.6875 C 140.375 560.21875 140.125 558.707031 140.105469 557.160156 L 140.105469 253.308594 C 140.125 251.757812 140.375 250.25 140.863281 248.78125 L 316.371094 405.234375 Z M 155.5 572.570312 C 154.914062 572.542969 154.332031 572.484375 153.753906 572.394531 L 328.796875 416.335938 L 383.515625 465.089844 C 384.242188 465.734375 384.992188 466.34375 385.769531 466.921875 C 386.550781 467.5 387.351562 468.039062 388.183594 468.542969 C 389.011719 469.046875 389.859375 469.511719 390.730469 469.9375 C 391.601562 470.363281 392.488281 470.75 393.394531 471.09375 C 394.300781 471.4375 395.21875 471.742188 396.152344 472.003906 C 397.085938 472.265625 398.03125 472.484375 398.984375 472.660156 C 399.9375 472.835938 400.894531 472.96875 401.863281 473.054688 C 402.828125 473.144531 403.792969 473.1875 404.761719 473.1875 C 405.734375 473.1875 406.699219 473.144531 407.664062 473.054688 C 408.628906 472.96875 409.589844 472.835938 410.542969 472.660156 C 411.496094 472.484375 412.441406 472.265625 413.375 472.003906 C 414.308594 471.742188 415.226562 471.4375 416.132812 471.09375 C 417.039062 470.75 417.925781 470.363281 418.796875 469.9375 C 419.667969 469.511719 420.515625 469.046875 421.34375 468.542969 C 422.171875 468.039062 422.976562 467.5 423.757812 466.921875 C 424.535156 466.34375 425.285156 465.734375 426.007812 465.089844 L 480.71875 416.324219 L 655.757812 572.378906 C 655.179688 572.472656 654.597656 572.53125 654.007812 572.554688 Z M 155.5 572.570312 " fill-opacity="1" fill-rule="nonzero"/></g></svg>