<svg xmlns="http://www.w3.org/2000/svg" xmlns:xlink="http://www.w3.org/1999/xlink" zoomAndPan="magnify" viewBox="0 0 810 809.999993" height="100%" preserveAspectRatio="xMidYMid meet" version="1.0"><defs><clipPath id="133b170405"><path d="M 0 5.496094 L 810 5.496094 L 810 804.460938 L 0 804.460938 Z M 0 5.496094 " clip-rule="nonzero"/></clipPath><clipPath id="105f3a2a7f"><path d="M 90 5.496094 L 719.984375 5.496094 C 743.855469 5.496094 766.746094 14.980469 783.625 31.859375 C 800.5 48.734375 809.984375 71.625 809.984375 95.496094 L 809.984375 714.492188 C 809.984375 738.363281 800.5 761.253906 783.625 778.132812 C 766.746094 795.007812 743.855469 804.492188 719.984375 804.492188 L 90 804.492188 C 66.128906 804.492188 43.238281 795.007812 26.359375 778.132812 C 9.480469 761.253906 0 738.363281 0 714.492188 L 0 95.496094 C 0 71.625 9.480469 48.734375 26.359375 31.859375 C 43.238281 14.980469 66.128906 5.496094 90 5.496094 Z M 90 5.496094 " clip-rule="nonzero"/></clipPath><clipPath id="67d1d22f12"><path d="M 179.496094 179.496094 L 630.308594 179.496094 L 630.308594 630.308594 L 179.496094 630.308594 Z M 179.496094 179.496094 " clip-rule="nonzero"/></clipPath><clipPath id="4a2c19c898"><path d="M 404.992188 179.496094 C 280.453125 179.496094 179.496094 280.453125 179.496094 404.992188 C 179.496094 529.527344 280.453125 630.484375 404.992188 630.484375 C 529.527344 630.484375 630.484375 529.527344 630.484375 404.992188 C 630.484375 280.453125 529.527344 179.496094 404.992188 179.496094 Z M 404.992188 179.496094 " clip-rule="nonzero"/></clipPath><clipPath id="b7853c55c9"><path d="M 575.976562 124.972656 L 684.214844 124.972656 L 684.214844 233.210938 L 575.976562 233.210938 Z M 575.976562 124.972656 " clip-rule="nonzero"/></clipPath><clipPath id="4b776393d6"><path d="M 630.09375 124.972656 C 600.207031 124.972656 575.976562 149.199219 575.976562 179.089844 C 575.976562 208.980469 600.207031 233.210938 630.09375 233.210938 C 659.984375 233.210938 684.214844 208.980469 684.214844 179.089844 C 684.214844 149.199219 659.984375 124.972656 630.09375 124.972656 Z M 630.09375 124.972656 " clip-rule="nonzero"/></clipPath></defs><g clip-path="url(#133b170405)"><g clip-path="url(#105f3a2a7f)"><path stroke-linecap="butt" transform="matrix(1.115872, 0, 0, 1.115872, 0.0000035, 5.497665)" fill="none" stroke-linejoin="miter" d="M 80.654407 -0.00140802 L 645.221276 -0.00140802 C 666.613598 -0.00140802 687.127264 8.498111 702.253466 23.624313 C 717.376168 38.747015 725.875687 59.26068 725.875687 80.653002 L 725.875687 635.372612 C 725.875687 656.764934 717.376168 677.278599 702.253466 692.404802 C 687.127264 707.527504 666.613598 716.027022 645.221276 716.027022 L 80.654407 716.027022 C 59.262085 716.027022 38.74842 707.527504 23.622217 692.404802 C 8.496015 677.278599 -0.00000313656 656.764934 -0.00000313656 635.372612 L -0.00000313656 80.653002 C -0.00000313656 59.26068 8.496015 38.747015 23.622217 23.624313 C 38.74842 8.498111 59.262085 -0.00140802 80.654407 -0.00140802 Z M 80.654407 -0.00140802 " stroke="#bf9c53" stroke-width="80.654396" stroke-opacity="1" stroke-miterlimit="4"/></g></g><g clip-path="url(#67d1d22f12)"><g clip-path="url(#4a2c19c898)"><path stroke-linecap="butt" transform="matrix(1.115872, 0, 0, 1.115872, 179.497948, 179.498025)" fill="none" stroke-linejoin="miter" d="M 202.078922 -0.00173032 C 90.471993 -0.00173032 -0.00166177 90.471925 -0.00166177 202.078853 C -0.00166177 313.682281 90.471993 404.155936 202.078922 404.155936 C 313.682349 404.155936 404.156004 313.682281 404.156004 202.078853 C 404.156004 90.471925 313.682349 -0.00173032 202.078922 -0.00173032 Z M 202.078922 -0.00173032 " stroke="#bf9c53" stroke-width="80.654396" stroke-opacity="1" stroke-miterlimit="4"/></g></g><g clip-path="url(#b7853c55c9)"><g clip-path="url(#4b776393d6)"><path fill="#bf9c53" d="M 575.976562 124.972656 L 684.214844 124.972656 L 684.214844 233.210938 L 575.976562 233.210938 Z M 575.976562 124.972656 " fill-opacity="1" fill-rule="nonzero"/></g></g></svg>