<svg xmlns="http://www.w3.org/2000/svg" xmlns:xlink="http://www.w3.org/1999/xlink" zoomAndPan="magnify" viewBox="0 0 810 809.999993" height="100%" preserveAspectRatio="xMidYMid meet" version="1.0"><defs><g/></defs><g fill="#bf9c53" fill-opacity="1"><g transform="translate(-43.226519, 817.857452)"><g><path d="M 154.78125 -643.625 C 128.71875 -643.625 107.519531 -651.523438 91.1875 -667.328125 C 74.863281 -683.140625 66.703125 -703.550781 66.703125 -728.5625 C 66.703125 -753.226562 74.863281 -773.460938 91.1875 -789.265625 C 107.519531 -805.078125 128.71875 -812.984375 154.78125 -812.984375 C 172.15625 -812.984375 187.613281 -809.335938 201.15625 -802.046875 C 214.707031 -794.753906 225.21875 -784.765625 232.6875 -772.078125 C 240.15625 -759.398438 243.890625 -744.894531 243.890625 -728.5625 C 243.890625 -712.238281 240.15625 -697.644531 232.6875 -684.78125 C 225.21875 -671.925781 214.707031 -661.851562 201.15625 -654.5625 C 187.613281 -647.269531 172.15625 -643.625 154.78125 -643.625 Z M 82.859375 0 L 82.859375 -574.828125 L 227.21875 -574.828125 L 227.21875 0 Z M 82.859375 0 "/></g></g></g><g fill="#bf9c53" fill-opacity="1"><g transform="translate(179.883564, 817.857452)"><g><path d="M 82.859375 0 L 82.859375 -574.828125 L 221.484375 -574.828125 L 221.484375 -490.40625 L 232.4375 -487.796875 C 268.21875 -553.109375 326.238281 -585.765625 406.5 -585.765625 C 472.851562 -585.765625 521.578125 -567.695312 552.671875 -531.5625 C 583.773438 -495.4375 599.328125 -442.800781 599.328125 -373.65625 L 599.328125 0 L 454.96875 0 L 454.96875 -355.9375 C 454.96875 -394.15625 447.320312 -421.691406 432.03125 -438.546875 C 416.75 -455.398438 392.253906 -463.828125 358.546875 -463.828125 C 317.203125 -463.828125 284.976562 -450.445312 261.875 -423.6875 C 238.769531 -396.9375 227.21875 -354.898438 227.21875 -297.578125 L 227.21875 0 Z M 82.859375 0 "/></g></g></g></svg>