<svg xmlns="http://www.w3.org/2000/svg" xmlns:xlink="http://www.w3.org/1999/xlink" width="1080" zoomAndPan="magnify" viewBox="0 0 810 809.999993" height="1080" preserveAspectRatio="xMidYMid meet" version="1.0"><defs><clipPath id="6104a273be"><path d="M 405 0 C 181.324219 0 0 181.324219 0 405 C 0 628.675781 181.324219 810 405 810 C 628.675781 810 810 628.675781 810 405 C 810 181.324219 628.675781 0 405 0 Z M 405 0 " clip-rule="nonzero"/></clipPath><clipPath id="d968a4d61b"><path d="M 115 125 L 678 125 L 678 705.285156 L 115 705.285156 Z M 115 125 " clip-rule="nonzero"/></clipPath></defs><g clip-path="url(#6104a273be)"><path stroke-linecap="butt" transform="matrix(0.75, 0, 0, 0.75, 0.0000035, 0.00002)" fill="none" stroke-linejoin="miter" d="M 540.000023 -0.0000266667 C 241.765632 -0.0000266667 -0.00000466667 241.76561 -0.00000466667 540.000001 C -0.00000466667 838.234391 241.765632 1080.000028 540.000023 1080.000028 C 838.234413 1080.000028 1080.00005 838.234391 1080.00005 540.000001 C 1080.00005 241.76561 838.234413 -0.0000266667 540.000023 -0.0000266667 Z M 540.000023 -0.0000266667 " stroke="#bf9c53" stroke-width="64" stroke-opacity="1" stroke-miterlimit="4"/></g><g clip-path="url(#d968a4d61b)"><path fill="#bf9c53" d="M 651.617188 641.136719 L 651.746094 641.136719 Z M 211.554688 152.617188 C 205.988281 152.617188 200.726562 155.140625 195.007812 160.148438 C 194.378906 160.742188 186.199219 168.503906 180.875 173.570312 L 176.226562 177.960938 C 149.082031 203.34375 136.777344 249.023438 144.875 294.367188 C 147.480469 309.007812 151.6875 324.183594 157.378906 339.453125 C 186.070312 416.511719 240.535156 483.503906 281.1875 526.152344 C 321.648438 569.078125 385.644531 627.054688 461.039062 659.824219 C 475.992188 666.320312 490.914062 671.339844 505.394531 674.734375 C 550.238281 685.238281 596.523438 675.394531 623.296875 649.65625 L 627.757812 645.414062 C 632.941406 640.519531 641.03125 632.863281 642.203125 631.734375 C 658.878906 614.585938 650.546875 600.324219 617.101562 566.3125 L 608.738281 557.722656 C 587.550781 535.738281 552.003906 498.925781 521.953125 502.515625 C 513.785156 503.480469 505.253906 509.441406 496.226562 515.738281 C 487.265625 521.992188 478.003906 528.453125 466.894531 531.972656 C 437.066406 541.433594 406.816406 535.214844 381.679688 514.507812 C 366.65625 502.121094 351.363281 487.628906 337.476562 472.636719 C 323.425781 458.160156 309.785156 442.121094 298.234375 426.46875 C 278.910156 400.277344 274.328125 369.738281 285.359375 340.453125 C 289.472656 329.542969 296.421875 320.640625 303.148438 312.03125 C 309.921875 303.347656 316.328125 295.15625 317.722656 287.046875 C 322.890625 257.15625 288.054688 219.773438 267.230469 197.425781 L 259.117188 188.617188 C 237.050781 164.484375 223.628906 152.617188 211.554688 152.617188 Z M 541.582031 705.457031 C 526.589844 705.457031 512.179688 703.632812 499.328125 700.625 C 483.304688 696.882812 466.847656 691.351562 450.429688 684.214844 C 370.898438 649.65625 303.996094 589.136719 261.882812 544.453125 C 219.5625 500.0625 162.714844 430.015625 132.453125 348.738281 C 126.203125 331.96875 121.578125 315.25 118.683594 299.039062 C 111.011719 256.078125 117.324219 196.601562 158.066406 158.542969 L 162.5625 154.269531 C 168.234375 148.886719 177.054688 140.507812 177.414062 140.195312 C 218.167969 104.414062 254.632812 144.285156 278.746094 170.675781 L 286.695312 179.296875 C 310.875 205.246094 351.351562 248.6875 343.9375 291.578125 C 341.390625 306.253906 332.210938 318.027344 324.113281 328.402344 C 318.359375 335.757812 312.921875 342.71875 310.25 349.832031 C 302.394531 370.679688 305.648438 391.722656 319.636719 410.675781 C 330.492188 425.378906 343.332031 440.472656 356.777344 454.335938 C 370.082031 468.699219 384.480469 482.328125 398.601562 493.984375 C 416.785156 508.976562 437.621094 513.332031 458.867188 506.628906 C 466.105469 504.316406 473.332031 499.273438 480.992188 493.925781 C 491.796875 486.398438 504.023438 477.84375 518.828125 476.101562 C 562.183594 470.988281 603.273438 513.730469 627.886719 539.269531 L 636.078125 547.660156 C 661.132812 573.15625 699.003906 611.691406 661.132812 650.433594 C 660.542969 651.003906 651.652344 659.441406 646.039062 664.738281 L 641.714844 668.839844 C 613.699219 695.777344 576.152344 705.457031 541.582031 705.457031 " fill-opacity="1" fill-rule="nonzero"/></g></svg>