<svg xmlns="http://www.w3.org/2000/svg" xmlns:xlink="http://www.w3.org/1999/xlink" width="1080" zoomAndPan="magnify" viewBox="0 0 810 809.999993" height="1080" preserveAspectRatio="xMidYMid meet" version="1.0"><defs><clipPath id="b3009cb0cd"><path d="M 1 1 L 809 1 L 809 809 L 1 809 Z M 1 1 " clip-rule="nonzero"/></clipPath><clipPath id="fd8982a4b2"><path d="M 1.0625 405 L 405.171875 0.886719 L 809.285156 405 L 405.171875 809.109375 Z M 1.0625 405 " clip-rule="nonzero"/></clipPath><clipPath id="07d394b04d"><path d="M 1.273438 405 L 405 1.273438 L 808.726562 405 L 405 808.726562 Z M 1.273438 405 " clip-rule="nonzero"/></clipPath><clipPath id="4eb28b2775"><path d="M 0 405 L 405.171875 -0.171875 L 810.34375 405 L 405.171875 810.171875 Z M 0 405 " clip-rule="nonzero"/></clipPath><clipPath id="adcba31336"><path d="M 0 405 L 405.171875 -0.171875 L 810.34375 405 L 405.171875 810.171875 Z M 0 405 " clip-rule="nonzero"/></clipPath><clipPath id="15a6f23e9b"><path d="M 0 405 L 405.171875 -0.171875 L 810.339844 405 L 405.171875 810.167969 Z M 0 405 " clip-rule="nonzero"/></clipPath><clipPath id="47770f7ec3"><path d="M 0 405 L 405 0 L 809.996094 405 L 405 809.996094 Z M 0 405 " clip-rule="nonzero"/></clipPath><clipPath id="f8168052ad"><path d="M 198.75 247.476562 L 611.25 247.476562 L 611.25 562.476562 L 198.75 562.476562 Z M 198.75 247.476562 " clip-rule="nonzero"/></clipPath></defs><g clip-path="url(#b3009cb0cd)"><g clip-path="url(#fd8982a4b2)"><g clip-path="url(#07d394b04d)"><g clip-path="url(#4eb28b2775)"><path fill="#bf9c53" d="M 809.996094 405 L 405 809.996094 L 0 405 L 405 0 Z M 405 804.847656 L 804.847656 405 L 405 5.152344 L 5.152344 405 Z M 405 804.847656 " fill-opacity="1" fill-rule="nonzero"/></g></g></g></g><g clip-path="url(#adcba31336)"><g clip-path="url(#15a6f23e9b)"><g clip-path="url(#47770f7ec3)"><path stroke-linecap="butt" transform="matrix(0.53033, -0.53033, 0.53033, 0.53033, 0.000539257, 404.998824)" fill="none" stroke-linejoin="miter" d="M -0.00161751 0.00060068 L 0.00206533 763.672277 L 763.670059 763.672277 L 763.673742 0.00060068 L -0.00161751 0.00060068 " stroke="#bf9c53" stroke-width="20" stroke-opacity="1" stroke-miterlimit="4"/></g></g></g><g clip-path="url(#f8168052ad)"><path fill="#bf9c53" d="M 555.441406 264.195312 L 555.441406 248.949219 L 611.082031 248.949219 L 611.082031 430.078125 L 198.917969 430.078125 L 198.917969 248.949219 L 254.558594 248.949219 L 254.558594 264.285156 C 254.898438 264.222656 255.246094 264.191406 255.601562 264.191406 L 339.382812 264.191406 L 339.382812 256.363281 C 339.382812 253.046875 342.074219 250.351562 345.394531 250.351562 C 348.710938 250.351562 351.402344 253.046875 351.402344 256.363281 L 351.402344 393.765625 L 460.15625 393.765625 C 459.699219 392.914062 459.4375 391.945312 459.4375 390.910156 L 459.4375 253.507812 C 459.4375 250.191406 462.128906 247.5 465.445312 247.5 C 468.765625 247.5 471.457031 250.191406 471.457031 253.507812 L 471.457031 264.191406 L 555.238281 264.191406 C 555.304688 264.191406 555.375 264.195312 555.441406 264.195312 Z M 254.558594 276.125 L 254.558594 393.765625 L 280.675781 393.765625 L 280.675781 276.214844 L 255.601562 276.214844 C 255.246094 276.214844 254.898438 276.183594 254.558594 276.125 Z M 292.695312 393.765625 L 310.273438 393.765625 L 310.273438 276.214844 L 292.695312 276.214844 Z M 322.292969 393.765625 L 339.382812 393.765625 L 339.382812 276.214844 L 322.292969 276.214844 Z M 470.738281 393.765625 L 488.546875 393.765625 L 488.546875 276.214844 L 471.457031 276.214844 L 471.457031 390.910156 C 471.457031 391.945312 471.199219 392.914062 470.738281 393.765625 Z M 500.566406 393.765625 L 518.144531 393.765625 L 518.144531 276.214844 L 500.566406 276.214844 Z M 530.164062 393.765625 L 555.441406 393.765625 L 555.441406 276.210938 C 555.375 276.214844 555.304688 276.214844 555.238281 276.214844 L 530.164062 276.214844 Z M 481.125 506.953125 L 481.125 526.441406 L 328.875 526.441406 L 328.875 506.953125 Z M 470.933594 494.933594 L 339.066406 494.933594 L 339.066406 470.808594 L 470.933594 470.808594 Z M 507.882812 442.097656 L 567.125 442.097656 L 567.125 562.585938 L 507.882812 562.585938 Z M 242.875 442.097656 L 302.117188 442.097656 L 302.117188 562.585938 L 242.875 562.585938 Z M 328.875 442.097656 L 481.125 442.097656 L 481.125 458.789062 L 328.875 458.789062 Z M 339.066406 538.460938 L 470.933594 538.460938 L 470.933594 562.585938 L 339.066406 562.585938 Z M 339.066406 538.460938 " fill-opacity="1" fill-rule="evenodd"/></g></svg>