<svg xmlns="http://www.w3.org/2000/svg" xmlns:xlink="http://www.w3.org/1999/xlink" width="1080" zoomAndPan="magnify" viewBox="0 0 810 809.999993" height="1080" preserveAspectRatio="xMidYMid meet" version="1.0"><defs><clipPath id="7f68ad7973"><path d="M 1 1 L 809 1 L 809 809 L 1 809 Z M 1 1 " clip-rule="nonzero"/></clipPath><clipPath id="6a03a54f0c"><path d="M 1.0625 405 L 405.171875 0.886719 L 809.285156 405 L 405.171875 809.109375 Z M 1.0625 405 " clip-rule="nonzero"/></clipPath><clipPath id="84c6dfe0a8"><path d="M 1.273438 405 L 405 1.273438 L 808.726562 405 L 405 808.726562 Z M 1.273438 405 " clip-rule="nonzero"/></clipPath><clipPath id="2950c8e74e"><path d="M 0 405 L 405.171875 -0.171875 L 810.34375 405 L 405.171875 810.171875 Z M 0 405 " clip-rule="nonzero"/></clipPath><clipPath id="7e865f8a82"><path d="M 0 405 L 405.171875 -0.171875 L 810.34375 405 L 405.171875 810.171875 Z M 0 405 " clip-rule="nonzero"/></clipPath><clipPath id="e61783afae"><path d="M 0 405 L 405.171875 -0.171875 L 810.339844 405 L 405.171875 810.167969 Z M 0 405 " clip-rule="nonzero"/></clipPath><clipPath id="93d87b9641"><path d="M 0 405 L 405 0 L 809.996094 405 L 405 809.996094 Z M 0 405 " clip-rule="nonzero"/></clipPath><clipPath id="cbec472177"><path d="M 235.742188 166.917969 L 573.992188 166.917969 L 573.992188 643.167969 L 235.742188 643.167969 Z M 235.742188 166.917969 " clip-rule="nonzero"/></clipPath><clipPath id="ac3063133d"><path d="M 293.320312 155 L 543 155 L 543 404.652344 L 293.320312 404.652344 Z M 293.320312 155 " clip-rule="nonzero"/></clipPath></defs><g clip-path="url(#7f68ad7973)"><g clip-path="url(#6a03a54f0c)"><g clip-path="url(#84c6dfe0a8)"><g clip-path="url(#2950c8e74e)"><path fill="#bf9c53" d="M 809.996094 405 L 405 809.996094 L 0 405 L 405 0 Z M 405 804.847656 L 804.847656 405 L 405 5.152344 L 5.152344 405 Z M 405 804.847656 " fill-opacity="1" fill-rule="nonzero"/></g></g></g></g><g clip-path="url(#7e865f8a82)"><g clip-path="url(#e61783afae)"><g clip-path="url(#93d87b9641)"><path stroke-linecap="butt" transform="matrix(0.53033, -0.53033, 0.53033, 0.53033, 0.000539257, 404.998704)" fill="none" stroke-linejoin="miter" d="M -0.00173065 0.000713818 L 0.0019522 763.67239 L 763.669946 763.67239 L 763.673628 0.000713818 L -0.00173065 0.000713818 " stroke="#bf9c53" stroke-width="20" stroke-opacity="1" stroke-miterlimit="4"/></g></g></g><g clip-path="url(#cbec472177)"><path fill="#bf9c53" d="M 573.824219 335.84375 C 573.824219 242.695312 498.039062 166.917969 404.894531 166.917969 C 311.746094 166.917969 235.960938 242.695312 235.960938 335.84375 L 235.960938 417.023438 L 248.847656 417.023438 L 248.847656 592.972656 C 248.847656 621.066406 317.390625 643.074219 404.898438 643.074219 C 492.402344 643.074219 560.9375 621.066406 560.9375 592.976562 L 560.9375 417.023438 L 573.824219 417.023438 Z M 405.039062 385.132812 C 314.308594 385.132812 258.597656 361.5625 258.597656 344.664062 L 258.445312 344.664062 C 258.445312 327.761719 314.160156 304.191406 404.898438 304.191406 C 495.632812 304.191406 551.34375 327.761719 551.34375 344.664062 L 551.492188 344.664062 C 551.492188 361.558594 495.773438 385.132812 405.039062 385.132812 Z M 404.894531 181.316406 C 487.5625 181.316406 555.273438 246.566406 559.230469 328.269531 C 538.285156 303.167969 469.90625 289.789062 404.898438 289.789062 C 339.882812 289.789062 271.503906 303.167969 250.558594 328.277344 C 254.511719 246.574219 322.222656 181.316406 404.894531 181.316406 Z M 404.894531 181.316406 " fill-opacity="1" fill-rule="nonzero"/></g><path fill="#bf9c53" d="M 519.011719 173.628906 C 517.441406 175.195312 517.441406 177.734375 519.011719 179.300781 C 520.578125 180.867188 523.117188 180.867188 524.683594 179.300781 C 526.25 177.734375 526.25 175.191406 524.683594 173.628906 C 523.117188 172.0625 520.578125 172.0625 519.011719 173.628906 Z M 519.011719 173.628906 " fill-opacity="1" fill-rule="nonzero"/><g clip-path="url(#ac3063133d)"><path fill="#bf9c53" d="M 536.515625 161.796875 C 520.628906 145.910156 497.5625 164.691406 477.09375 185.160156 C 466.988281 195.261719 457.695312 205.875 450.21875 215.847656 C 441.867188 226.988281 426.695312 230.792969 414.140625 224.894531 L 408.082031 222.042969 C 399.472656 217.996094 389.164062 219.796875 382.4375 226.523438 L 351.019531 257.941406 C 349.914062 259.050781 349.359375 260.496094 349.339844 261.945312 L 317.480469 293.804688 C 317.386719 293.839844 317.300781 293.898438 317.210938 293.941406 L 315.171875 295.980469 C 315.128906 296.074219 315.070312 296.15625 315.035156 296.253906 L 294.855469 316.433594 C 293.25 318.039062 293.25 320.636719 294.855469 322.242188 L 314.859375 342.246094 C 315.632812 343.019531 316.675781 343.449219 317.765625 343.449219 L 323.335938 343.449219 L 323.515625 349.320312 C 323.546875 350.367188 323.976562 351.359375 324.714844 352.101562 L 354.273438 381.660156 C 355.375 382.761719 357.003906 383.144531 358.480469 382.652344 L 366.582031 379.953125 L 363.765625 387.820312 C 363.226562 389.316406 363.601562 390.988281 364.726562 392.113281 L 376.070312 403.457031 C 377.675781 405.0625 380.277344 405.0625 381.882812 403.457031 L 399.328125 386.007812 L 408.199219 377.140625 L 436.367188 348.972656 C 437.820312 348.957031 439.265625 348.398438 440.371094 347.292969 L 471.789062 315.875 C 478.515625 309.148438 480.316406 298.84375 476.269531 290.234375 L 473.421875 284.167969 C 467.519531 271.617188 471.324219 256.445312 482.46875 248.089844 C 492.441406 240.617188 503.050781 231.320312 513.15625 221.21875 C 533.621094 200.75 552.402344 177.683594 536.515625 161.796875 Z M 413.265625 360.449219 C 412.925781 358.074219 412.214844 355.804688 411.109375 353.65625 C 404.28125 340.3125 383.96875 334.039062 364.324219 327.976562 C 338.367188 319.957031 321.28125 313.621094 322.632812 300.273438 L 353.925781 268.984375 L 429.328125 344.386719 Z M 436.300781 335.089844 L 363.222656 262.007812 L 381.332031 243.902344 L 454.410156 316.980469 Z M 505.019531 213.082031 C 495.292969 222.808594 485.105469 231.730469 475.5625 238.886719 C 460.078125 250.496094 454.796875 271.597656 463.007812 289.0625 L 465.855469 295.128906 C 467.847656 299.359375 466.960938 304.429688 463.652344 307.738281 L 460.222656 311.171875 L 387.140625 238.089844 L 390.570312 234.660156 C 393.882812 231.351562 398.953125 230.464844 403.1875 232.457031 L 409.246094 235.304688 C 426.710938 243.515625 447.8125 238.238281 459.421875 222.75 C 466.578125 213.207031 475.503906 203.019531 485.226562 193.292969 C 518.484375 160.039062 525.671875 167.226562 528.378906 169.933594 C 531.082031 172.640625 538.273438 179.824219 505.019531 213.082031 Z M 505.019531 213.082031 " fill-opacity="1" fill-rule="nonzero"/></g></svg>