<svg xmlns="http://www.w3.org/2000/svg" xmlns:xlink="http://www.w3.org/1999/xlink" width="1080" zoomAndPan="magnify" viewBox="0 0 810 809.999993" height="1080" preserveAspectRatio="xMidYMid meet" version="1.0"><defs><clipPath id="1363ec6b46"><path d="M 8 5 L 808 5 L 808 805 L 8 805 Z M 8 5 " clip-rule="nonzero"/></clipPath><clipPath id="a1a8d969fa"><path d="M 408.214844 0 L 813.386719 405.171875 L 408.214844 810.34375 L 3.042969 405.171875 Z M 408.214844 0 " clip-rule="nonzero"/></clipPath><clipPath id="38760aabe2"><path d="M 408.214844 0 L 813.386719 405.171875 L 408.214844 810.34375 L 3.042969 405.171875 Z M 408.214844 0 " clip-rule="nonzero"/></clipPath><clipPath id="2821743bd8"><path d="M 4 1 L 810 1 L 810 809 L 4 809 Z M 4 1 " clip-rule="nonzero"/></clipPath><clipPath id="42fe10f32c"><path d="M 408.214844 0 L 813.386719 405.171875 L 408.214844 810.34375 L 3.042969 405.171875 Z M 408.214844 0 " clip-rule="nonzero"/></clipPath><clipPath id="ea07082205"><path d="M 408.214844 0 L 813.386719 405.171875 L 408.214844 810.34375 L 3.042969 405.171875 Z M 408.214844 0 " clip-rule="nonzero"/></clipPath><clipPath id="54e7dedb90"><path d="M 143 242.25 L 667.5 242.25 L 667.5 567.75 L 143 567.75 Z M 143 242.25 " clip-rule="nonzero"/></clipPath></defs><g clip-path="url(#1363ec6b46)"><g clip-path="url(#a1a8d969fa)"><g clip-path="url(#38760aabe2)"><path fill="#bf9c53" d="M 408.214844 5.402344 L 807.8125 405 L 408.214844 804.597656 L 8.617188 405 Z M 408.214844 5.402344 " fill-opacity="1" fill-rule="nonzero"/></g></g></g><g clip-path="url(#2821743bd8)"><g clip-path="url(#42fe10f32c)"><g clip-path="url(#ea07082205)"><path fill="#bf9c53" d="M 405.515625 807.296875 L 5.914062 407.699219 C 4.402344 406.1875 4.402344 403.8125 5.914062 402.296875 L 405.515625 2.699219 C 407.027344 1.1875 409.402344 1.1875 410.914062 2.699219 L 810.511719 402.296875 C 812.023438 403.8125 812.023438 406.1875 810.511719 407.699219 L 410.914062 807.296875 C 409.402344 808.808594 407.027344 808.808594 405.515625 807.296875 Z M 14.015625 405 L 408.214844 799.195312 L 802.410156 405 L 408.214844 10.800781 Z M 14.015625 405 " fill-opacity="1" fill-rule="nonzero"/></g></g></g><g clip-path="url(#54e7dedb90)"><path fill="#f7f7f7" d="M 598.324219 302.253906 C 586.191406 324.234375 576.089844 347.113281 568.019531 370.890625 C 559.949219 394.664062 554.035156 418.964844 550.277344 443.789062 C 545.390625 427.566406 539.878906 410.09375 533.433594 391.792969 C 541.515625 375.070312 551.007812 359.1875 561.90625 344.144531 C 572.808594 329.105469 584.945312 315.140625 598.324219 302.253906 Z M 527.503906 252.960938 C 517.523438 273.542969 508.925781 294.6875 501.714844 316.398438 C 498.800781 310.261719 495.683594 304.4375 492.667969 298.824219 C 502.660156 282.308594 514.273438 267.019531 527.503906 252.960938 Z M 314.527344 252.960938 C 323.558594 262.40625 331.808594 272.496094 339.277344 283.222656 C 336.46875 285.617188 333.765625 288.007812 331.058594 290.605469 C 325.445312 276.566406 319.828125 263.464844 314.527344 252.753906 Z M 212.714844 302.359375 C 223.945312 313.050781 234.257812 324.566406 243.660156 336.894531 C 253.058594 349.226562 261.429688 362.222656 268.769531 375.882812 C 263.257812 386.28125 258.367188 396.679688 253.273438 407.078125 C 248.851562 388.773438 243.246094 370.839844 236.457031 353.277344 C 229.667969 335.710938 221.753906 318.667969 212.714844 302.148438 Z M 189.214844 567.75 C 190.644531 558.871094 191.652344 549.945312 192.242188 540.972656 C 192.832031 532 193 523.019531 192.742188 514.03125 C 192.488281 505.039062 191.808594 496.082031 190.710938 487.15625 C 189.613281 478.234375 188.097656 469.378906 186.167969 460.597656 C 184.234375 451.8125 181.894531 443.140625 179.148438 434.578125 C 176.402344 426.015625 173.257812 417.601562 169.71875 409.335938 C 166.179688 401.066406 162.257812 392.984375 157.960938 385.085938 C 153.660156 377.1875 149 369.511719 143.976562 362.050781 C 181.207031 390.335938 208.972656 433.390625 227.792969 469.996094 C 216.511719 502.042969 207.082031 534.628906 199.507812 567.75 Z M 280.726562 567.75 L 220.929688 567.75 C 231.332031 523.34375 271.785156 371.929688 348.53125 302.359375 C 342.996094 312.378906 337.871094 322.605469 333.160156 333.035156 C 328.453125 343.46875 324.171875 354.078125 320.320312 364.855469 C 316.46875 375.636719 313.0625 386.554688 310.09375 397.609375 C 307.125 408.667969 304.609375 419.824219 302.542969 431.082031 C 300.480469 442.34375 298.875 453.667969 297.726562 465.054688 C 296.578125 476.445312 295.890625 487.863281 295.664062 499.308594 C 295.441406 510.753906 295.679688 522.1875 296.378906 533.613281 C 297.078125 545.039062 298.242188 556.417969 299.863281 567.75 Z M 320.871094 567.75 C 316.914062 540.835938 315.703125 513.796875 317.230469 486.636719 C 329.085938 521.679688 336.78125 551.734375 340.523438 567.75 Z M 348.53125 516.6875 C 342.082031 494.953125 333.453125 468.226562 322.324219 440.460938 C 325.695312 420.757812 330.515625 401.414062 336.78125 382.433594 C 341.496094 404.480469 344.835938 426.738281 346.800781 449.199219 C 348.769531 471.660156 349.34375 494.15625 348.53125 516.6875 Z M 365.378906 567.75 C 367.667969 549.386719 369.0625 530.957031 369.558594 512.457031 C 370.054688 493.960938 369.652344 475.480469 368.355469 457.019531 C 367.054688 438.5625 364.859375 420.210938 361.773438 401.964844 C 358.6875 383.71875 354.726562 365.664062 349.882812 347.804688 C 354.042969 338.027344 358.410156 329.085938 362.464844 321.078125 C 381.742188 357.804688 397.652344 395.933594 410.199219 435.46875 C 396.277344 478.90625 384.90625 523 376.089844 567.75 Z M 462.925781 516.480469 C 462.300781 533.222656 460.742188 550.488281 458.660156 567.75 L 397.304688 567.75 C 406.101562 523.957031 417.332031 480.800781 431 438.277344 C 437.652344 417.480469 444.726562 398.550781 451.796875 380.351562 C 453.773438 390.234375 455.4375 400.113281 456.894531 409.992188 C 462.160156 445.304688 464.171875 480.800781 462.925781 516.480469 Z M 488.714844 567.75 L 479.769531 567.75 C 481.746094 550.695312 483.097656 533.742188 483.722656 517.3125 C 485.285156 480.371094 483.480469 443.589844 478.316406 406.976562 C 475.292969 385.949219 471.132812 365.152344 465.835938 344.578125 C 465.835938 344.578125 465.835938 344.578125 465.835938 343.851562 C 456.875 308.898438 444.707031 275.101562 429.335938 242.457031 C 446.089844 260.917969 460.371094 281.128906 472.179688 303.085938 C 479.769531 316.710938 487.257812 331.996094 494.433594 348.324219 L 494.433594 349.050781 C 500.675781 363.402344 506.808594 378.585938 512.53125 394.289062 C 527.503906 435.886719 538.425781 475.613281 545.183594 502.441406 C 536.332031 523.773438 528.742188 545.542969 522.410156 567.75 Z M 621.828125 567.75 L 544.039062 567.75 C 555.6875 529.585938 594.789062 416.75 667.167969 361.945312 C 662.136719 369.40625 657.46875 377.085938 653.160156 384.988281 C 648.851562 392.886719 644.925781 400.972656 641.378906 409.242188 C 637.832031 417.511719 634.683594 425.929688 631.929688 434.5 C 629.175781 443.066406 626.832031 451.742188 624.894531 460.53125 C 622.960938 469.316406 621.441406 478.175781 620.339844 487.105469 C 619.238281 496.039062 618.558594 505 618.300781 513.996094 C 618.042969 522.988281 618.207031 531.976562 618.796875 540.957031 C 619.386719 549.933594 620.394531 558.867188 621.828125 567.75 Z M 621.828125 567.75 " fill-opacity="1" fill-rule="nonzero"/></g></svg>