<svg xmlns="http://www.w3.org/2000/svg" xmlns:xlink="http://www.w3.org/1999/xlink" width="1080" zoomAndPan="magnify" viewBox="0 0 810 809.999993" height="1080" preserveAspectRatio="xMidYMid meet" version="1.0"><defs><clipPath id="7991fcf2ca"><path d="M 8 5 L 808 5 L 808 805 L 8 805 Z M 8 5 " clip-rule="nonzero"/></clipPath><clipPath id="d7009d68a5"><path d="M 408.214844 0 L 813.386719 405.171875 L 408.214844 810.34375 L 3.042969 405.171875 Z M 408.214844 0 " clip-rule="nonzero"/></clipPath><clipPath id="65985cb69d"><path d="M 408.214844 0 L 813.386719 405.171875 L 408.214844 810.34375 L 3.042969 405.171875 Z M 408.214844 0 " clip-rule="nonzero"/></clipPath><clipPath id="5660c2e103"><path d="M 4 1 L 810 1 L 810 809 L 4 809 Z M 4 1 " clip-rule="nonzero"/></clipPath><clipPath id="6d3cef3465"><path d="M 408.214844 0 L 813.386719 405.171875 L 408.214844 810.34375 L 3.042969 405.171875 Z M 408.214844 0 " clip-rule="nonzero"/></clipPath><clipPath id="9541835d04"><path d="M 408.214844 0 L 813.386719 405.171875 L 408.214844 810.34375 L 3.042969 405.171875 Z M 408.214844 0 " clip-rule="nonzero"/></clipPath><clipPath id="e465f62201"><path d="M 143 160.371094 L 667 160.371094 L 667 423.621094 L 143 423.621094 Z M 143 160.371094 " clip-rule="nonzero"/></clipPath><clipPath id="ef76cbaa99"><path d="M 312.0625 329.777344 L 504.0625 329.777344 L 504.0625 517.277344 L 312.0625 517.277344 Z M 312.0625 329.777344 " clip-rule="nonzero"/></clipPath></defs><g clip-path="url(#7991fcf2ca)"><g clip-path="url(#d7009d68a5)"><g clip-path="url(#65985cb69d)"><path fill="#bf9c53" d="M 408.214844 5.402344 L 807.8125 405 L 408.214844 804.597656 L 8.617188 405 Z M 408.214844 5.402344 " fill-opacity="1" fill-rule="nonzero"/></g></g></g><g clip-path="url(#5660c2e103)"><g clip-path="url(#6d3cef3465)"><g clip-path="url(#9541835d04)"><path fill="#bf9c53" d="M 405.515625 807.296875 L 5.914062 407.699219 C 4.402344 406.1875 4.402344 403.8125 5.914062 402.296875 L 405.515625 2.699219 C 407.027344 1.1875 409.402344 1.1875 410.914062 2.699219 L 810.511719 402.296875 C 812.023438 403.8125 812.023438 406.1875 810.511719 407.699219 L 410.914062 807.296875 C 409.402344 808.808594 407.027344 808.808594 405.515625 807.296875 Z M 14.015625 405 L 408.214844 799.195312 L 802.410156 405 L 408.214844 10.800781 Z M 14.015625 405 " fill-opacity="1" fill-rule="nonzero"/></g></g></g><g clip-path="url(#e465f62201)"><path fill="#f7f7f7" d="M 666.046875 419.238281 C 665.015625 421.773438 662.546875 423.4375 659.800781 423.4375 C 659.800781 423.4375 614.964844 423.261719 599.328125 423.203125 C 596.394531 423.191406 594.035156 420.808594 594.035156 417.871094 L 594.035156 415.148438 C 594.035156 412.277344 596.359375 409.953125 599.226562 409.953125 L 642.964844 409.953125 C 643.074219 409.953125 643.128906 409.820312 643.050781 409.742188 L 567.597656 336 C 566.273438 334.710938 565.527344 332.9375 565.527344 331.09375 L 565.527344 200.75 C 565.527344 200.683594 565.472656 200.628906 565.40625 200.628906 L 509.546875 200.628906 C 509.480469 200.628906 509.425781 200.683594 509.425781 200.75 L 509.425781 262.8125 C 509.425781 265.097656 508.4375 267.347656 506.558594 268.65625 C 503.832031 270.546875 500.25 270.179688 497.972656 267.957031 L 405.128906 177.210938 C 405.078125 177.164062 405.003906 177.164062 404.953125 177.210938 L 167.035156 409.742188 C 166.960938 409.820312 167.015625 409.953125 167.125 409.953125 L 210.828125 409.953125 C 213.710938 409.953125 216.050781 412.292969 216.050781 415.175781 L 216.050781 418.648438 C 216.050781 421.09375 214.078125 423.082031 211.636719 423.09375 C 196.894531 423.175781 150.28125 423.4375 150.28125 423.4375 C 147.542969 423.4375 145.070312 421.773438 144.035156 419.238281 C 143.003906 416.699219 143.605469 413.785156 145.570312 411.875 L 400.332031 162.882812 C 402.949219 160.320312 407.132812 160.320312 409.75 162.882812 L 495.734375 246.917969 C 495.8125 246.996094 495.945312 246.9375 495.945312 246.832031 L 495.945312 194.007812 C 495.945312 190.21875 499.019531 187.148438 502.804688 187.148438 L 572.148438 187.148438 C 575.9375 187.148438 579.011719 190.21875 579.011719 194.007812 L 579.011719 328.253906 C 579.011719 328.285156 579.027344 328.320312 579.050781 328.339844 L 664.515625 411.875 C 666.476562 413.785156 667.082031 416.699219 666.046875 419.238281 " fill-opacity="1" fill-rule="nonzero"/></g><g clip-path="url(#ef76cbaa99)"><path fill="#f7f7f7" d="M 336.097656 329.78125 L 333.695312 334.585938 L 358.933594 349.011719 C 358.933594 361.03125 354.128906 370.644531 343.3125 376.65625 L 318.070312 362.230469 L 316.867188 364.636719 C 322.878906 382.664062 334.898438 394.683594 358.933594 394.683594 C 364.945312 394.683594 382.972656 412.710938 392.589844 422.328125 L 411.820312 403.097656 C 402.203125 393.480469 380.570312 371.847656 380.570312 365.835938 C 380.570312 344.203125 374.558594 329.78125 336.097656 329.78125 Z M 486.335938 335.789062 L 462.300781 352.617188 L 459.894531 362.230469 L 390.183594 431.941406 L 380.570312 425.933594 L 375.761719 430.738281 C 375.761719 445.164062 358.933594 452.375 351.722656 452.375 L 312.0625 492.039062 C 312.0625 504.054688 325.28125 517.277344 337.300781 517.277344 L 376.964844 477.613281 C 376.964844 470.402344 384.175781 453.578125 398.597656 453.578125 L 403.40625 448.769531 L 397.394531 439.152344 L 467.105469 369.441406 L 476.722656 367.039062 L 493.546875 343 Z M 426.242188 417.519531 L 407.011719 436.75 C 421.433594 451.171875 440.664062 470.402344 440.664062 476.414062 C 440.664062 498.046875 446.675781 512.46875 485.136719 512.46875 L 487.539062 507.660156 L 462.300781 493.238281 C 462.300781 481.21875 467.105469 471.605469 477.925781 465.59375 L 503.164062 480.019531 L 504.367188 477.613281 C 498.355469 459.585938 486.335938 447.566406 462.300781 447.566406 C 456.289062 447.566406 440.664062 431.941406 426.242188 417.519531 Z M 426.242188 417.519531 " fill-opacity="1" fill-rule="nonzero"/></g></svg>