<svg xmlns="http://www.w3.org/2000/svg" xmlns:xlink="http://www.w3.org/1999/xlink" width="1080" zoomAndPan="magnify" viewBox="0 0 810 809.999993" height="1080" preserveAspectRatio="xMidYMid meet" version="1.0"><defs><clipPath id="7747abbe1a"><path d="M 8 5 L 808 5 L 808 805 L 8 805 Z M 8 5 " clip-rule="nonzero"/></clipPath><clipPath id="3c161af1b8"><path d="M 408.214844 0 L 813.386719 405.171875 L 408.214844 810.34375 L 3.042969 405.171875 Z M 408.214844 0 " clip-rule="nonzero"/></clipPath><clipPath id="9bb1447193"><path d="M 408.214844 0 L 813.386719 405.171875 L 408.214844 810.34375 L 3.042969 405.171875 Z M 408.214844 0 " clip-rule="nonzero"/></clipPath><clipPath id="47adcc7343"><path d="M 4 1 L 810 1 L 810 809 L 4 809 Z M 4 1 " clip-rule="nonzero"/></clipPath><clipPath id="b9c9d5e9ce"><path d="M 408.214844 0 L 813.386719 405.171875 L 408.214844 810.34375 L 3.042969 405.171875 Z M 408.214844 0 " clip-rule="nonzero"/></clipPath><clipPath id="55cb5bf1fb"><path d="M 408.214844 0 L 813.386719 405.171875 L 408.214844 810.34375 L 3.042969 405.171875 Z M 408.214844 0 " clip-rule="nonzero"/></clipPath><clipPath id="b3c8294e11"><path d="M 265.40625 147.105469 L 551 147.105469 L 551 663 L 265.40625 663 Z M 265.40625 147.105469 " clip-rule="nonzero"/></clipPath></defs><g clip-path="url(#7747abbe1a)"><g clip-path="url(#3c161af1b8)"><g clip-path="url(#9bb1447193)"><path fill="#bf9c53" d="M 408.214844 5.402344 L 807.8125 405 L 408.214844 804.597656 L 8.617188 405 Z M 408.214844 5.402344 " fill-opacity="1" fill-rule="nonzero"/></g></g></g><g clip-path="url(#47adcc7343)"><g clip-path="url(#b9c9d5e9ce)"><g clip-path="url(#55cb5bf1fb)"><path fill="#bf9c53" d="M 405.515625 807.296875 L 5.914062 407.699219 C 4.402344 406.1875 4.402344 403.8125 5.914062 402.296875 L 405.515625 2.699219 C 407.027344 1.1875 409.402344 1.1875 410.914062 2.699219 L 810.511719 402.296875 C 812.023438 403.8125 812.023438 406.1875 810.511719 407.699219 L 410.914062 807.296875 C 409.402344 808.808594 407.027344 808.808594 405.515625 807.296875 Z M 14.015625 405 L 408.214844 799.195312 L 802.410156 405 L 408.214844 10.800781 Z M 14.015625 405 " fill-opacity="1" fill-rule="nonzero"/></g></g></g><g clip-path="url(#b3c8294e11)"><path fill="#f7f7f7" d="M 408.1875 170.167969 C 342.277344 170.167969 288.660156 223.785156 288.660156 289.695312 L 288.660156 639.824219 L 527.714844 639.824219 L 527.714844 289.695312 C 527.714844 223.785156 474.09375 170.167969 408.1875 170.167969 Z M 412.414062 178.710938 C 440.398438 179.765625 465.769531 191.210938 484.757812 209.304688 L 412.414062 281.648438 Z M 403.960938 281.613281 L 331.632812 209.289062 C 350.621094 191.203125 375.984375 179.765625 403.960938 178.710938 Z M 395.855469 285.46875 L 297.203125 285.46875 C 298.214844 258.5625 308.835938 234.074219 325.738281 215.351562 Z M 403.960938 293.921875 L 403.960938 400.769531 L 297.113281 400.769531 L 297.113281 293.921875 Z M 403.960938 409.222656 L 403.960938 516.066406 L 297.113281 516.066406 L 297.113281 409.222656 Z M 412.414062 409.222656 L 519.261719 409.222656 L 519.261719 516.066406 L 412.414062 516.066406 Z M 412.414062 400.769531 L 412.414062 293.921875 L 519.261719 293.921875 L 519.261719 400.769531 Z M 420.554688 285.46875 L 490.652344 215.367188 C 507.542969 234.089844 518.160156 258.570312 519.171875 285.46875 Z M 297.113281 524.523438 L 403.960938 524.523438 L 403.960938 631.371094 L 297.113281 631.371094 Z M 412.414062 631.367188 L 412.414062 524.523438 L 519.261719 524.523438 L 519.261719 631.371094 L 412.414062 631.371094 Z M 408.1875 147.105469 C 329.5625 147.105469 265.597656 211.070312 265.597656 289.695312 L 265.597656 662.882812 L 550.773438 662.882812 L 550.773438 289.695312 C 550.773438 211.070312 486.8125 147.105469 408.1875 147.105469 Z M 542.320312 654.429688 L 274.054688 654.429688 L 274.054688 289.695312 C 274.054688 215.734375 334.226562 155.5625 408.1875 155.5625 C 482.148438 155.5625 542.320312 215.734375 542.320312 289.695312 Z M 542.320312 654.429688 " fill-opacity="1" fill-rule="nonzero"/></g></svg>