<svg  xmlns="http://www.w3.org/2000/svg" xmlns:xlink="http://www.w3.org/1999/xlink"  zoomAndPan="magnify" viewBox="0 0 810 809.999993"  preserveAspectRatio="xMidYMid meet" version="1.0"><defs><clipPath id="378e1faf2c"><path d="M 405 0 C 181.324219 0 0 181.324219 0 405 C 0 628.675781 181.324219 810 405 810 C 628.675781 810 810 628.675781 810 405 C 810 181.324219 628.675781 0 405 0 Z M 405 0 " clip-rule="nonzero"/></clipPath><clipPath id="1a7e19889e"><path d="M 251.910156 81 L 557.910156 81 L 557.910156 729 L 251.910156 729 Z M 251.910156 81 " clip-rule="nonzero"/></clipPath></defs><g clip-path="url(#378e1faf2c)"><path stroke-linecap="butt" transform="matrix(0.75, 0, 0, 0.75, 0.0000035, 0.00002)" fill="none" stroke-linejoin="miter" d="M 540.000023 -0.0000266667 C 241.765632 -0.0000266667 -0.00000466667 241.76561 -0.00000466667 540.000001 C -0.00000466667 838.234391 241.765632 1080.000028 540.000023 1080.000028 C 838.234413 1080.000028 1080.00005 838.234391 1080.00005 540.000001 C 1080.00005 241.76561 838.234413 -0.0000266667 540.000023 -0.0000266667 Z M 540.000023 -0.0000266667 " stroke="#f7f6f6" stroke-width="64" stroke-opacity="1" stroke-miterlimit="4"/></g><g clip-path="url(#1a7e19889e)"><path fill="#f7f6f6" d="M 487.449219 188.476562 L 558.085938 188.476562 L 558.085938 81.980469 L 467.890625 81.980469 L 467.890625 82.386719 C 349.304688 86.734375 324.855469 153.160156 322.816406 223.386719 L 322.546875 223.386719 L 322.546875 297.28125 L 251.910156 297.28125 L 251.910156 403.914062 L 322.546875 403.914062 L 322.546875 728.019531 L 449.28125 728.019531 L 449.28125 403.914062 L 540.15625 403.914062 L 558.085938 297.28125 L 449.28125 297.28125 L 449.28125 231.128906 C 449.28125 207.628906 465.039062 188.476562 487.449219 188.476562 Z M 487.449219 188.476562 " fill-opacity="1" fill-rule="nonzero"/></g></svg>