<svg xmlns="http://www.w3.org/2000/svg" xmlns:xlink="http://www.w3.org/1999/xlink" width="1080" zoomAndPan="magnify" viewBox="0 0 810 809.999993" height="1080" preserveAspectRatio="xMidYMid meet" version="1.0"><defs><clipPath id="5be15ca98b"><path d="M 405 0 C 181.324219 0 0 181.324219 0 405 C 0 628.675781 181.324219 810 405 810 C 628.675781 810 810 628.675781 810 405 C 810 181.324219 628.675781 0 405 0 Z M 405 0 " clip-rule="nonzero"/></clipPath><clipPath id="c6e9dcf8a4"><path d="M 132.792969 136.488281 L 677.292969 136.488281 L 677.292969 673.484375 L 132.792969 673.484375 Z M 132.792969 136.488281 " clip-rule="nonzero"/></clipPath><clipPath id="9289d0822b"><path d="M 222.789062 136.488281 L 587.199219 136.488281 C 611.070312 136.488281 633.960938 145.96875 650.835938 162.847656 C 667.714844 179.722656 677.199219 202.617188 677.199219 226.484375 L 677.199219 583.507812 C 677.199219 607.378906 667.714844 630.269531 650.835938 647.148438 C 633.960938 664.023438 611.070312 673.507812 587.199219 673.507812 L 222.789062 673.507812 C 198.921875 673.507812 176.027344 664.023438 159.152344 647.148438 C 142.273438 630.269531 132.792969 607.378906 132.792969 583.507812 L 132.792969 226.484375 C 132.792969 202.617188 142.273438 179.722656 159.152344 162.847656 C 176.027344 145.96875 198.921875 136.488281 222.789062 136.488281 Z M 222.789062 136.488281 " clip-rule="nonzero"/></clipPath><clipPath id="750e47e301"><path d="M 253.4375 253.4375 L 556.4375 253.4375 L 556.4375 556.433594 L 253.4375 556.433594 Z M 253.4375 253.4375 " clip-rule="nonzero"/></clipPath><clipPath id="14e838eab9"><path d="M 404.996094 253.4375 C 321.289062 253.4375 253.4375 321.289062 253.4375 404.996094 C 253.4375 488.699219 321.289062 556.550781 404.996094 556.550781 C 488.699219 556.550781 556.554688 488.699219 556.554688 404.996094 C 556.554688 321.289062 488.699219 253.4375 404.996094 253.4375 Z M 404.996094 253.4375 " clip-rule="nonzero"/></clipPath><clipPath id="befeacdb61"><path d="M 519.914062 216.785156 L 592.664062 216.785156 L 592.664062 289.535156 L 519.914062 289.535156 Z M 519.914062 216.785156 " clip-rule="nonzero"/></clipPath><clipPath id="34da8c9076"><path d="M 556.289062 216.785156 C 536.203125 216.785156 519.914062 233.074219 519.914062 253.160156 C 519.914062 273.25 536.203125 289.535156 556.289062 289.535156 C 576.378906 289.535156 592.664062 273.25 592.664062 253.160156 C 592.664062 233.074219 576.378906 216.785156 556.289062 216.785156 Z M 556.289062 216.785156 " clip-rule="nonzero"/></clipPath></defs><g clip-path="url(#5be15ca98b)"><path stroke-linecap="butt" transform="matrix(0.75, 0, 0, 0.75, 0.0000035, 0.00002)" fill="none" stroke-linejoin="miter" d="M 540.000023 -0.0000266667 C 241.765632 -0.0000266667 -0.00000466667 241.76561 -0.00000466667 540.000001 C -0.00000466667 838.234391 241.765632 1080.000028 540.000023 1080.000028 C 838.234413 1080.000028 1080.00005 838.234391 1080.00005 540.000001 C 1080.00005 241.76561 838.234413 -0.0000266667 540.000023 -0.0000266667 Z M 540.000023 -0.0000266667 " stroke="#bf9c53" stroke-width="64" stroke-opacity="1" stroke-miterlimit="4"/></g><g clip-path="url(#c6e9dcf8a4)"><g clip-path="url(#9289d0822b)"><path stroke-linecap="butt" transform="matrix(0.75, 0, 0, 0.75, 132.791409, 136.486508)" fill="none" stroke-linejoin="miter" d="M 119.996878 0.00236389 L 605.87711 0.00236389 C 637.705237 0.00236389 668.226072 12.64299 690.726073 35.148199 C 713.231282 57.6482 725.877116 88.174243 725.877116 119.997162 L 725.877116 596.028436 C 725.877116 627.856562 713.231282 658.377397 690.726073 680.877398 C 668.226072 703.382608 637.705237 716.028442 605.87711 716.028442 L 119.996878 716.028442 C 88.173959 716.028442 57.647916 703.382608 35.147915 680.877398 C 12.642706 658.377397 0.00207991 627.856562 0.00207991 596.028436 L 0.00207991 119.997162 C 0.00207991 88.174243 12.642706 57.6482 35.147915 35.148199 C 57.647916 12.64299 88.173959 0.00236389 119.996878 0.00236389 Z M 119.996878 0.00236389 " stroke="#bf9c53" stroke-width="120" stroke-opacity="1" stroke-miterlimit="4"/></g></g><g clip-path="url(#750e47e301)"><g clip-path="url(#14e838eab9)"><path stroke-linecap="butt" transform="matrix(0.75, 0, 0, 0.75, 253.435596, 253.435555)" fill="none" stroke-linejoin="miter" d="M 202.080673 0.002593 C 90.471293 0.002593 0.0025382 90.471348 0.0025382 202.080728 C 0.0025382 313.6849 90.471293 404.153655 202.080673 404.153655 C 313.684846 404.153655 404.158809 313.6849 404.158809 202.080728 C 404.158809 90.471348 313.684846 0.002593 202.080673 0.002593 Z M 202.080673 0.002593 " stroke="#bf9c53" stroke-width="120" stroke-opacity="1" stroke-miterlimit="4"/></g></g><g clip-path="url(#befeacdb61)"><g clip-path="url(#34da8c9076)"><path fill="#bf9c53" d="M 519.914062 216.785156 L 592.664062 216.785156 L 592.664062 289.535156 L 519.914062 289.535156 Z M 519.914062 216.785156 " fill-opacity="1" fill-rule="nonzero"/></g></g></svg>