<svg xmlns="http://www.w3.org/2000/svg" xmlns:xlink="http://www.w3.org/1999/xlink" width="1080" zoomAndPan="magnify" viewBox="0 0 810 809.999993" height="1080" preserveAspectRatio="xMidYMid meet" version="1.0"><defs><g/><clipPath id="4a85eeeb22"><path d="M 405 0 C 181.324219 0 0 181.324219 0 405 C 0 628.675781 181.324219 810 405 810 C 628.675781 810 810 628.675781 810 405 C 810 181.324219 628.675781 0 405 0 Z M 405 0 " clip-rule="nonzero"/></clipPath></defs><g clip-path="url(#4a85eeeb22)"><path stroke-linecap="butt" transform="matrix(0.75, 0, 0, 0.75, 0.0000035, 0.00002)" fill="none" stroke-linejoin="miter" d="M 540.000023 -0.0000266667 C 241.765632 -0.0000266667 -0.00000466667 241.76561 -0.00000466667 540.000001 C -0.00000466667 838.234391 241.765632 1080.000028 540.000023 1080.000028 C 838.234413 1080.000028 1080.00005 838.234391 1080.00005 540.000001 C 1080.00005 241.76561 838.234413 -0.0000266667 540.000023 -0.0000266667 Z M 540.000023 -0.0000266667 " stroke="#bf9c53" stroke-width="64" stroke-opacity="1" stroke-miterlimit="4"/></g><g fill="#bf9c53" fill-opacity="1"><g transform="translate(138.33256, 650.624987)"><g><path d="M 92.078125 -382.90625 C 76.578125 -382.90625 63.96875 -387.609375 54.25 -397.015625 C 44.539062 -406.421875 39.6875 -418.566406 39.6875 -433.453125 C 39.6875 -448.128906 44.539062 -460.164062 54.25 -469.5625 C 63.96875 -478.96875 76.578125 -483.671875 92.078125 -483.671875 C 102.421875 -483.671875 111.617188 -481.5 119.671875 -477.15625 C 127.734375 -472.820312 133.988281 -466.882812 138.4375 -459.34375 C 142.882812 -451.800781 145.109375 -443.171875 145.109375 -433.453125 C 145.109375 -423.734375 142.882812 -415.050781 138.4375 -407.40625 C 133.988281 -399.757812 127.734375 -393.765625 119.671875 -389.421875 C 111.617188 -385.078125 102.421875 -382.90625 92.078125 -382.90625 Z M 49.296875 0 L 49.296875 -341.984375 L 135.1875 -341.984375 L 135.1875 0 Z M 49.296875 0 "/></g></g></g><g fill="#bf9c53" fill-opacity="1"><g transform="translate(271.069451, 650.624987)"><g><path d="M 49.296875 0 L 49.296875 -341.984375 L 131.765625 -341.984375 L 131.765625 -291.765625 L 138.28125 -290.203125 C 159.570312 -329.066406 194.09375 -348.5 241.84375 -348.5 C 281.320312 -348.5 310.3125 -337.75 328.8125 -316.25 C 347.3125 -294.75 356.5625 -263.4375 356.5625 -222.3125 L 356.5625 0 L 270.671875 0 L 270.671875 -211.765625 C 270.671875 -234.503906 266.125 -250.882812 257.03125 -260.90625 C 247.9375 -270.9375 233.363281 -275.953125 213.3125 -275.953125 C 188.71875 -275.953125 169.546875 -267.992188 155.796875 -252.078125 C 142.054688 -236.160156 135.1875 -211.148438 135.1875 -177.046875 L 135.1875 0 Z M 49.296875 0 "/></g></g></g></svg>