<svg xmlns="http://www.w3.org/2000/svg" xmlns:xlink="http://www.w3.org/1999/xlink" width="1080" zoomAndPan="magnify" viewBox="0 0 810 809.999993" height="1080" preserveAspectRatio="xMidYMid meet" version="1.0"><defs><clipPath id="c3a032eb28"><path d="M 405 0 C 181.324219 0 0 181.324219 0 405 C 0 628.675781 181.324219 810 405 810 C 628.675781 810 810 628.675781 810 405 C 810 181.324219 628.675781 0 405 0 Z M 405 0 " clip-rule="nonzero"/></clipPath><clipPath id="cc93da0910"><path d="M 123.75 223.242188 L 686.25 223.242188 L 686.25 586.992188 L 123.75 586.992188 Z M 123.75 223.242188 " clip-rule="nonzero"/></clipPath></defs><g clip-path="url(#c3a032eb28)"><path stroke-linecap="butt" transform="matrix(0.75, 0, 0, 0.75, 0.0000035, 0.00002)" fill="none" stroke-linejoin="miter" d="M 540.000023 -0.0000266667 C 241.765632 -0.0000266667 -0.00000466667 241.76561 -0.00000466667 540.000001 C -0.00000466667 838.234391 241.765632 1080.000028 540.000023 1080.000028 C 838.234413 1080.000028 1080.00005 838.234391 1080.00005 540.000001 C 1080.00005 241.76561 838.234413 -0.0000266667 540.000023 -0.0000266667 Z M 540.000023 -0.0000266667 " stroke="#bf9c53" stroke-width="64" stroke-opacity="1" stroke-miterlimit="4"/></g><g clip-path="url(#cc93da0910)"><path fill="#bf9c53" d="M 219.441406 223.238281 C 166.441406 223.238281 123.777344 263.144531 123.777344 312.71875 L 123.777344 497.265625 C 123.777344 546.839844 166.441406 586.746094 219.441406 586.746094 L 590.539062 586.746094 C 643.539062 586.746094 686.203125 546.835938 686.203125 497.265625 L 686.203125 312.71875 C 686.203125 263.144531 643.539062 223.238281 590.539062 223.238281 Z M 333.59375 294.957031 L 522.238281 403.214844 L 524.25 404.867188 L 336.167969 514.113281 L 333.730469 515.027344 L 333.164062 297.523438 L 333.589844 294.953125 Z M 333.59375 294.957031 " fill-opacity="1" fill-rule="nonzero"/></g></svg>